SplineFontDB: 3.0
FontName: TlwgMono-BoldOblique
FullName: Tlwg Mono Bold Oblique
FamilyName: TlwgMono
Weight: Bold
Copyright: TlwgMono-Bold, Free Thai Monospace outline font.\n\nCopyright (C) 2003 Poonlap Veerathanabutr <poonlap@linux.thai.net>
UComments: "2003-11-26: Created. +AAoA-PfaEdit 1.0 (http://pfaedit.sf.net).+AAoACgAA-TLWG is Thai Linux Working Group http://linux.thai.net+AAoACgAA-Imported ISO-8859-1 from FreeMono.sfd.+AAoA-http://www.nongnu.org/freefont/+AAoACgAA-Created from PseudoMono-BoldOblique+AAoA" 
Version: 001.012: 2009-06-07
ItalicAngle: -12
UnderlinePosition: -100
UnderlineWidth: 50
Ascent: 800
Descent: 200
LayerCount: 2
Layer: 0 0 "Back"  1
Layer: 1 0 "Fore"  0
NeedsXUIDChange: 1
FSType: 0
OS2Version: 0
OS2_WeightWidthSlopeOnly: 0
OS2_UseTypoMetrics: 0
CreationTime: 1153666223
ModificationTime: 1244364526
PfmFamily: 49
TTFWeight: 700
TTFWidth: 5
LineGap: 90
VLineGap: 0
Panose: 2 0 6 3 0 0 0 0 0 0
OS2TypoAscent: 0
OS2TypoAOffset: 1
OS2TypoDescent: 0
OS2TypoDOffset: 1
OS2TypoLinegap: 0
OS2WinAscent: 0
OS2WinAOffset: 1
OS2WinDescent: 0
OS2WinDOffset: 1
HheadAscent: 0
HheadAOffset: 1
HheadDescent: 0
HheadDOffset: 1
OS2Vendor: 'PfEd'
Lookup: 4 8 1 "'liga' Standard Ligatures lookup 0"  {"'liga' Standard Ligatures lookup 0 subtable"  } ['liga' ('DFLT' <'dflt' > ) ]
Lookup: 4 8 0 "'frac' Diagonal Fractions lookup 1"  {"'frac' Diagonal Fractions lookup 1 subtable"  } ['frac' ('DFLT' <'dflt' > ) ]
DEI: 91125
ShortTable: cvt  4
  33
  633
  68
  1297
EndShort

StartChar: mu
Encoding: 116 181 0
Width: 600
Flags: W
HStem: -16 100<226.015 372.242> 337 100<136.141 167 432.141 482>
LayerCount: 2
Fore
SplineSet
151 337 m 2
 130 337 94 337 94 378 c 0
 94 397 108 420 128 430 c 0
 140 436 145 437 172 437 c 2
 288 437 l 1
 226 144 l 2
 224 136 223 129 223 122 c 0
 223 95 241 84 278 84 c 0
 322 84 367 99 439 138 c 1
 482 337 l 1
 447 337 l 2
 422 337 411 339 404 347 c 1
 395 354 390 366 390 378 c 0
 390 397 404 420 424 430 c 0
 435 436 444 437 468 437 c 2
 603 437 l 1
 531 100 l 1
 565 100 583 86 583 61 c 0
 583 35 565 16 548 7 c 0
 539 2 526 0 505 0 c 2
 410 0 l 1
 415 22 l 1
 355 -4 302 -16 250 -16 c 0
 229 -16 212 -13 194 -7 c 1
 177 -87 l 2
 171 -113 167 -122 158 -132 c 0
 145 -145 128 -153 112 -153 c 0
 88 -153 73 -135 73 -117 c 0
 73 -110 74 -100 77 -87 c 2
 167 337 l 1
 151 337 l 2
EndSplineSet
EndChar

StartChar: uni0E31
Encoding: 239 3633 1
Width: 600
Flags: W
HStem: 502 60<400.285 466.205> 642 55<383.698 451.849>
VStem: 328 44<563.848 630.763> 454 53<610.451 658.202>
LayerCount: 2
Fore
SplineSet
422 642 m 0
 395 642 372 612 372 592 c 0
 372 574 386 562 405 562 c 0
 427 562 454 579 454 608 c 0
 454 626 441 642 422 642 c 0
328 583 m 0
 328 626 371 697 434 697 c 16
 468 697 507 676 507 643 c 0
 507 630 502 615 498 599 c 1
 556 599 607 659 637 682 c 9
 688 621 l 17
 633 564 601 539 534 515 c 16
 508 505 486 502 465 502 c 0
 439 502 416 507 389 514 c 0
 354 523 328 547 328 583 c 0
EndSplineSet
EndChar

StartChar: uni0E34
Encoding: 242 3636 2
Width: 600
Flags: W
HStem: 500 57<322 495 230 577 322 322> 586 80<326.374 479.487>
LayerCount: 2
Fore
SplineSet
446 586 m 2
 392 586 l 2
 361 586 328 583 322 557 c 9
 495 557 l 17
 496 560 496 562 496 564 c 0
 496 584 471 586 446 586 c 2
438 666 m 0
 523 666 577 641 577 558 c 0
 577 541 575 522 570 500 c 9
 230 500 l 17
 257 626 326 666 438 666 c 0
EndSplineSet
EndChar

StartChar: uni0E35
Encoding: 243 3637 3
Width: 600
Flags: W
HStem: 500 168<231 441.625 499 560 135 596 339 339> 500 72<252 380> 603 65<270.182 368.636>
LayerCount: 2
Fore
SplineSet
325 603 m 8x60
 296 603 258 602 252 572 c 9
 380 572 l 17
 380 574 381 576 381 578 c 0
 381 600 350 603 325 603 c 8x60
339 668 m 0x80
 429 668 476 642 479 572 c 9x40
 499 668 l 25
 596 668 l 25
 560 500 l 25
 135 500 l 17
 158 606 231 668 339 668 c 0x80
EndSplineSet
EndChar

StartChar: uni0E36
Encoding: 244 3638 4
Width: 600
Flags: W
HStem: 500 186<479 544> 500 64<282 417> 594 72<301.043 402.963> 642 44<495.215 565.686>
VStem: 176 441<518 630 500 617 500 500> 571 46<563.083 638.251>
LayerCount: 2
Fore
SplineSet
518 549 m 0x14
 545 549 571 582 571 602 c 0
 571 620 556 642 534 642 c 0
 508 642 479 609 479 589 c 0
 479 571 495 549 518 549 c 0x14
348 594 m 0x60
 326 594 287 589 282 564 c 9
 417 564 l 17
 422 588 388 594 348 594 c 0x60
347 666 m 16
 393 666 454 633 454 633 c 1
 454 633 507 686 544 686 c 16
 587 686 617 657 617 617 c 0
 617 518 479 500 479 500 c 9x88
 176 500 l 17x48
 204 630 264 666 347 666 c 16
EndSplineSet
EndChar

StartChar: uni0E37
Encoding: 245 3639 5
Width: 600
Flags: W
HStem: 500 166<222 367.763 432 480 536 566 153 602 536 536> 500 76<235 334 480 516> 605 63<247.718 325.011>
LayerCount: 2
Fore
SplineSet
287 605 m 8x60
 266 605 241 603 235 576 c 9
 334 576 l 17
 334 578 335 580 335 582 c 0
 335 600 312 605 287 605 c 8x60
301 668 m 16
 361 668 391 635 412 576 c 9
 432 667 l 25
 500 667 l 25
 480 576 l 25
 516 576 l 25x60
 536 666 l 25
 602 666 l 25
 566 500 l 25
 153 500 l 17x80
 181 631 222 668 301 668 c 16
EndSplineSet
EndChar

StartChar: uni0E48
Encoding: 262 3656 6
Width: 600
Flags: W
HStem: 700 155<534 598 534 598 534 534>
LayerCount: 2
Fore
SplineSet
534 855 m 1
 631 855 l 1
 598 700 l 1
 501 700 l 1
 534 855 l 1
EndSplineSet
EndChar

StartChar: uni0E49
Encoding: 263 3657 7
Width: 600
Flags: W
HStem: 700 79<411 455> 700 108<463.181 522.789> 871 33<466.984 526.358>
VStem: 420 43<808.444 866.23> 527 43<812.472 870.694>
LayerCount: 2
Fore
SplineSet
488 808 m 0x78
 512 808 527 830 527 845 c 0
 527 860 517 871 501 871 c 0
 482 871 463 854 463 833 c 0
 463 818 473 808 488 808 c 0x78
420 827 m 0
 420 863 457 904 508 904 c 16
 541 904 570 879 570 850 c 0
 570 824 543 782 543 781 c 1
 543 781 626 796 664 847 c 9
 722 813 l 17
 722 813 685 755 650 732 c 24
 609 706 544 700 535 700 c 2
 394 700 l 9x78
 411 779 l 17
 455 779 l 1xb8
 455 779 420 793 420 827 c 0
EndSplineSet
EndChar

StartChar: uni0E4A
Encoding: 264 3658 8
Width: 600
Flags: W
HStem: 697 210<360 684 684 684> 697 25<348.35 382.297>
VStem: 309 419<757 892 757 757> 541 67<760.35 806.869>
LayerCount: 2
Fore
SplineSet
369 758 m 0x40
 345 758 338 722 361 722 c 0
 385 722 392 758 369 758 c 0x40
309 757 m 0xa0
 309 790 356 874 423 874 c 24
 453 874 477 831 477 831 c 1
 477 831 513 873 540 873 c 16
 572 873 587 863 602 840 c 16
 607 832 608 821 608 810 c 0x90
 608 790 603 769 603 769 c 9
 684 907 l 25
 728 892 l 25xa0
 616 700 l 1
 528 700 l 17
 537 724 541 744 541 763 c 0x90
 541 780 538 796 532 810 c 9
 495 775 l 25
 440 775 l 17
 409 813 l 1
 397 804 389 792 386 778 c 1
 400 776 419 767 419 751 c 0
 419 730 391 697 360 697 c 0
 327 697 309 729 309 757 c 0xa0
EndSplineSet
EndChar

StartChar: uni0E4B
Encoding: 265 3659 9
Width: 600
Flags: W
HStem: 773 73<453 515 633 705 437 721 453 453>
LayerCount: 2
Fore
SplineSet
515 773 m 1
 437 773 l 1
 453 846 l 1
 531 846 l 1
 548 926 l 1
 650 926 l 1
 633 845 l 1
 721 845 l 1
 705 773 l 1
 617 773 l 1
 602 700 l 1
 500 700 l 1
 515 773 l 1
EndSplineSet
EndChar

StartChar: uni0E4C
Encoding: 266 3660 10
Width: 600
Flags: W
HStem: 695 41<490.797 551.135>
VStem: 444 46<737.115 794.727> 556 48<740.972 772>
LayerCount: 2
Fore
SplineSet
530 800 m 0
 506 800 490 778 490 761 c 0
 490 746 500 736 516 736 c 0
 540 736 556 758 556 775 c 0
 556 790 546 800 530 800 c 0
519 695 m 0
 496 695 444 707 444 754 c 0
 444 809 503 836 533 849 c 16
 580 870 646 903 717 938 c 25
 745 844 l 25
 604 772 l 1
 604 772 605 740 590 726 c 16
 568 705 544 695 519 695 c 0
EndSplineSet
EndChar

StartChar: uni0E4D
Encoding: 267 3661 11
Width: 600
Flags: W
HStem: 500 70<477.87 524.143> 619 63<502.313 549.703>
VStem: 425 68<570.523 616.573>
LayerCount: 2
Fore
SplineSet
520 619 m 0
 513 619 493 607 493 591 c 0
 493 579 504 570 509 570 c 0
 514 570 531 581 534 595 c 0
 537 608 525 619 520 619 c 0
425 573 m 0
 425 639 486 682 533 682 c 0
 573 682 600 651 600 613 c 0
 600 561 549 500 494 500 c 0
 454 500 425 531 425 573 c 0
EndSplineSet
EndChar

StartChar: exclam
Encoding: 1 33 13
Width: 600
Flags: W
HStem: -15 132<263.246 289 289 360.359> 618 20G<413.5 457>
VStem: 234 268<37 576 9 80.3592> 234 154<13.6636 88.1026>
LayerCount: 2
Fore
SplineSet
502 576 m 0xe0
 502 555 499 560 491 525 c 2
 398 228 l 2
 389 197 367 179 339 179 c 0
 313 179 299 195 299 221 c 0
 299 223 299 225 299 228 c 2
 334 525 l 2
 335 537 337 551 339 558 c 0
 348 604 390 638 437 638 c 0
 477 638 502 612 502 576 c 0xe0
388 65 m 0xd0
 388 27 353 -15 306 -15 c 2
 289 -15 l 2
 257 -15 234 8 234 37 c 0xe0
 234 83 279 117 317 117 c 2
 334 117 l 2
 366 117 388 95 388 65 c 0xd0
EndSplineSet
EndChar

StartChar: quotedbl
Encoding: 2 34 14
Width: 600
Flags: W
HStem: 312 290<264 300.333 464 500.333>
VStem: 243 349<337 602 537 573.333>
LayerCount: 2
Fore
SplineSet
264 602 m 1
 392 602 l 1
 307 348 l 2
 297 322 287 312 267 312 c 0
 251 312 243 319 243 337 c 0
 243 340 244 343 244 347 c 2
 264 602 l 1
464 602 m 1
 592 602 l 1
 507 348 l 2
 497 322 487 312 467 312 c 0
 451 312 443 319 443 337 c 0
 443 340 444 343 444 347 c 2
 464 602 l 1
EndSplineSet
EndChar

StartChar: numbersign
Encoding: 3 35 15
Width: 600
Flags: W
HStem: 139 99<142.438 184 312 356 483 516.273> 344 100<206.297 241 370 413 541 580.251>
LayerCount: 2
Fore
SplineSet
302 -52 m 0
 302 -49 356 139 356 139 c 1
 284 139 l 1
 236 -29 l 2
 227 -70 205 -92 172 -92 c 0
 147 -92 132 -76 132 -52 c 0
 132 -46 131 -46 138 -22 c 2
 184 139 l 1
 158 139 l 2
 135 139 101 139 101 180 c 0
 101 199 115 221 135 231 c 0
 145 237 153 238 179 238 c 2
 212 238 l 1
 241 344 l 1
 222 344 l 2
 199 344 165 344 165 384 c 0
 165 409 184 429 199 437 c 0
 209 443 216 444 243 444 c 2
 269 444 l 1
 317 612 l 2
 318 614 327 675 381 675 c 0
 406 675 422 658 422 635 c 0
 422 626 414 600 370 444 c 1
 441 444 l 1
 489 612 l 2
 496 640 499 646 509 656 c 0
 522 668 538 675 553 675 c 0
 576 675 594 656 594 636 c 0
 594 633 594 630 593 627 c 2
 541 444 l 1
 566 444 l 2
 593 444 601 442 609 435 c 0
 618 427 623 416 623 403 c 0
 623 384 609 361 589 351 c 0
 579 346 569 344 545 344 c 2
 513 344 l 1
 483 238 l 1
 502 238 l 2
 526 238 559 238 559 198 c 0
 559 177 544 156 525 146 c 0
 515 141 505 139 482 139 c 2
 455 139 l 1
 408 -29 l 2
 397 -72 368 -92 342 -92 c 0
 319 -92 302 -74 302 -52 c 0
413 344 m 1
 342 344 l 1
 312 238 l 1
 384 238 l 1
 413 344 l 1
EndSplineSet
EndChar

StartChar: dollar
Encoding: 4 36 16
Width: 600
Flags: W
HStem: -123 247<258.937 343.038>
VStem: 195 107<392.233 465.808> 457 106<166.639 247.993>
LayerCount: 2
Fore
SplineSet
447 684 m 0
 475 684 487 662 487 647 c 0
 487 641 485 632 482 618 c 2
 477 592 l 1
 496 588 501 588 519 582 c 2
 532 577 l 1
 532 576 536 575 540 574 c 1
 552 579 560 581 569 581 c 0
 594 581 609 566 609 542 c 0
 609 534 607 526 605 515 c 2
 599 483 l 2
 596 471 587 417 535 417 c 0
 508 417 492 432 492 460 c 0
 492 478 455 495 415 495 c 0
 329 495 302 449 302 424 c 0
 302 402 323 386 366 377 c 2
 428 363 l 2
 500 347 563 321 563 236 c 0
 563 152 502 54 357 27 c 1
 339 -56 l 2
 333 -84 330 -92 320 -102 c 0
 308 -115 291 -123 276 -123 c 0
 255 -123 236 -108 236 -87 c 0
 236 -80 237 -71 240 -56 c 2
 258 27 l 1
 218 36 213 38 184 52 c 1
 165 38 155 34 141 34 c 0
 121 34 100 46 100 71 c 0
 100 78 101 87 104 101 c 2
 117 162 l 2
 123 189 127 198 136 208 c 0
 149 221 166 229 182 229 c 0
 195 229 207 223 215 215 c 1
 220 207 220 207 222 180 c 0
 224 149 271 124 326 124 c 0
 392 124 457 161 457 213 c 0
 457 240 436 255 389 265 c 2
 319 280 l 2
 238 297 195 339 195 401 c 0
 195 498 282 576 378 592 c 1
 383 618 l 2
 389 645 393 653 402 664 c 0
 415 676 431 684 447 684 c 0
EndSplineSet
EndChar

StartChar: percent
Encoding: 5 37 17
Width: 600
Flags: W
HStem: -15 65<332.528 434.388> 199 65<355.125 457.808> 338 65<267.77 369.779> 552 65<290.125 392.808>
VStem: 188 66<416.715 517.021> 253 66<63.7148 164.021> 406 66<439.591 538.624> 471 66<86.1246 185.624>
LayerCount: 2
Fore
SplineSet
188 448 m 0xfa
 188 532 269 617 359 617 c 0
 427 617 472 571 472 507 c 0
 472 421 390 338 301 338 c 0
 234 338 188 385 188 448 c 0xfa
314 403 m 0
 360 403 406 446 406 493 c 0
 406 527 381 552 345 552 c 0
 301 552 254 510 254 462 c 0
 254 429 279 403 314 403 c 0
599 369 m 0
 599 339 567 333 561 331 c 2
 174 213 l 2
 167 211 157 209 153 209 c 0
 140 209 130 221 130 235 c 0
 130 257 148 266 168 272 c 2
 555 390 l 2
 568 394 570 394 576 394 c 0
 589 394 599 383 599 369 c 0
253 95 m 0xf5
 253 179 334 264 424 264 c 0
 492 264 537 218 537 154 c 0
 537 59 447 -15 365 -15 c 0
 299 -15 253 32 253 95 c 0xf5
380 50 m 0
 423 50 471 91 471 140 c 0
 471 174 446 199 410 199 c 0
 366 199 319 157 319 109 c 0
 319 76 344 50 380 50 c 0
EndSplineSet
EndChar

StartChar: ampersand
Encoding: 6 38 18
Width: 600
Flags: W
HStem: -14 100<211.322 319.918> 450 100<339.345 429.22>
VStem: 102 102<95.6813 183.882> 218 104<352.944 432.345>
LayerCount: 2
Fore
SplineSet
386 450 m 0
 350 450 322 417 322 395 c 0
 322 383 327 366 338 343 c 2
 407 198 l 1
 448 280 l 1
 501 280 l 2
 528 280 536 278 544 270 c 0
 553 262 557 252 557 240 c 0
 557 208 529 182 502 180 c 1
 483 139 472 121 455 100 c 1
 463 100 l 2
 490 100 498 98 506 91 c 0
 515 83 520 72 520 59 c 0
 520 40 505 17 485 7 c 0
 476 2 463 0 442 0 c 2
 381 0 l 1
 373 15 l 1
 339 -6 307 -14 254 -14 c 0
 159 -14 102 32 102 107 c 0
 102 152 124 245 235 303 c 1
 224 334 218 353 218 371 c 0
 218 456 310 550 406 550 c 0
 430 550 449 545 472 533 c 1
 485 537 495 540 502 540 c 0
 524 540 540 521 540 499 c 0
 540 462 504 447 487 438 c 2
 441 416 l 1
 418 442 406 450 386 450 c 0
275 220 m 1
 222 198 204 157 204 129 c 0
 204 100 228 86 275 86 c 0
 300 86 312 89 333 100 c 1
 275 220 l 1
EndSplineSet
EndChar

StartChar: quotesingle
Encoding: 7 39 19
Width: 600
Flags: W
HStem: 312 290<364 400.333>
VStem: 343 149<337 602 337 337>
LayerCount: 2
Fore
SplineSet
364 602 m 1
 492 602 l 1
 407 348 l 2
 397 322 387 312 367 312 c 0
 351 312 343 319 343 337 c 0
 343 340 344 343 344 347 c 2
 364 602 l 1
EndSplineSet
EndChar

StartChar: parenleft
Encoding: 8 40 20
Width: 600
Flags: W
VStem: 304 309 304 111<1.14342 275.784>
LayerCount: 2
Fore
SplineSet
467 -93 m 0x40
 467 -126 435 -153 404 -153 c 0
 380 -153 370 -142 351 -95 c 0
 320 -20 304 56 304 131 c 0x40
 304 313 406 474 505 587 c 0
 535 623 549 632 571 632 c 0
 596 632 613 615 613 593 c 0x80
 613 576 605 564 593 549 c 0
 500 438 415 305 415 142 c 0
 415 21 467 -75 467 -93 c 0x40
EndSplineSet
EndChar

StartChar: parenright
Encoding: 9 41 21
Width: 600
Flags: W
VStem: 94 309 291 112<206.707 478.964>
LayerCount: 2
Fore
SplineSet
239 572 m 0x40
 239 598 264 632 302 632 c 0
 326 632 337 621 356 574 c 0
 387 499 403 423 403 348 c 0x40
 403 165 298 2 202 -109 c 0
 171 -144 157 -153 135 -153 c 0
 110 -153 94 -137 94 -115 c 0x80
 94 -97 99 -88 114 -70 c 0
 207 41 291 174 291 337 c 0
 291 461 239 557 239 572 c 0x40
EndSplineSet
EndChar

StartChar: asterisk
Encoding: 10 42 22
Width: 600
Flags: W
HStem: 208 414<410.137 447.589>
VStem: 177 437<419.375 466.075>
LayerCount: 2
Fore
SplineSet
508 268 m 0
 508 242 480 208 446 208 c 0
 425 208 418 214 403 242 c 2
 367 314 l 1
 299 242 l 2
 273 214 262 208 242 208 c 0
 219 208 202 225 202 248 c 0
 202 269 215 284 231 301 c 2
 298 372 l 1
 218 400 l 2
 189 409 177 420 177 439 c 0
 177 472 208 502 237 502 c 0
 247 502 249 501 269 495 c 2
 349 467 l 1
 368 556 l 2
 373 581 378 592 387 601 c 0
 400 614 416 622 432 622 c 0
 452 622 472 609 472 585 c 0
 472 578 471 570 468 556 c 2
 449 467 l 1
 541 495 l 2
 563 501 567 502 576 502 c 0
 598 502 614 484 614 462 c 0
 614 423 579 408 552 400 c 2
 460 372 l 1
 497 301 l 2
 505 286 508 277 508 268 c 0
EndSplineSet
EndChar

StartChar: plus
Encoding: 11 43 23
Width: 600
Flags: W
HStem: 0 21G<289 308> 230 100<142.422 299 420 575.516>
LayerCount: 2
Fore
SplineSet
419 560 m 0
 440 560 460 544 460 523 c 0
 460 517 458 508 455 494 c 2
 420 330 l 1
 561 330 l 2
 589 330 597 328 605 321 c 0
 614 313 619 302 619 289 c 0
 619 270 604 247 584 237 c 0
 575 232 563 230 540 230 c 2
 399 230 l 1
 364 66 l 2
 358 39 355 31 345 21 c 0
 333 8 316 0 300 0 c 0
 278 0 260 15 260 37 c 0
 260 44 261 53 264 66 c 2
 299 230 l 1
 157 230 l 2
 133 230 121 232 114 239 c 0
 106 247 101 257 101 269 c 0
 101 280 106 307 135 323 c 0
 145 329 153 330 178 330 c 2
 320 330 l 1
 355 494 l 2
 355 496 364 560 419 560 c 0
EndSplineSet
EndChar

StartChar: comma
Encoding: 12 44 24
Width: 600
Flags: W
HStem: -158 292<144 247 379 379>
VStem: 119 260<-135 134 -135 -135>
LayerCount: 2
Fore
SplineSet
247 134 m 1
 379 134 l 1
 182 -134 l 2
 170 -150 156 -158 144 -158 c 0
 129 -158 119 -148 119 -135 c 0
 119 -130 121 -122 126 -111 c 2
 247 134 l 1
EndSplineSet
EndChar

StartChar: hyphen
Encoding: 13 45 25
Width: 600
Flags: W
HStem: 229 100<142 575.539>
LayerCount: 2
Fore
SplineSet
562 329 m 2
 585 329 619 329 619 291 c 0
 619 280 614 252 584 236 c 0
 575 231 563 229 541 229 c 2
 157 229 l 2
 132 229 121 231 114 238 c 0
 105 246 100 257 100 270 c 0
 100 289 114 310 134 322 c 0
 145 328 153 329 178 329 c 2
 562 329 l 2
EndSplineSet
EndChar

StartChar: period
Encoding: 14 46 26
Width: 600
Flags: W
HStem: -15 132<262.964 288 288 360.359>
VStem: 234 154<13.6636 88.1026>
LayerCount: 2
Fore
SplineSet
388 65 m 0
 388 27 353 -15 306 -15 c 2
 288 -15 l 2
 257 -15 234 8 234 37 c 0
 234 80 276 117 316 117 c 2
 334 117 l 2
 366 117 388 95 388 65 c 0
EndSplineSet
EndChar

StartChar: slash
Encoding: 15 47 27
Width: 600
Flags: W
LayerCount: 2
Fore
SplineSet
656 655 m 0
 656 637 641 618 635 610 c 2
 170 -69 l 2
 148 -103 133 -113 109 -113 c 0
 86 -113 68 -95 68 -73 c 0
 68 -58 76 -45 89 -27 c 2
 554 651 l 2
 577 685 592 695 615 695 c 0
 639 695 656 677 656 655 c 0
EndSplineSet
EndChar

StartChar: zero
Encoding: 16 48 28
Width: 600
Flags: W
HStem: -15 100<260.698 382.435> 538 100<350.187 469.538>
VStem: 130 101<116.192 234.258> 502 101<390.944 504.75>
LayerCount: 2
Fore
SplineSet
436 638 m 0
 555 638 603 552 603 446 c 0
 603 418 599 389 593 359 c 2
 573 264 l 2
 543 120 446 -15 297 -15 c 0
 178 -15 130 71 130 178 c 0
 130 205 133 235 139 264 c 2
 159 359 l 2
 190 503 287 638 436 638 c 0
261 366 m 2
 238 257 l 2
 233 235 231 214 231 196 c 0
 231 127 262 85 318 85 c 0
 389 85 450 153 472 257 c 2
 495 366 l 2
 500 388 502 408 502 426 c 0
 502 496 470 538 414 538 c 0
 343 538 283 470 261 366 c 2
EndSplineSet
EndChar

StartChar: one
Encoding: 17 49 29
Width: 600
Flags: W
HStem: 0 100<134.281 271 371 484.379> 618 20G<404.545 481.725>
VStem: 93 436<17.1314 84.8509>
LayerCount: 2
Fore
SplineSet
149 0 m 2
 124 0 93 3 93 40 c 0
 93 61 107 83 127 93 c 0
 137 99 144 100 170 100 c 2
 271 100 l 1
 358 509 l 1
 266 486 l 2
 246 481 243 480 233 480 c 0
 211 480 197 497 197 520 c 0
 197 570 245 579 262 583 c 2
 486 638 l 1
 371 100 l 1
 472 100 l 2
 499 100 507 98 515 91 c 0
 524 83 529 72 529 59 c 0
 529 38 513 18 494 7 c 0
 487 3 471 0 451 0 c 2
 149 0 l 2
EndSplineSet
EndChar

StartChar: two
Encoding: 18 50 30
Width: 600
Flags: W
HStem: 0 154<445.277 508> 0 100<228 429> 538 100<323.062 472.836>
VStem: 500 102<410.567 510.763>
LayerCount: 2
Fore
SplineSet
173 460 m 0x70
 173 505 265 638 426 638 c 0
 532 638 602 575 602 485 c 0
 602 360 514 309 228 100 c 1
 429 100 l 1x70
 440 136 460 154 491 154 c 0
 511 154 531 141 531 117 c 0
 531 110 530 102 527 88 c 2
 508 0 l 1xb0
 54 0 l 1
 76 105 l 1
 471 382 500 411 500 464 c 0
 500 507 460 538 402 538 c 0
 299 538 265 451 265 451 c 1
 256 434 235 422 214 422 c 0
 190 422 173 439 173 460 c 0x70
EndSplineSet
EndChar

StartChar: three
Encoding: 19 51 31
Width: 600
Flags: W
HStem: -15 100<172.917 406.844> 538 100<317.334 488.731>
VStem: 470 101<141.428 248.432> 507 102<425.027 518.091>
LayerCount: 2
Fore
SplineSet
294 322 m 0xe0
 294 351 319 383 357 383 c 2
 397 383 l 2
 455 383 507 431 507 477 c 0
 507 515 471 538 409 538 c 0
 294 538 298 477 245 477 c 0
 222 477 206 494 206 516 c 0
 206 582 329 638 437 638 c 0
 574 638 609 552 609 495 c 0xd0
 609 398 525 353 487 333 c 1
 544 302 571 262 571 213 c 0
 571 148 524 74 462 32 c 0
 411 -1 355 -15 268 -15 c 0
 153 -15 80 15 80 60 c 0
 80 86 105 120 142 120 c 0
 181 120 152 85 286 85 c 0
 355 85 394 95 426 119 c 0
 451 138 470 171 470 198 c 0
 470 229 448 258 411 274 c 0
 363 297 294 272 294 322 c 0xe0
EndSplineSet
EndChar

StartChar: four
Encoding: 20 52 32
Width: 600
Flags: W
HStem: 0 100<294.562 368 468 475.344> 138 484<476 497.225 104 579 448 448> 138 100<248 376 498 533.341>
LayerCount: 2
Fore
SplineSet
309 0 m 2xc0
 281 0 253 5 253 40 c 0
 253 61 267 83 287 93 c 0
 297 99 306 100 330 100 c 2
 368 100 l 1
 376 138 l 1
 104 138 l 1
 122 221 l 1
 448 622 l 1
 579 622 l 1xc0
 498 238 l 1xa0
 531 238 549 225 549 201 c 0
 549 180 539 140 476 138 c 1
 468 100 l 1
 502 100 520 86 520 61 c 0
 520 35 502 16 485 7 c 0
 478 3 462 0 441 0 c 2
 309 0 l 2xc0
398 238 m 1xa0
 449 480 l 1
 248 238 l 1
 398 238 l 1xa0
EndSplineSet
EndChar

StartChar: five
Encoding: 21 53 33
Width: 600
Flags: W
HStem: -15 100<191.588 402.356> 324 100<336.6 447.088> 523 100<330 567.611>
VStem: 476 102<186.008 295.929>
LayerCount: 2
Fore
SplineSet
553 623 m 2
 579 623 610 623 610 582 c 0
 610 563 596 540 576 530 c 0
 568 525 553 523 532 523 c 2
 330 523 l 1
 306 407 l 1
 344 418 379 424 408 424 c 0
 512 424 578 355 578 255 c 0
 578 240 577 133 485 53 c 0
 431 5 369 -15 275 -15 c 0
 163 -15 83 23 83 73 c 0
 83 109 117 133 144 133 c 0
 193 133 159 85 295 85 c 0
 454 85 476 181 476 234 c 0
 476 289 442 324 386 324 c 0
 315 324 255 282 229 282 c 0
 205 282 189 299 189 324 c 0
 189 328 190 333 191 338 c 2
 251 623 l 1
 553 623 l 2
EndSplineSet
EndChar

StartChar: six
Encoding: 22 54 34
Width: 600
Flags: W
HStem: -15 100<289.86 423.846> 294 100<344.857 454.233> 535 103<450.484 603.192>
VStem: 155 107<114.986 209> 478 102<141.978 269.604>
LayerCount: 2
Fore
SplineSet
580 235 m 0
 580 134 505 -15 328 -15 c 0
 189 -15 155 75 155 182 c 0
 155 381 268 491 291 514 c 0
 376 596 467 638 559 638 c 0
 623 638 663 616 663 582 c 0
 663 549 628 522 600 522 c 0
 587 522 560 535 543 535 c 0
 437 535 326 447 277 324 c 1
 336 375 378 394 429 394 c 0
 519 394 580 326 580 235 c 0
352 85 m 0
 443 85 478 165 478 214 c 0
 478 260 446 294 400 294 c 0
 357 294 300 258 262 209 c 1
 262 197 l 0
 262 119 290 85 352 85 c 0
EndSplineSet
EndChar

StartChar: seven
Encoding: 23 55 35
Width: 600
Flags: W
HStem: -1 21G<285 310> 469 154<207 270.479> 523 100<286 514>
VStem: 185 455<506 623 506 506>
LayerCount: 2
Fore
SplineSet
225 469 m 0xd0
 205 469 185 482 185 506 c 0
 185 513 186 521 189 535 c 2
 207 623 l 1xd0
 640 623 l 1
 619 524 l 1
 359 48 l 2
 339 12 323 -1 297 -1 c 0
 273 -1 255 16 255 38 c 0
 255 46 256 52 270 81 c 2
 514 523 l 1
 286 523 l 1xb0
 276 487 256 469 225 469 c 0xd0
EndSplineSet
EndChar

StartChar: eight
Encoding: 24 56 36
Width: 600
Flags: W
HStem: -15 100<245.101 401.214> 263 101<308.703 425.422> 538 100<337.575 482.653>
VStem: 114 104<110.545 212.381> 186 100<385.883 491.964> 455 101<133.638 235.578> 506 103<410.77 514.115>
LayerCount: 2
Fore
SplineSet
609 490 m 0xea
 609 387 513 334 488 319 c 1
 533 286 556 246 556 199 c 0
 556 102 464 -15 296 -15 c 0
 184 -15 114 41 114 127 c 0xf4
 114 203 160 271 248 319 c 1
 206 351 186 386 186 425 c 0
 186 527 297 638 436 638 c 0
 538 638 609 574 609 490 c 0xea
377 364 m 0
 444 364 506 407 506 468 c 0
 506 510 470 538 414 538 c 0
 342 538 286 491 286 434 c 0xea
 286 392 321 364 377 364 c 0
318 85 m 0
 390 85 455 129 455 187 c 0
 455 231 415 263 356 263 c 0
 295 263 218 223 218 157 c 0xf4
 218 114 257 85 318 85 c 0
EndSplineSet
EndChar

StartChar: nine
Encoding: 25 57 37
Width: 600
Flags: W
HStem: -15 103<175.682 328.393> 229 100<324.672 433.82> 538 100<356.776 488.525>
VStem: 198 103<351.487 481.756> 516 108<414 507.213>
LayerCount: 2
Fore
SplineSet
198 388 m 0
 198 493 280 638 451 638 c 0
 589 638 624 546 624 441 c 0
 624 242 510 132 487 109 c 0
 403 27 312 -15 220 -15 c 0
 156 -15 116 7 116 40 c 0
 116 69 144 101 178 101 c 0
 191 101 219 88 236 88 c 0
 342 88 452 176 502 299 c 1
 443 248 401 229 351 229 c 0
 260 229 198 297 198 388 c 0
426 538 m 0
 339 538 301 463 301 410 c 0
 301 363 331 329 378 329 c 0
 421 329 479 365 516 414 c 1
 516 426 l 0
 516 504 488 538 426 538 c 0
EndSplineSet
EndChar

StartChar: colon
Encoding: 26 58 38
Width: 600
Flags: W
HStem: -15 132<262.964 288 288 360.359> 304 133<330.898 356 356 426.871>
VStem: 234 154<13.6636 88.1026> 302 154<333.21 408.103>
LayerCount: 2
Fore
SplineSet
388 65 m 0xe0
 388 27 353 -15 306 -15 c 2
 288 -15 l 2
 257 -15 234 8 234 37 c 0
 234 80 276 117 316 117 c 2
 334 117 l 2
 366 117 388 95 388 65 c 0xe0
456 385 m 0xd0
 456 347 421 304 374 304 c 2
 356 304 l 2
 325 304 302 327 302 356 c 0
 302 395 340 437 384 437 c 2
 402 437 l 2
 434 437 456 415 456 385 c 0xd0
EndSplineSet
EndChar

StartChar: semicolon
Encoding: 27 59 39
Width: 600
Flags: W
HStem: 304 133<307.851 402.995>
VStem: 119 313<-135 385 -135 -135> 278 154<332.125 407.601>
LayerCount: 2
Fore
SplineSet
247 134 m 1xc0
 379 134 l 1
 182 -134 l 2
 170 -150 156 -158 144 -158 c 0
 129 -158 119 -148 119 -135 c 0
 119 -130 121 -122 126 -111 c 2
 247 134 l 1xc0
278 355 m 0xa0
 278 390 307 437 369 437 c 0
 409 437 432 417 432 385 c 0xc0
 432 352 405 304 341 304 c 0
 302 304 278 324 278 355 c 0xa0
EndSplineSet
EndChar

StartChar: less
Encoding: 28 60 40
Width: 600
Flags: W
HStem: 54 447<513 608 608 608>
LayerCount: 2
Fore
SplineSet
608 501 m 0
 621 501 641 490 641 460 c 0
 641 431 608 416 600 412 c 2
 310 279 l 1
 542 143 l 2
 559 133 566 124 566 110 c 0
 566 82 537 54 513 54 c 0
 505 54 495 57 485 63 c 2
 102 280 l 1
 577 492 l 2
 590 498 600 501 608 501 c 0
EndSplineSet
EndChar

StartChar: equal
Encoding: 29 61 41
Width: 600
Flags: W
HStem: 138 100<122.578 556.346> 322 100<161.578 595.346>
LayerCount: 2
Fore
SplineSet
582 422 m 2
 604 422 638 423 638 382 c 0
 638 361 623 339 604 329 c 0
 595 324 582 322 560 322 c 2
 176 322 l 2
 161 322 120 321 120 362 c 0
 120 382 134 404 154 415 c 0
 164 421 173 422 198 422 c 2
 582 422 l 2
137 138 m 2
 118 138 81 138 81 178 c 0
 81 199 96 221 115 231 c 0
 125 237 134 238 159 238 c 2
 543 238 l 2
 565 238 599 239 599 198 c 0
 599 177 584 155 565 145 c 0
 556 140 543 138 521 138 c 2
 137 138 l 2
EndSplineSet
EndChar

StartChar: greater
Encoding: 30 62 42
Width: 600
Flags: W
HStem: 53 447<109 204 204 204>
LayerCount: 2
Fore
SplineSet
109 53 m 0
 89 53 76 73 76 92 c 0
 76 112 88 128 118 142 c 2
 407 275 l 1
 176 412 l 2
 159 421 151 431 151 444 c 0
 151 467 178 500 204 500 c 0
 212 500 223 497 232 491 c 2
 616 274 l 1
 141 62 l 2
 128 56 116 53 109 53 c 0
EndSplineSet
EndChar

StartChar: question
Encoding: 31 63 43
Width: 600
Flags: W
HStem: -15 132<265.246 291 291 362.359> 498 100<343.1 486.579>
VStem: 198 411<407 438 431 452 431 431> 236 154<13.6636 88.1026> 507 102<378.681 476.204>
LayerCount: 2
Fore
SplineSet
238 394 m 0xc8
 219 394 198 407 198 431 c 0
 198 438 199 447 202 460 c 2
 219 539 l 1
 324 585 371 598 435 598 c 0
 543 598 609 540 609 452 c 0xe0
 609 317 496 266 401 228 c 1
 390 192 369 174 340 174 c 0
 318 174 300 189 300 211 c 0
 300 218 301 227 304 240 c 2
 316 296 l 1
 463 348 507 376 507 431 c 0
 507 472 471 498 415 498 c 0
 377 498 341 490 305 474 c 1
 302 460 l 2
 296 434 292 424 283 415 c 0
 270 402 253 394 238 394 c 0xc8
390 65 m 0xd0
 390 27 355 -15 308 -15 c 2
 291 -15 l 2
 259 -15 236 8 236 37 c 0
 236 83 281 117 319 117 c 2
 336 117 l 2
 368 117 390 95 390 65 c 0xd0
EndSplineSet
EndChar

StartChar: at
Encoding: 32 64 44
Width: 600
Flags: W
HStem: -152 78<222.021 382.091> 72 81<358.226 424.419 422 426.839 426.839 440> 316 81<386.487 468.063> 541 79<348.608 477.173>
VStem: 98 484<56 476 56 117.315> 98 81<7.87793 115.842> 263 80<169.103 265.223> 501 81<432.608 517.291>
LayerCount: 2
Fore
SplineSet
534 123 m 0xf8
 534 103 523 72 469 72 c 2
 422 72 l 1
 423 75 l 1
 408 73 398 72 389 72 c 0
 315 72 263 126 263 195 c 0
 263 291 356 387 491 397 c 1
 498 429 l 2
 500 439 501 449 501 458 c 0
 501 508 469 541 417 541 c 0
 333 541 250 445 222 317 c 2
 189 161 l 2
 183 131 179 102 179 77 c 0xf7
 179 38 187 4 201 -24 c 0
 217 -59 245 -74 289 -74 c 0
 393 -74 400 -25 434 -25 c 0
 453 -25 466 -38 466 -57 c 0
 466 -114 357 -152 270 -152 c 0
 133 -152 98 -46 98 56 c 0
 98 88 102 121 109 154 c 2
 145 323 l 2
 181 495 303 620 433 620 c 0
 525 620 582 562 582 476 c 0
 582 461 581 445 577 429 c 2
 517 148 l 1
 529 143 534 135 534 123 c 0xf8
474 316 m 1
 397 309 343 262 343 211 c 0
 343 177 372 153 414 153 c 0
 421 153 426 153 440 155 c 1
 474 316 l 1
EndSplineSet
EndChar

StartChar: A
Encoding: 33 65 45
Width: 600
Flags: W
HStem: 0 100<30.5781 67 176 212.368 401.281 460 574 589.368> 158 100<273 430> 483 100<224.875 304>
LayerCount: 2
Fore
SplineSet
241 483 m 2
 219 483 183 483 183 524 c 0
 183 543 197 564 217 576 c 0
 228 582 235 583 262 583 c 2
 478 583 l 1
 574 100 l 1
 602 100 611 98 619 90 c 0
 628 83 633 72 633 59 c 0
 633 40 618 17 598 7 c 0
 589 2 576 0 555 0 c 2
 416 0 l 2
 399 0 360 0 360 39 c 0
 360 50 365 77 394 93 c 0
 404 99 411 100 437 100 c 2
 460 100 l 1
 450 158 l 1
 212 158 l 1
 176 100 l 1
 199 100 l 2
 226 100 234 98 242 91 c 0
 251 83 256 72 256 59 c 0
 256 40 241 17 221 7 c 0
 212 2 199 0 178 0 c 2
 45 0 l 2
 7 0 -11 13 -11 37 c 0
 -11 48 -7 77 23 93 c 0
 33 99 42 100 67 100 c 1
 304 483 l 1
 241 483 l 2
430 258 m 1
 393 450 l 1
 273 258 l 1
 430 258 l 1
EndSplineSet
EndChar

StartChar: B
Encoding: 34 66 46
Width: 600
Flags: W
HStem: 0 100<64.5625 115 215 481.449> 242 100<267 471.541> 483 100<167.141 197 297 504.23>
VStem: 505 103<122.796 212.421> 518 102<383.1 468.188>
LayerCount: 2
Fore
SplineSet
79 0 m 2xf0
 54 0 23 3 23 40 c 0
 23 61 37 83 57 93 c 0
 67 99 76 100 100 100 c 2
 115 100 l 1
 197 483 l 1
 182 483 l 2
 157 483 146 485 139 492 c 0
 130 500 125 512 125 524 c 0
 125 545 142 566 159 576 c 0
 170 582 179 583 203 583 c 2
 456 583 l 2
 556 583 620 528 620 450 c 0xe8
 620 363 551 319 530 305 c 1
 583 275 608 239 608 191 c 0
 608 93 517 0 374 0 c 2
 79 0 l 2xf0
380 342 m 2
 460 342 518 381 518 431 c 0
 518 464 486 483 430 483 c 2
 297 483 l 1
 267 342 l 1
 380 342 l 2
505 165 m 0xf0
 505 196 483 242 380 242 c 2
 245 242 l 1
 215 100 l 1
 390 100 l 2
 489 100 505 139 505 165 c 0xf0
EndSplineSet
EndChar

StartChar: C
Encoding: 35 67 47
Width: 600
Flags: W
HStem: -14 100<246.131 455.078> 497 100<325.511 477.221>
VStem: 80 102<144.216 241.748>
LayerCount: 2
Fore
SplineSet
432 597 m 0
 486 597 520 588 576 559 c 1
 593 577 606 583 623 583 c 0
 654 583 663 558 663 547 c 0
 663 540 662 532 659 517 c 2
 641 433 l 2
 640 429 632 367 577 367 c 0
 561 367 539 373 539 407 c 2
 539 420 l 2
 539 444 532 457 507 473 c 0
 483 488 449 497 415 497 c 0
 313 497 222 420 200 315 c 2
 186 251 l 2
 183 238 182 226 182 214 c 0
 182 135 243 86 348 86 c 0
 499 86 492 159 548 159 c 0
 571 159 588 142 588 119 c 0
 588 66 478 -14 324 -14 c 0
 175 -14 80 71 80 194 c 0
 80 212 82 230 86 249 c 2
 100 315 l 2
 134 475 278 597 432 597 c 0
EndSplineSet
EndChar

StartChar: D
Encoding: 36 68 48
Width: 600
Flags: W
HStem: 0 100<56.7292 95 195 406.578> 483 100<166.875 177 277 466.021>
VStem: 515 100<290.9 305 307 321.438 321.438 346.496 333.967 430.659>
LayerCount: 2
Fore
SplineSet
23 40 m 0
 23 63 40 100 95 100 c 1
 177 483 l 1
 143 483 125 496 125 521 c 0
 125 547 144 568 159 576 c 0
 170 582 177 583 204 583 c 2
 416 583 l 2
 541 583 622 494 622 370 c 0
 622 349 620 328 615 305 c 2
 605 258 l 2
 589 185 552 123 496 75 c 0
 436 23 371 0 284 0 c 2
 80 0 l 2
 60 0 23 1 23 40 c 0
520 350 m 0
 520 408 493 483 387 483 c 2
 277 483 l 1
 195 100 l 1
 306 100 l 2
 366 100 402 112 440 144 c 0
 474 175 495 210 505 261 c 2
 515 307 l 2
 518 322 520 336 520 350 c 0
EndSplineSet
EndChar

StartChar: E
Encoding: 37 69 49
Width: 600
Flags: W
HStem: 0 100<64.5625 115 215 471> 243 99<267 331> 483 100<166.859 197 297 531>
VStem: 352 104<351.738 395.736>
LayerCount: 2
Fore
SplineSet
325 207 m 0
 325 221 330 238 331 243 c 1
 246 243 l 1
 215 100 l 1
 471 100 l 1
 482 152 l 2
 482 153 489 219 547 219 c 0
 568 219 587 203 587 181 c 0
 587 175 585 166 582 152 c 2
 550 0 l 1
 79 0 l 2
 60 0 23 1 23 39 c 0
 23 50 28 76 57 93 c 0
 67 99 76 100 100 100 c 2
 115 100 l 1
 197 483 l 1
 182 483 l 2
 157 483 146 485 139 492 c 0
 130 500 125 511 125 524 c 0
 125 545 142 566 159 576 c 0
 170 582 177 583 203 583 c 2
 652 583 l 1
 620 433 l 2
 614 405 610 397 601 387 c 0
 588 374 572 366 556 366 c 0
 537 366 516 379 516 403 c 0
 516 410 517 419 520 433 c 2
 531 483 l 1
 297 483 l 1
 267 342 l 1
 352 342 l 1
 362 411 403 416 416 416 c 0
 441 416 456 400 456 375 c 0
 456 366 454 359 452 349 c 2
 428 236 l 2
 423 210 419 200 410 191 c 0
 397 178 380 170 365 170 c 0
 345 170 325 183 325 207 c 0
EndSplineSet
EndChar

StartChar: F
Encoding: 38 70 50
Width: 600
Flags: W
HStem: 0 100<64.5625 115 215 356.568> 243 99<267 331> 483 100<166.859 197 297 553>
LayerCount: 2
Fore
SplineSet
372 59 m 0
 372 47 366 0 294 0 c 2
 79 0 l 2
 54 0 23 3 23 40 c 0
 23 61 37 83 57 93 c 0
 67 99 76 100 100 100 c 2
 115 100 l 1
 197 483 l 1
 182 483 l 2
 157 483 146 485 139 492 c 0
 130 500 125 511 125 524 c 0
 125 545 142 566 159 576 c 0
 170 582 177 583 203 583 c 2
 674 583 l 1
 642 432 l 2
 636 405 632 397 623 387 c 0
 610 374 594 366 578 366 c 0
 559 366 538 378 538 403 c 0
 538 410 539 419 542 432 c 2
 553 483 l 1
 297 483 l 1
 267 342 l 1
 352 342 l 1
 357 374 365 387 372 394 c 0
 385 407 401 415 417 415 c 0
 441 415 456 396 456 379 c 0
 456 372 455 364 452 349 c 2
 428 236 l 2
 422 209 419 200 409 190 c 0
 397 177 380 169 365 169 c 0
 353 169 325 177 325 207 c 0
 325 221 330 239 331 243 c 1
 246 243 l 1
 215 100 l 1
 315 100 l 2
 339 100 372 100 372 59 c 0
EndSplineSet
EndChar

StartChar: G
Encoding: 39 71 51
Width: 600
Flags: W
HStem: -14 100<237.201 429.062> 180 100<373.578 488> 497 100<322.832 521.512>
VStem: 78 102<135.021 211.629 205.777 217.481 217.481 246 253 262.567>
LayerCount: 2
Fore
SplineSet
585 280 m 2
 608 280 642 280 642 240 c 0
 642 216 627 190 588 180 c 1
 560 48 l 1
 461 1 406 -14 328 -14 c 0
 230 -14 151 15 113 65 c 0
 91 95 78 138 78 185 c 0
 78 205 81 225 85 246 c 2
 100 317 l 2
 125 429 238 597 444 597 c 0
 498 597 545 586 582 565 c 1
 599 589 611 597 630 597 c 0
 655 597 667 579 667 560 c 0
 667 554 666 545 663 531 c 2
 646 453 l 2
 640 425 638 418 628 408 c 0
 615 395 598 387 582 387 c 0
 569 387 557 393 550 402 c 1
 546 409 546 409 545 440 c 0
 542 475 497 497 424 497 c 0
 276 497 214 382 200 317 c 2
 187 253 l 2
 183 233 180 216 180 200 c 0
 180 109 267 86 343 86 c 0
 391 86 432 94 474 111 c 1
 488 180 l 1
 388 180 l 2
 363 180 353 182 345 190 c 0
 337 197 332 207 332 219 c 0
 332 239 346 262 366 273 c 0
 376 279 385 280 410 280 c 2
 585 280 l 2
EndSplineSet
EndChar

StartChar: H
Encoding: 40 72 52
Width: 600
Flags: W
HStem: 0 100<74.4219 116 216 244.368 379.562 430 530 549.368> 241 100<267 460> 483 100<298 347.444 482 512 612 659.443>
LayerCount: 2
Fore
SplineSet
394 0 m 2
 371 0 338 2 338 40 c 0
 338 61 352 83 372 93 c 0
 382 99 391 100 415 100 c 2
 430 100 l 1
 460 241 l 1
 246 241 l 1
 216 100 l 1
 231 100 l 2
 257 100 267 98 274 91 c 0
 283 83 288 72 288 59 c 0
 288 40 273 17 253 7 c 0
 244 2 231 0 210 0 c 2
 89 0 l 2
 63 0 33 2 33 39 c 0
 33 61 47 83 67 93 c 0
 77 99 85 100 110 100 c 2
 116 100 l 1
 198 483 l 1
 170 486 155 499 155 521 c 0
 155 547 174 568 189 576 c 0
 200 582 208 583 233 583 c 2
 334 583 l 2
 361 583 369 581 377 574 c 0
 385 566 390 556 390 544 c 0
 390 533 385 506 356 490 c 0
 346 485 337 483 313 483 c 2
 298 483 l 1
 267 341 l 1
 481 341 l 1
 512 483 l 1
 497 483 l 2
 471 483 462 485 454 492 c 0
 445 500 440 511 440 524 c 0
 440 545 457 566 474 576 c 0
 485 582 493 583 518 583 c 2
 619 583 l 2
 642 583 675 583 675 544 c 0
 675 530 667 488 612 483 c 1
 530 100 l 1
 536 100 l 2
 563 100 572 98 579 91 c 0
 588 83 593 72 593 59 c 0
 593 40 578 17 558 7 c 0
 549 2 536 0 515 0 c 2
 394 0 l 2
EndSplineSet
EndChar

StartChar: I
Encoding: 41 73 53
Width: 600
Flags: W
HStem: 0 100<134.281 271 371 513.25> 483 100<236.859 353 453 588.709>
LayerCount: 2
Fore
SplineSet
575 583 m 2
 594 583 632 584 632 545 c 0
 632 534 627 506 597 490 c 0
 588 485 577 483 554 483 c 2
 453 483 l 1
 371 100 l 1
 472 100 l 2
 499 100 507 98 515 91 c 0
 524 83 529 72 529 60 c 0
 529 36 513 0 451 0 c 2
 149 0 l 2
 124 0 93 3 93 40 c 0
 93 61 107 83 127 93 c 0
 137 99 144 100 170 100 c 2
 271 100 l 1
 353 483 l 1
 252 483 l 2
 227 483 216 485 209 492 c 0
 200 500 195 511 195 524 c 0
 195 545 212 566 229 576 c 0
 240 582 247 583 273 583 c 2
 575 583 l 2
EndSplineSet
EndChar

StartChar: J
Encoding: 42 74 54
Width: 600
Flags: W
HStem: -14 100<226.394 370.264> 483 100<358.859 493 593 684.709>
LayerCount: 2
Fore
SplineSet
164 280 m 0
 192 280 204 258 204 243 c 0
 204 236 202 227 199 213 c 2
 179 117 l 1
 223 95 255 86 289 86 c 0
 325 86 364 100 392 122 c 0
 417 143 422 152 432 198 c 2
 493 483 l 1
 374 483 l 2
 349 483 338 485 331 492 c 0
 322 500 317 511 317 524 c 0
 317 545 334 566 351 576 c 0
 362 582 369 583 395 583 c 2
 671 583 l 2
 698 583 706 581 714 574 c 0
 722 566 727 556 727 544 c 0
 727 533 722 506 693 490 c 0
 684 485 673 483 650 483 c 2
 593 483 l 1
 530 187 l 2
 516 121 491 83 435 42 c 0
 385 6 325 -14 266 -14 c 0
 209 -14 146 6 65 51 c 1
 99 213 l 2
 105 239 109 250 118 259 c 0
 131 272 148 280 164 280 c 0
EndSplineSet
EndChar

StartChar: K
Encoding: 43 75 55
Width: 600
Flags: W
HStem: 0 100<64.5625 115 215 262.379 525 569.379> 483 100<166.859 197 297 366.709 614 654.18>
VStem: 426 188<15.9547 90.6228>
LayerCount: 2
Fore
SplineSet
452 519 m 0
 452 541 464 583 531 583 c 2
 631 583 l 2
 654 583 687 583 687 544 c 0
 687 531 681 483 614 483 c 1
 405 330 l 1
 459 298 504 215 525 100 c 1
 557 100 l 2
 584 100 592 98 600 91 c 0
 609 83 614 72 614 59 c 0
 614 40 599 17 579 7 c 0
 572 3 556 0 536 0 c 2
 426 0 l 1
 409 143 366 240 309 259 c 1
 238 208 l 1
 215 100 l 1
 250 100 l 2
 277 100 285 98 293 91 c 0
 302 83 307 72 307 59 c 0
 307 40 292 17 272 7 c 0
 265 3 249 0 229 0 c 2
 79 0 l 2
 54 0 23 3 23 40 c 0
 23 61 37 83 57 93 c 0
 67 99 76 100 100 100 c 2
 115 100 l 1
 197 483 l 1
 182 483 l 2
 157 483 146 485 139 492 c 0
 130 500 125 511 125 524 c 0
 125 545 142 566 159 576 c 0
 170 582 177 583 203 583 c 2
 353 583 l 2
 380 583 388 581 396 574 c 0
 404 566 409 556 409 544 c 0
 409 533 404 506 375 490 c 0
 366 485 355 483 332 483 c 2
 297 483 l 1
 265 334 l 1
 476 487 l 1
 460 493 452 503 452 519 c 0
EndSplineSet
EndChar

StartChar: L
Encoding: 44 76 56
Width: 600
Flags: W
HStem: 0 100<84.2812 177 277 492> 483 100<186.859 259 359 450.709>
LayerCount: 2
Fore
SplineSet
99 0 m 2
 80 0 43 1 43 39 c 0
 43 50 48 77 77 93 c 0
 87 99 94 100 120 100 c 2
 177 100 l 1
 259 483 l 1
 202 483 l 2
 177 483 166 485 159 492 c 0
 150 500 145 511 145 524 c 0
 145 545 162 566 179 576 c 0
 190 582 197 583 223 583 c 2
 437 583 l 2
 464 583 471 581 480 574 c 0
 488 566 493 556 493 544 c 0
 493 533 488 506 459 490 c 0
 450 485 439 483 416 483 c 2
 359 483 l 1
 277 100 l 1
 492 100 l 1
 512 192 l 2
 512.416 193.956 519 259 576 259 c 0
 604 259 616 236 616 223 c 0
 616 216 615 207 612 192 c 2
 571 0 l 1
 99 0 l 2
EndSplineSet
EndChar

StartChar: M
Encoding: 45 77 57
Width: 600
Flags: W
HStem: 0 100<6.07193 63 163 210.379 412.281 483 583 619.803> 483 101<118.982 145 665 712.443>
LayerCount: 2
Fore
SplineSet
427 0 m 2
 399 0 371 5 371 40 c 0
 371 61 385 83 405 93 c 0
 415 99 422 100 448 100 c 2
 483 100 l 1
 545 389 l 1
 380 138 l 1
 289 138 l 1
 225 389 l 1
 163 100 l 1
 198 100 l 2
 221 100 255 100 255 60 c 0
 255 40 241 19 220 7 c 0
 213 3 197 0 177 0 c 2
 48 0 l 2
 20 0 -9 5 -9 39 c 0
 -9 59 4 100 63 100 c 1
 145 483 l 1
 117 486 102 499 102 520 c 0
 102 539 114 584 176 584 c 0
 211 584 252 583 289 583 c 1
 364 286 l 1
 562 583 l 1
 672 583 l 2
 695 583 728 583 728 544 c 0
 728 530 720 488 665 483 c 1
 583 100 l 1
 617 100 635 86 635 61 c 0
 635 47 629 0 557 0 c 2
 427 0 l 2
EndSplineSet
EndChar

StartChar: N
Encoding: 46 78 58
Width: 600
Flags: W
HStem: 0 100<37.0719 94 194 241.379> 483 100<145.859 176 483.859 534 634 690.442>
LayerCount: 2
Fore
SplineSet
706 544 m 0
 706 525 694 483 634 483 c 1
 531 0 l 1
 432 0 l 1
 257 394 l 1
 194 100 l 1
 229 100 l 2
 253 100 286 100 286 60 c 0
 286 40 272 19 251 7 c 0
 244 3 228 0 208 0 c 2
 79 0 l 2
 51 0 22 5 22 39 c 0
 22 59 35 100 94 100 c 1
 176 483 l 1
 161 483 l 2
 136 483 125 485 118 492 c 0
 109 500 104 511 104 524 c 0
 104 545 121 566 138 576 c 0
 149 582 156 583 182 583 c 2
 297 583 l 1
 472 191 l 1
 534 483 l 1
 499 483 l 2
 474 483 463 485 456 492 c 0
 447 500 442 511 442 524 c 0
 442 545 459 566 476 576 c 0
 487 582 494 583 520 583 c 2
 650 583 l 2
 677 583 684 581 693 574 c 0
 701 566 706 556 706 544 c 0
EndSplineSet
EndChar

StartChar: O
Encoding: 47 79 59
Width: 600
Flags: W
HStem: -14 100<244.642 400.049> 497 100<326.193 481.42>
VStem: 75 103<156.686 338.017> 546 103<244.12 427.311>
LayerCount: 2
Fore
SplineSet
75 222 m 0
 75 415 249 597 427 597 c 0
 546 597 649 508 649 366 c 0
 649 157 466 -14 297 -14 c 0
 165 -14 75 87 75 222 c 0
318 86 m 0
 428 86 546 206 546 340 c 0
 546 430 490 497 406 497 c 0
 296 497 178 376 178 244 c 0
 178 154 234 86 318 86 c 0
EndSplineSet
EndChar

StartChar: P
Encoding: 48 80 60
Width: 600
Flags: W
HStem: 0 100<64.5625 115 215 326.379> 200 100<258 458.559> 483 100<166.859 197 297 484.918>
VStem: 508 109<348.641 461.726>
LayerCount: 2
Fore
SplineSet
79 0 m 2
 54 0 23 3 23 40 c 0
 23 61 37 83 57 93 c 0
 67 99 76 100 100 100 c 2
 115 100 l 1
 197 483 l 1
 182 483 l 2
 157 483 146 485 139 492 c 0
 130 500 125 512 125 524 c 0
 125 545 142 567 159 576 c 0
 170 582 177 583 203 583 c 2
 436 583 l 2
 547 583 617 523 617 433 c 0
 617 366 578 304 536 266 c 0
 481 217 428 200 335 200 c 2
 237 200 l 1
 215 100 l 1
 314 100 l 2
 341 100 349 98 357 91 c 0
 366 83 371 72 371 59 c 0
 371 40 356 17 336 7 c 0
 329 3 313 0 293 0 c 2
 79 0 l 2
376 300 m 2
 475 300 508 367 508 412 c 0
 508 457 475 483 415 483 c 2
 297 483 l 1
 258 300 l 1
 376 300 l 2
EndSplineSet
EndChar

StartChar: Q
Encoding: 49 81 61
Width: 600
Flags: W
HStem: -145 100<335.383 468.45> -117 92<266.891 371.782> -7 92<267.331 399.633> 497 100<323.637 480.656>
VStem: 75 103<157.549 338.942> 546 103<246.793 426.951>
LayerCount: 2
Fore
SplineSet
75 220 m 0x7c
 75 419 252 597 427 597 c 0
 558 597 649 496 649 362 c 0
 649 234 569 99 435 27 c 0
 392 4 344 -7 288 -7 c 0
 286 -7 278 -7 270 -6 c 1
 261 -30 l 1
 285 -26 298 -25 313 -25 c 0x7c
 370 -25 402 -45 433 -45 c 0
 471 -45 494 -13 523 -13 c 0
 548 -13 565 -30 565 -52 c 0
 565 -89 528 -107 515 -114 c 0
 474 -136 444 -145 413 -145 c 0xbc
 357 -145 350 -117 294 -117 c 0
 248 -117 147 -143 135 -143 c 0
 113 -143 97 -125 97 -102 c 0
 97 -73 118 -60 126 -53 c 2
 200 7 l 1
 147 42 75 86 75 220 c 0x7c
318 85 m 0
 422 85 546 197 546 340 c 0
 546 430 490 497 406 497 c 0
 288 497 178 367 178 243 c 0
 178 153 234 85 318 85 c 0
EndSplineSet
EndChar

StartChar: R
Encoding: 50 82 62
Width: 600
Flags: W
HStem: 0 100<64.5625 115 215 291.568 561 615.803> 222 100<262 337> 483 100<166.859 197 297 481.26>
VStem: 504 108<371.75 461.261>
LayerCount: 2
Fore
SplineSet
307 59 m 0
 307 47 301 0 229 0 c 2
 79 0 l 2
 54 0 23 3 23 40 c 0
 23 61 37 83 57 93 c 0
 67 99 76 100 100 100 c 2
 115 100 l 1
 197 483 l 1
 182 483 l 2
 157 483 146 485 139 492 c 0
 130 500 125 511 125 524 c 0
 125 545 142 566 159 576 c 0
 170 582 177 583 203 583 c 2
 426 583 l 2
 541 583 612 526 612 441 c 0
 612 329 510 275 468 254 c 1
 506 213 533 167 561 100 c 1
 574 100 l 2
 599 100 631 100 631 59 c 0
 631 47 625 0 553 0 c 2
 474 0 l 1
 445 97 376 207 337 222 c 1
 241 222 l 1
 215 100 l 1
 250 100 l 2
 274 100 307 100 307 59 c 0
338 322 m 2
 426 322 504 363 504 420 c 0
 504 457 467 483 409 483 c 2
 297 483 l 1
 262 322 l 1
 338 322 l 2
EndSplineSet
EndChar

StartChar: S
Encoding: 51 83 63
Width: 600
Flags: W
HStem: -14 100<228.79 416.566> 497 100<321.101 484.338>
VStem: 168 106<371.252 454.237> 469 107<129.607 212.07>
LayerCount: 2
Fore
SplineSet
595 597 m 0
 615 597 634 584 634 562 c 0
 634 555 633 546 630 531 c 2
 611 443 l 2
 605 415 602 407 592 397 c 0
 580 384 563 376 548 376 c 0
 506 376 510 407 509 430 c 0
 509 470 467 497 405 497 c 0
 326 497 274 449 274 412 c 0
 274 321 460 362 540 285 c 0
 564 261 576 233 576 198 c 0
 576 71 454 -14 306 -14 c 0
 252 -14 202 -1 158 25 c 1
 137 5 129 1 113 1 c 0
 86 1 73 14 73 41 c 0
 73 48 74 57 76 67 c 2
 90 133 l 2
 92 140 100 199 154 199 c 0
 199 199 194 159 195 151 c 0
 197 115 254 86 320 86 c 0
 393 86 469 121 469 173 c 0
 469 253 314 223 224 281 c 0
 188 304 168 344 168 388 c 0
 168 499 286 597 426 597 c 0
 477 597 519 586 549 564 c 1
 564 589 575 597 595 597 c 0
EndSplineSet
EndChar

StartChar: T
Encoding: 52 84 64
Width: 600
Flags: W
HStem: 0 100<169.281 270 370 448.379> 483 100<245 352 452 561>
LayerCount: 2
Fore
SplineSet
577 324 m 0
 558 324 537 337 537 361 c 0
 537 368 538 377 541 390 c 2
 561 483 l 1
 452 483 l 1
 370 100 l 1
 436 100 l 2
 463 100 471 98 479 91 c 0
 488 83 493 72 493 59 c 0
 493 40 478 17 458 7 c 0
 451 3 435 0 415 0 c 2
 184 0 l 2
 157 0 128 5 128 40 c 0
 128 61 142 83 162 93 c 0
 172 99 179 100 205 100 c 2
 270 100 l 1
 352 483 l 1
 245 483 l 1
 225 390 l 2
 224 387 216 324 161 324 c 0
 139 324 121 339 121 361 c 0
 121 368 122 377 125 390 c 2
 166 583 l 1
 682 583 l 1
 641 390 l 2
 635 362 632 355 622 345 c 0
 610 332 593 324 577 324 c 0
EndSplineSet
EndChar

StartChar: U
Encoding: 53 85 65
Width: 600
Flags: W
HStem: -14 100<246.839 400.077> 483 100<164 174 274 343.709 481.859 532 632 670.969>
VStem: 109 102<120.319 187.932 185.977 189.887 189.887 212.467>
LayerCount: 2
Fore
SplineSet
705 545 m 0
 705 525 692 483 632 483 c 1
 573 205 l 2
 557 134 519 78 452 35 c 0
 402 2 352 -14 297 -14 c 0
 185 -14 109 61 109 155 c 0
 109 171 111 188 115 205 c 2
 174 483 l 1
 140 484 122 497 122 520 c 0
 122 547 141 568 156 576 c 0
 167 582 175 583 200 583 c 2
 330 583 l 2
 358 583 365 582 374 574 c 0
 382 566 386 556 386 544 c 0
 386 533 382 506 352 490 c 0
 343 485 332 483 309 483 c 2
 274 483 l 1
 213 196 l 2
 212 189 211 182 211 176 c 0
 211 125 255 86 318 86 c 0
 389 86 458 135 471 196 c 2
 532 483 l 1
 497 483 l 2
 471 483 461 485 454 492 c 0
 445 500 440 511 440 524 c 0
 440 545 457 566 474 576 c 0
 485 582 492 583 518 583 c 2
 648 583 l 2
 670 583 705 583 705 545 c 0
EndSplineSet
EndChar

StartChar: V
Encoding: 54 86 66
Width: 600
Flags: W
HStem: 0 21G<244.901 360.754> 483 100<132.859 150 262 315.444 510.859 550 656 692.156>
LayerCount: 2
Fore
SplineSet
302 583 m 2
 325 583 358 583 358 544 c 0
 358 533 354 506 324 490 c 0
 314 485 305 483 281 483 c 2
 262 483 l 1
 334 144 l 1
 550 483 l 1
 526 483 l 2
 503 483 469 483 469 524 c 0
 469 545 486 566 503 576 c 0
 514 582 521 583 547 583 c 2
 679 583 l 2
 705 583 714 581 722 574 c 0
 730 566 735 556 735 544 c 0
 735 520 716 494 694 487 c 0
 684 484 677 483 656 483 c 1
 348 0 l 1
 249 0 l 1
 150 483 l 1
 129 483 91 482 91 524 c 0
 91 545 108 566 125 576 c 0
 136 582 143 583 169 583 c 2
 302 583 l 2
EndSplineSet
EndChar

StartChar: W
Encoding: 55 87 67
Width: 600
Flags: W
HStem: 0 21G<98 219.83 390.545 509.749> 417 20G<333.027 450.478> 483 100<242 325.251 500.859 569>
LayerCount: 2
Fore
SplineSet
668 583 m 2
 691 583 724 583 724 544 c 0
 724 534 719 492 666 483 c 1
 503 0 l 1
 393 0 l 1
 359 277 l 1
 209 0 l 1
 98 0 l 1
 139 483 l 1
 115 486 102 498 102 518 c 0
 102 541 116 564 136 576 c 0
 147 582 154 583 180 583 c 2
 311 583 l 2
 339 583 346 581 355 574 c 0
 363 566 368 556 368 544 c 0
 368 533 363 506 334 490 c 0
 324 485 314 483 290 483 c 2
 242 483 l 1
 220 211 l 1
 344 437 l 1
 448 437 l 1
 476 211 l 1
 569 483 l 1
 516 483 l 2
 491 483 480 485 473 492 c 0
 464 500 459 511 459 524 c 0
 459 545 476 566 493 576 c 0
 504 582 511 583 537 583 c 2
 668 583 l 2
EndSplineSet
EndChar

StartChar: X
Encoding: 56 88 68
Width: 600
Flags: W
HStem: 0 100<36.0516 90 372.899 423 552 558.368> 563 20G<179.5 314 510 645.5>
LayerCount: 2
Fore
SplineSet
131 522 m 0
 131 546 150 583 209 583 c 2
 300 583 l 2
 328 583 335 581 344 574 c 0
 352 566 357 556 357 544 c 0
 357 506 325 491 308 484 c 1
 380 375 l 1
 496 484 l 1
 475 496 467 506 467 522 c 0
 467 536 474 583 546 583 c 2
 636 583 l 2
 655 583 692 584 692 545 c 0
 692 525 680 485 624 483 c 1
 427 297 l 1
 552 100 l 1
 585 99 602 85 602 62 c 0
 602 35 583 15 567 7 c 0
 558 2 545 0 524 0 c 2
 413 0 l 2
 375 0 357 13 357 37 c 0
 357 55 367 97 423 100 c 1
 348 220 l 1
 220 100 l 1
 249 98 265 85 265 62 c 0
 265 35 246 15 230 7 c 0
 221 2 208 0 187 0 c 2
 76 0 l 2
 51 0 20 3 20 39 c 0
 20 58 34 100 90 100 c 1
 298 298 l 1
 180 483 l 1
 148 485 131 499 131 522 c 0
EndSplineSet
EndChar

StartChar: Y
Encoding: 57 89 69
Width: 600
Flags: W
HStem: 0 100<169.297 271 371 449.344> 483 100<148.875 188 617 676.95>
LayerCount: 2
Fore
SplineSet
627 483 m 2
 617 483 l 1
 402 245 l 1
 371 100 l 1
 436 100 l 2
 464 100 472 98 480 91 c 0
 489 83 494 72 494 59 c 0
 494 40 479 17 459 7 c 0
 452 3 436 0 415 0 c 2
 185 0 l 2
 157 0 128 5 128 39 c 0
 128 50 133 77 162 93 c 0
 172 99 179 100 206 100 c 2
 271 100 l 1
 302 245 l 1
 188 483 l 1
 152 483 133 497 133 521 c 0
 133 546 149 583 212 583 c 2
 301 583 l 2
 324 583 357 583 357 544 c 0
 357 523 345 499 308 484 c 1
 374 348 l 1
 497 484 l 1
 476 492 466 505 466 522 c 0
 466 548 486 568 500 576 c 0
 511 582 520 583 545 583 c 2
 637 583 l 2
 664 583 672 581 680 574 c 0
 689 566 694 556 694 545 c 0
 694 516 668 483 627 483 c 2
EndSplineSet
EndChar

StartChar: Z
Encoding: 58 90 70
Width: 600
Flags: W
HStem: 0 100<222 448> 483 100<299 478>
LayerCount: 2
Fore
SplineSet
220 347 m 0
 201 347 180 360 180 385 c 0
 180 391 181 400 184 413 c 2
 220 583 l 1
 628 583 l 1
 607 486 l 1
 222 100 l 1
 448 100 l 1
 464 172 l 2
 469 197 473 208 482 218 c 0
 495 230 512 238 528 238 c 0
 560 238 568 211 568 201 c 0
 568 195 567 186 564 172 c 2
 527 0 l 1
 73 0 l 1
 94 100 l 1
 478 483 l 1
 299 483 l 1
 284 413 l 2
 278 386 274 377 265 368 c 0
 252 355 236 347 220 347 c 0
EndSplineSet
EndChar

StartChar: bracketleft
Encoding: 59 91 71
Width: 600
Flags: W
HStem: -148 100<340 412.539> 527 100<462 554.91>
VStem: 219 379<-148 587 -148 -148>
LayerCount: 2
Fore
SplineSet
541 627 m 2
 564 627 598 627 598 587 c 0
 598 561 578 542 564 534 c 0
 554 529 542 527 520 527 c 2
 462 527 l 1
 340 -48 l 1
 399 -48 l 2
 426 -48 433 -50 442 -57 c 0
 450 -65 455 -75 455 -87 c 0
 455 -98 450 -124 421 -141 c 0
 412 -146 400 -148 378 -148 c 2
 219 -148 l 1
 383 627 l 1
 541 627 l 2
EndSplineSet
EndChar

StartChar: backslash
Encoding: 60 92 72
Width: 600
Flags: W
VStem: 219 285
LayerCount: 2
Fore
SplineSet
219 636 m 0
 219 662 247 695 281 695 c 0
 304 695 315 685 322 651 c 2
 499 -27 l 2
 502 -39 504 -48 504 -55 c 0
 504 -89 469 -113 443 -113 c 0
 419 -113 409 -103 400 -69 c 2
 225 610 l 2
 221 623 219 630 219 636 c 0
EndSplineSet
EndChar

StartChar: bracketright
Encoding: 61 93 73
Width: 600
Flags: W
HStem: -148 100<146.654 240> 527 100<289.461 362>
VStem: 104 379<-108 627 -108 -108>
LayerCount: 2
Fore
SplineSet
161 -148 m 2
 135 -148 104 -148 104 -108 c 0
 104 -87 119 -65 138 -55 c 0
 147 -50 160 -48 182 -48 c 2
 240 -48 l 1
 362 527 l 1
 303 527 l 2
 276 527 268 529 260 536 c 0
 252 544 247 554 247 566 c 0
 247 577 252 603 281 620 c 0
 290 625 302 627 324 627 c 2
 483 627 l 1
 319 -148 l 1
 161 -148 l 2
EndSplineSet
EndChar

StartChar: asciicircum
Encoding: 62 94 74
Width: 600
Flags: W
HStem: 325 327<438 536 438 438>
VStem: 162 436<351 386 365 385 365 365>
LayerCount: 2
Fore
SplineSet
598 385 m 0
 598 351 562 325 536 325 c 0
 517 325 509 330 493 355 c 2
 404 494 l 1
 258 356 l 2
 230 330 222 325 202 325 c 0
 179 325 162 342 162 365 c 0
 162 386 173 399 194 419 c 2
 438 652 l 1
 584 419 l 2
 594 403 598 395 598 385 c 0
EndSplineSet
EndChar

StartChar: underscore
Encoding: 63 95 75
Width: 600
Flags: W
HStem: -125 50<-28 585>
LayerCount: 2
Fore
SplineSet
596 -75 m 1
 585 -125 l 1
 -39 -125 l 1
 -28 -75 l 1
 596 -75 l 1
EndSplineSet
EndChar

StartChar: grave
Encoding: 64 96 76
Width: 600
Flags: W
HStem: 496 200
VStem: 264 200
LayerCount: 2
Fore
SplineSet
264 653 m 0
 264 672 283 696 310 696 c 0
 321 696 325 693 339 680 c 2
 448 569 l 2
 459 558 464 549 464 539 c 0
 464 514 438 496 418 496 c 0
 408 496 402 500 390 512 c 2
 281 624 l 2
 269 635 264 643 264 653 c 0
EndSplineSet
EndChar

StartChar: a
Encoding: 65 97 77
Width: 600
Flags: W
HStem: -16 466<219 388 219 388 388 388> -16 100<178.205 348.975> 196 92<227.236 390.201> 350 100<287.533 447.884>
VStem: 65 108<92.853 153.509>
LayerCount: 2
Fore
SplineSet
526 100 m 2x88
 550 100 583 100 583 59 c 0
 583 38 568 17 548 7 c 0
 540 2 526 0 505 0 c 2
 388 0 l 1
 393 23 l 1
 340 -2 278 -16 219 -16 c 0x88
 129 -16 65 34 65 99 c 0
 65 166 154 288 345 288 c 0
 377 288 408 285 447 278 c 1
 452 301 l 2
 453 305 453 308 453 311 c 0
 453 338 426 350 369 350 c 0x38
 297 350 241 327 209 327 c 0
 185 327 169 343 169 367 c 0
 169 396 189 413 209 420 c 0
 261 437 338 450 388 450 c 0
 496 450 557 408 557 335 c 0
 557 324 555 314 553 302 c 2
 510 100 l 1
 526 100 l 2x88
320 196 m 0x68
 247 196 173 155 173 118 c 0
 173 99 202 84 242 84 c 0
 296 84 355 101 418 135 c 1
 428 185 l 1
 390 192 354 196 320 196 c 0x68
EndSplineSet
EndChar

StartChar: b
Encoding: 66 98 78
Width: 600
Flags: W
HStem: -14 100<260.276 427.509> 0 100<43.4219 95> 351 100<311.869 476.961> 604 20G<179 307>
VStem: 521 102<174.099 308.481>
LayerCount: 2
Fore
SplineSet
169 524 m 2x78
 144 524 113 524 113 564 c 0
 113 585 128 607 147 617 c 0
 157 623 167 624 191 624 c 2
 307 624 l 1
 259 401 l 1
 309 435 360 451 420 451 c 0
 582 451 623 343 623 271 c 0
 623 136 508 -14 322 -14 c 0xb8
 263 -14 226 -1 181 35 c 1
 174 0 l 1
 58 0 l 2
 31 0 2 3 2 39 c 0
 2 50 6 77 36 93 c 0
 46 99 54 100 79 100 c 2
 95 100 l 1
 185 524 l 1
 169 524 l 2x78
398 351 m 0
 272 351 218 254 218 190 c 0
 218 127 265 86 341 86 c 0
 445 86 521 166 521 243 c 0
 521 278 504 351 398 351 c 0
EndSplineSet
EndChar

StartChar: c
Encoding: 67 99 79
Width: 600
Flags: W
HStem: -16 100<236.042 476.083> 350 100<293.941 479.105>
VStem: 92 103<120.784 254.767>
LayerCount: 2
Fore
SplineSet
92 157 m 0
 92 290 210 450 406 450 c 0
 463 450 509 440 543 420 c 1
 554 441 567 450 588 450 c 0
 613 450 625 438 625 412 c 0
 625 404 624 395 622 384 c 2
 605 307 l 2
 600 281 596 271 587 262 c 0
 574 249 557 241 541 241 c 0
 528 241 515 247 508 255 c 1
 501 261 501 267 500 289 c 0
 500 307 496 316 485 325 c 0
 462 341 428 350 384 350 c 0
 255 350 195 250 195 178 c 0
 195 115 246 84 348 84 c 0
 510 84 497 140 545 140 c 0
 568 140 585 123 585 100 c 0
 585 60 518 -16 320 -16 c 0
 223 -16 165 5 126 53 c 0
 104 82 92 117 92 157 c 0
EndSplineSet
EndChar

StartChar: d
Encoding: 68 100 80
Width: 600
Flags: W
HStem: -14 100<220.64 385.085> 351 100<268.059 437.852> 604 20G<535 664>
VStem: 74 103<126.722 265.342>
LayerCount: 2
Fore
SplineSet
527 525 m 2
 503 525 470 525 470 566 c 0
 470 585 484 607 504 617 c 0
 514 623 522 624 548 624 c 2
 664 624 l 1
 552 100 l 1
 568 100 l 2
 592 100 625 100 625 59 c 0
 625 38 610 17 590 7 c 0
 581 2 570 0 547 0 c 2
 431 0 l 1
 438 35 l 1
 378 -1 336 -14 277 -14 c 0
 114 -14 74 95 74 166 c 0
 74 296 182 451 377 451 c 0
 437 451 480 435 516 401 c 1
 543 525 l 1
 527 525 l 2
480 246 m 0
 480 280 464 351 356 351 c 0
 231 351 177 253 177 190 c 0
 177 130 222 86 300 86 c 0
 423 86 480 182 480 246 c 0
EndSplineSet
EndChar

StartChar: e
Encoding: 69 101 81
Width: 600
Flags: W
HStem: -16 100<222.908 465.529> 172 88<200 494> 350 100<271.715 450.671>
VStem: 494 107<260.497 310.852>
LayerCount: 2
Fore
SplineSet
74 166 m 0
 74 313 214 450 387 450 c 0
 517 450 601 373 601 262 c 0
 601 246 599 229 595 211 c 2
 587 172 l 1
 179 172 l 1
 189 112 236 84 324 84 c 0
 420 84 486 117 527 117 c 0
 550 117 565 101 565 78 c 0
 565 45 538 30 520 22 c 0
 470 2 365 -16 294 -16 c 0
 159 -16 74 57 74 166 c 0
200 260 m 1
 494 260 l 1
 490 315 439 350 366 350 c 0
 293 350 227 314 200 260 c 1
EndSplineSet
EndChar

StartChar: f
Encoding: 70 102 82
Width: 600
Flags: W
HStem: 0 100<126.281 220 320 471.379> 337 100<208.875 271 392 556.539> 523 100<416.59 607.617>
LayerCount: 2
Fore
SplineSet
632 509 m 0
 618 509 549 523 494 523 c 0
 437 523 407 507 400 474 c 2
 392 437 l 1
 543 437 l 2
 570 437 577 435 586 428 c 0
 594 420 599 410 599 398 c 0
 599 387 594 361 565 344 c 0
 556 339 544 337 522 337 c 2
 371 337 l 1
 320 100 l 1
 459 100 l 2
 483 100 516 100 516 59 c 0
 516 38 501 18 481 7 c 0
 474 3 458 0 438 0 c 2
 141 0 l 2
 117 0 85 2 85 39 c 0
 85 61 99 83 119 93 c 0
 129 99 136 100 162 100 c 2
 220 100 l 1
 271 337 l 1
 224 337 l 2
 200 337 188 339 181 347 c 1
 172 354 167 365 167 378 c 0
 167 397 181 420 201 430 c 0
 212 436 219 437 246 437 c 2
 292 437 l 1
 300 474 l 2
 319 566 405 623 524 623 c 0
 566 623 628 616 658 607 c 0
 680 601 691 588 691 570 c 0
 691 541 664 509 632 509 c 0
EndSplineSet
EndChar

StartChar: g
Encoding: 71 103 83
Width: 600
Flags: W
HStem: -205 100<148.438 363.127> -14 100<218.791 367.039> 337 100<582 632.709> 351 100<269.187 417.596>
VStem: 73 104<128.051 264.715>
LayerCount: 2
Fore
SplineSet
73 167 m 0xe8
 73 310 204 451 365 451 c 0xd8
 419 451 463 434 495 401 c 1
 503 437 l 1
 619 437 l 2
 642 437 675 437 675 398 c 0
 675 387 671 360 641 344 c 0
 632 339 621 337 598 337 c 2
 582 337 l 1
 506 -20 l 2
 483 -126 384 -205 275 -205 c 2
 163 -205 l 2
 138 -205 128 -203 121 -195 c 1
 112 -188 107 -177 107 -165 c 0
 107 -145 121 -123 141 -112 c 0
 151 -106 159 -105 185 -105 c 2
 294 -105 l 2
 351 -105 395 -72 406 -20 c 2
 417 35 l 1
 364 1 318 -14 266 -14 c 0
 150 -14 73 61 73 167 c 0xe8
289 86 m 0
 369 86 459 154 459 245 c 0
 459 306 414 351 346 351 c 0
 256 351 177 272 177 191 c 0
 177 131 223 86 289 86 c 0
EndSplineSet
EndChar

StartChar: h
Encoding: 72 104 84
Width: 600
Flags: W
HStem: 0 100<75.3856 116 216 236.175 388.578 430 530 549.368> 350 100<337.277 460.742> 604 20G<200 328>
VStem: 467 102<267.487 271 271 281.968 281.968 297.726 289.847 337.173>
LayerCount: 2
Fore
SplineSet
190 524 m 2
 165 524 134 524 134 564 c 0
 134 584 148 606 168 617 c 0
 178 622 188 624 212 624 c 2
 328 624 l 1
 278 389 l 1
 326 430 376 450 428 450 c 0
 519 450 574 402 574 325 c 0
 574 312 572 298 569 284 c 2
 530 100 l 1
 536 100 l 2
 560 100 593 100 593 59 c 0
 593 38 578 17 558 7 c 0
 549 2 536 0 515 0 c 2
 403 0 l 2
 378 0 346 2 346 39 c 0
 346 50 351 76 380 93 c 0
 390 98 399 100 424 100 c 2
 430 100 l 1
 467 271 l 2
 470 283 471 293 471 301 c 0
 471 320 460 350 395 350 c 0
 348 350 324 338 255 283 c 1
 216 100 l 1
 222 100 l 2
 250 100 258 98 266 91 c 0
 275 83 280 72 280 59 c 0
 280 38 264 18 245 7 c 0
 236 2 222 0 201 0 c 2
 89 0 l 2
 66 0 33 2 33 40 c 0
 33 61 47 83 67 93 c 0
 77 98 85 100 110 100 c 2
 116 100 l 1
 206 524 l 1
 190 524 l 2
EndSplineSet
EndChar

StartChar: i
Encoding: 73 105 85
Width: 600
Flags: W
HStem: 0 100<113.281 271 371 505.379> 337 100<228.016 322> 518 105<350 446>
VStem: 72 478<16.875 57.6055>
LayerCount: 2
Fore
SplineSet
128 0 m 2
 109 0 72 1 72 39 c 0
 72 50 77 77 106 93 c 0
 116 99 123 100 149 100 c 2
 271 100 l 1
 322 337 l 1
 244 337 l 2
 219 337 207 339 200 347 c 1
 191 354 186 365 186 378 c 0
 186 397 200 420 220 430 c 0
 231 436 239 437 265 437 c 2
 443 437 l 1
 371 100 l 1
 493 100 l 2
 520 100 528 98 536 91 c 0
 545 83 550 72 550 59 c 0
 550 38 534 18 515 7 c 0
 508 3 492 0 472 0 c 2
 128 0 l 2
468 623 m 1
 446 518 l 1
 328 518 l 1
 350 623 l 1
 468 623 l 1
EndSplineSet
EndChar

StartChar: j
Encoding: 74 106 86
Width: 600
Flags: W
HStem: -205 100<124.578 341.127> 337 100<242.859 460> 518 105<443 540>
VStem: 83 498<-165 437 -165 -165>
LayerCount: 2
Fore
SplineSet
460 337 m 1
 258 337 l 2
 233 337 222 339 215 347 c 1
 206 354 201 366 201 378 c 0
 201 397 215 420 235 430 c 0
 246 436 253 437 279 437 c 2
 581 437 l 1
 484 -20 l 2
 461 -125 362 -205 253 -205 c 2
 139 -205 l 2
 114 -205 104 -203 97 -195 c 1
 88 -188 83 -176 83 -165 c 0
 83 -147 95 -124 117 -112 c 0
 127 -106 136 -105 161 -105 c 2
 272 -105 l 2
 329 -105 373 -72 384 -20 c 2
 460 337 l 1
562 623 m 1
 540 518 l 1
 421 518 l 1
 443 623 l 1
 562 623 l 1
EndSplineSet
EndChar

StartChar: k
Encoding: 75 107 87
Width: 600
Flags: W
HStem: 0 100<84.4219 136 492 539.346> 337 100<501 563.709> 604 20G<220 348>
LayerCount: 2
Fore
SplineSet
330 37 m 0
 330 56 337 71 354 87 c 1
 271 178 l 1
 250 164 l 1
 215 0 l 1
 99 0 l 2
 61 0 43 13 43 37 c 0
 43 48 47 77 77 93 c 0
 87 99 95 100 120 100 c 2
 136 100 l 1
 226 524 l 1
 210 524 l 2
 185 524 154 524 154 564 c 0
 154 585 169 607 188 617 c 0
 198 623 208 624 232 624 c 2
 348 624 l 1
 276 287 l 1
 368 350 l 1
 362 360 359 367 359 376 c 0
 359 396 373 418 393 430 c 0
 402 435 414 437 438 437 c 2
 550 437 l 2
 572 437 607 437 607 399 c 0
 607 377 593 356 572 344 c 0
 563 339 552 337 529 337 c 2
 501 337 l 1
 362 241 l 1
 492 100 l 1
 525 100 l 2
 553 100 561 98 569 91 c 0
 578 83 583 72 583 59 c 0
 583 38 567 18 548 7 c 0
 539 2 526 0 504 0 c 2
 386 0 l 2
 348 0 330 13 330 37 c 0
EndSplineSet
EndChar

StartChar: l
Encoding: 76 108 88
Width: 600
Flags: W
HStem: 0 100<113.281 271 371 505.379> 524 100<267.734 361>
VStem: 72 478<17.1314 84.8509>
LayerCount: 2
Fore
SplineSet
128 0 m 2
 103 0 72 3 72 40 c 0
 72 61 86 83 106 93 c 0
 116 99 123 100 149 100 c 2
 271 100 l 1
 361 524 l 1
 283 524 l 2
 258 524 247 526 240 534 c 1
 230 541 226 551 226 563 c 0
 226 590 245 609 260 617 c 0
 270 623 280 624 305 624 c 2
 483 624 l 1
 371 100 l 1
 493 100 l 2
 520 100 528 98 536 91 c 0
 545 83 550 72 550 59 c 0
 550 38 534 18 515 7 c 0
 508 3 492 0 472 0 c 2
 128 0 l 2
EndSplineSet
EndChar

StartChar: m
Encoding: 77 109 89
Width: 600
Flags: W
HStem: 0 100<24.7292 62 162 170.368 584 620> 0 450<320.6 372.088 487 583.475 322 557 320.703 373.815> 350 100<252.856 340.47 449.826 561.987>
VStem: -9 223<16.2719 84.2181> 531 104<302.691 311 319 319.046 319.046 332.359 325.703 378.815>
LayerCount: 2
Fore
SplineSet
62 376 m 0x98
 62 400 79 437 141 437 c 2
 234 437 l 1
 229 413 l 1
 270 441 292 450 322 450 c 0
 361 450 390 434 413 401 c 1
 451 435 487 450 528 450 c 0x58
 593 450 634 408 634 349 c 0
 634 339 633 329 631 319 c 2
 584 100 l 1x98
 617 100 635 86 635 61 c 0
 635 37 621 0 557 0 c 2
 463 0 l 1x58
 529 311 l 2
 530 317 531 323 531 327 c 0
 531 344 522 350 502 350 c 0
 476 350 458 341 417 305 c 1
 373 100 l 1xb8
 406 100 424 85 424 61 c 0
 424 40 410 19 389 7 c 0
 380 2 367 0 346 0 c 2
 252 0 l 1x58
 318 311 l 2
 319 317 320 322 320 326 c 0
 320 343 311 350 291 350 c 0
 264 350 243 339 206 305 c 1
 162 100 l 1xb8
 196 100 214 86 214 61 c 0
 214 35 196 16 179 7 c 0
 170 2 157 0 136 0 c 2x58
 48 0 l 2
 28 0 -9 1 -9 40 c 0
 -9 60 5 100 62 100 c 1
 113 337 l 1
 80 338 62 352 62 376 c 0x98
EndSplineSet
EndChar

StartChar: n
Encoding: 78 110 90
Width: 600
Flags: W
HStem: 0 450<416 518.021> 0 100<75.3856 116 216 235.368 374.279 431 531 539.368> 350 100<335.544 462.741>
VStem: 359 224<16.4642 84.6049> 469 101<265.667 278 282 288.546 288.546 296.383 292.465 338.745>
LayerCount: 2
Fore
SplineSet
115 375 m 0x68
 115 400 130 437 194 437 c 2
 288 437 l 1
 278 389 l 1
 335 435 373 450 428 450 c 0x88
 514 450 575 407 575 324 c 0
 575 311 573 297 570 282 c 2
 531 100 l 1x48
 565 100 583 86 583 61 c 0
 583 35 564 15 548 7 c 0
 539 2 526 0 505 0 c 2
 416 0 l 2
 377 0 359 13 359 37 c 0x90
 359 62 373 100 431 100 c 1
 469 278 l 2
 471 286 472 293 472 299 c 0
 472 334 446 350 394 350 c 0
 348 350 313 333 255 282 c 1
 216 100 l 1
 222 100 l 2
 249 100 257 98 265 91 c 0
 274 83 279 72 279 59 c 0
 279 38 263 18 244 7 c 0
 235 2 222 0 201 0 c 2
 89 0 l 2
 68 0 33 1 33 39 c 0
 33 61 47 83 67 93 c 0
 77 98 85 100 110 100 c 2
 116 100 l 1
 167 337 l 1
 133 338 115 351 115 375 c 0x68
EndSplineSet
EndChar

StartChar: o
Encoding: 79 111 91
Width: 600
Flags: W
HStem: -16 100<235.67 408.628> 350 100<282.516 455.268>
VStem: 83 102<131.748 262.789> 507 102<175.617 302.587>
LayerCount: 2
Fore
SplineSet
83 172 m 0
 83 311 222 450 399 450 c 0
 523 450 609 370 609 263 c 0
 609 117 460 -16 297 -16 c 0
 170 -16 83 64 83 172 c 0
318 84 m 0
 426 84 507 165 507 242 c 0
 507 304 453 350 376 350 c 0
 275 350 185 279 185 192 c 0
 185 130 239 84 318 84 c 0
EndSplineSet
EndChar

StartChar: p
Encoding: 80 112 92
Width: 600
Flags: W
HStem: -205 100<-0.28125 52 152 223.346> 10 100<262.453 436.555> 350 100<318.27 481.864>
VStem: 522 102<186 309.619>
LayerCount: 2
Fore
SplineSet
624 271 m 0
 624 137 498 10 331 10 c 0
 272 10 232 26 188 66 c 1
 152 -105 l 1
 210 -105 l 2
 235 -105 266 -105 266 -144 c 0
 266 -170 248 -189 232 -198 c 0
 223 -203 210 -205 188 -205 c 2
 14 -205 l 2
 -5 -205 -42 -206 -42 -165 c 0
 -42 -144 -27 -122 -8 -112 c 0
 2 -106 12 -105 36 -105 c 2
 52 -105 l 1
 146 337 l 1
 130 337 l 2
 106 337 73 337 73 378 c 0
 73 397 87 420 107 430 c 0
 117 435 127 437 151 437 c 2
 267 437 l 1
 257 392 l 1
 315 434 361 450 423 450 c 0
 545 450 624 376 624 271 c 0
522 250 m 0
 522 288 500 350 397 350 c 0
 275 350 220 263 220 207 c 0
 220 149 268 110 346 110 c 0
 456 110 522 187 522 250 c 0
EndSplineSet
EndChar

StartChar: q
Encoding: 81 113 93
Width: 600
Flags: W
HStem: -205 100<315.313 409 509 538.346> 10 100<222.302 381.817> 337 100<603 653.709> 350 100<263.862 440.642>
VStem: 76 104<150.38 272.053>
LayerCount: 2
Fore
SplineSet
525 -105 m 2xe8
 550 -105 581 -105 581 -145 c 0
 581 -166 566 -187 547 -198 c 0
 538 -203 525 -205 503 -205 c 2
 329 -205 l 2
 304 -205 294 -203 286 -195 c 0
 277 -187 273 -177 273 -165 c 0
 273 -145 287 -123 307 -112 c 0
 316 -107 327 -105 351 -105 c 2
 409 -105 l 1
 445 66 l 1
 385 26 336 10 277 10 c 0
 155 10 76 80 76 179 c 0
 76 308 198 450 373 450 c 0xd8
 436 450 474 434 514 392 c 1
 524 437 l 1
 640 437 l 2
 663 437 696 437 696 398 c 0
 696 387 692 360 662 344 c 0
 653 339 642 337 619 337 c 2
 603 337 l 1
 509 -105 l 1
 525 -105 l 2xe8
305 110 m 0
 427 110 483 196 483 253 c 0
 483 311 434 350 355 350 c 0
 235 350 180 262 180 210 c 0
 180 170 205 110 305 110 c 0
EndSplineSet
EndChar

StartChar: r
Encoding: 82 114 94
Width: 600
Flags: W
HStem: 0 100<105.281 199 299 451.344> 337 100<173.76 250> 349 100<453.926 555.357>
LayerCount: 2
Fore
SplineSet
158 378 m 0xc0
 158 402 177 437 236 437 c 2
 371 437 l 1xc0
 357 372 l 1
 450 432 491 449 540 449 c 0
 607 449 649 400 649 376 c 0
 649 346 621 313 588 313 c 0
 552 313 552 349 517 349 c 0xa0
 485 349 442 325 331 247 c 1
 299 100 l 1
 438 100 l 2
 466 100 474 98 482 91 c 0
 491 83 496 72 496 59 c 0
 496 40 481 17 461 7 c 0
 454 3 438 0 417 0 c 2
 120 0 l 2
 96 0 64 2 64 39 c 0
 64 61 78 83 98 93 c 0
 108 99 115 100 141 100 c 2
 199 100 l 1
 250 337 l 1
 215 337 l 2
 190 337 179 339 172 347 c 1
 163 354 158 365 158 378 c 0xc0
EndSplineSet
EndChar

StartChar: s
Encoding: 83 115 95
Width: 600
Flags: W
HStem: -16 100<221.969 420.998> 350 100<281.209 462.046>
VStem: 156 113<216.376 333.164> 445 111<107.644 157.513>
LayerCount: 2
Fore
SplineSet
156 285 m 0
 156 384 265 450 394 450 c 0
 443 450 482 442 517 424 c 1
 529 443 540 450 555 450 c 0
 580 450 591 438 591 412 c 0
 591 404 590 395 588 384 c 2
 580 347 l 2
 574 321 570 311 561 301 c 0
 548 289 531 281 516 281 c 0
 490 281 480 298 472 321 c 1
 448 341 417 350 375 350 c 0
 332 350 269 335 269 312 c 0
 269 253 556 313 556 149 c 0
 556 50 435 -16 301 -16 c 0
 244 -16 195 -6 159 13 c 1
 146 4 137 1 124 1 c 0
 104 1 83 13 83 38 c 0
 83 45 84 53 87 67 c 2
 94 100 l 1
 94 100 102 167 159 167 c 0
 185 167 199 153 201 123 c 1
 225 97 264 84 318 84 c 0
 378 84 445 103 445 132 c 0
 445 208 156 141 156 285 c 0
EndSplineSet
EndChar

StartChar: t
Encoding: 84 116 96
Width: 600
Flags: W
HStem: -16 100<243.621 430.738> 337 100<135.859 186 307 501.539> 571 20G<282 305.5>
VStem: 94 450<378.482 421.554 89 378 378 378> 137 104<59.2732 131.009>
LayerCount: 2
Fore
SplineSet
488 437 m 2xf0
 510 437 544 437 544 398 c 0xf0
 544 387 540 360 510 344 c 0
 501 339 489 337 467 337 c 2
 286 337 l 1
 244 141 l 2
 242 130 241 123 241 117 c 0
 241 97 259 84 318 84 c 0
 430 84 476 129 508 129 c 0
 531 129 547 112 547 89 c 0
 547 50 509 34 484 24 c 0
 430 1 348 -16 296 -16 c 0
 195 -16 137 25 137 93 c 0xe8
 137 102 138 112 140 122 c 2
 186 337 l 1
 151 337 l 2
 130 337 94 337 94 378 c 0
 94 397 108 420 128 430 c 0
 139 436 146 437 172 437 c 2
 207 437 l 1
 226 525 l 2
 231 551 235 561 245 571 c 0
 257 583 274 591 290 591 c 0
 321 591 330 566 330 555 c 0
 330 549 329 540 326 525 c 2
 307 437 l 1
 488 437 l 2xf0
EndSplineSet
EndChar

StartChar: u
Encoding: 85 117 97
Width: 600
Flags: W
HStem: -13 100<234.771 360.744> 337 100<136 167 432.141 482>
VStem: 123 103<97.9123 144.66 141.344 147.977 147.977 156 159 172.244>
LayerCount: 2
Fore
SplineSet
437 337 m 0
 394 337 390 367 390 378 c 0
 390 397 404 420 424 430 c 0
 435 436 444 437 468 437 c 2
 603 437 l 1
 531 100 l 1
 565 100 583 86 583 61 c 0
 583 35 565 16 548 7 c 0
 539 2 526 0 505 0 c 2
 410 0 l 1
 420 48 l 1
 360 1 325 -13 270 -13 c 0
 182 -13 123 31 123 113 c 0
 123 126 125 141 128 156 c 2
 167 337 l 1
 140 337 l 2
 111 337 94 353 94 376 c 0
 94 397 108 419 128 430 c 0
 139 436 147 437 172 437 c 2
 288 437 l 1
 229 159 l 2
 227 151 226 144 226 137 c 0
 226 103 251 87 301 87 c 0
 351 87 379 100 443 155 c 1
 482 337 l 1
 437 337 l 0
EndSplineSet
EndChar

StartChar: v
Encoding: 86 118 98
Width: 600
Flags: W
HStem: 0 21G<241.362 365.184> 337 100<123.749 152 265 304.709 456.749 481 590 640.709>
LayerCount: 2
Fore
SplineSet
291 437 m 2
 314 437 347 437 347 398 c 0
 347 387 343 360 313 344 c 0
 304 339 293 337 270 337 c 2
 265 337 l 1
 328 122 l 1
 481 337 l 1
 471 337 l 2
 446 337 435 339 428 346 c 0
 419 354 414 365 414 378 c 0
 414 397 428 420 448 430 c 0
 458 435 468 437 492 437 c 2
 627 437 l 2
 650 437 683 437 683 398 c 0
 683 387 679 360 649 344 c 0
 640 339 629 337 606 337 c 2
 590 337 l 1
 351 0 l 1
 247 0 l 1
 152 337 l 1
 138 337 l 2
 113 337 102 339 95 346 c 0
 86 354 81 365 81 378 c 0
 81 397 95 420 115 430 c 0
 125 435 135 437 159 437 c 2
 291 437 l 2
EndSplineSet
EndChar

StartChar: w
Encoding: 87 119 99
Width: 600
Flags: W
HStem: 0 437<140.008 232 464 534 3.7598 52> 338 99<96.4633 126 232 266.243 471.76 520 620 668.484>
VStem: 126 112<247 261.5 261.5 338>
LayerCount: 2
Fore
SplineSet
456 378 m 0x60
 456 402 475 437 534 437 c 2xa0
 627 437 l 2
 653 437 662 435 670 428 c 0
 678 420 683 410 683 398 c 0
 683 383 673 341 620 338 c 1x60
 464 0 l 1
 372 0 l 1
 339 181 l 1
 233 0 l 1
 139 0 l 1xa0
 126 338 l 1x60
 97 340 81 353 81 376 c 0
 81 400 96 437 159 437 c 2xa0
 251 437 l 2
 274 437 307 437 307 398 c 0
 307 387 303 361 274 345 c 0
 265 340 257 338 232 338 c 1
 238 185 l 1
 332 343 l 1
 420 343 l 1
 447 185 l 1
 520 338 l 1
 513 338 l 2
 487 338 477 340 470 347 c 0
 461 354 456 366 456 378 c 0x60
EndSplineSet
EndChar

StartChar: x
Encoding: 88 120 100
Width: 600
Flags: W
HStem: 0 437<431 433 513 534 493 513 493 493> 0 100<45.6966 96>
LayerCount: 2
Fore
SplineSet
415 375 m 0x80
 415 399 431 437 493 437 c 2
 584 437 l 2x80
 605 437 641 437 641 398 c 0
 641 382 632 342 577 337 c 1
 421 227 l 1
 546 100 l 1x40
 575 98 591 85 591 62 c 0
 591 35 571 15 556 7 c 0
 547 2 534 0 513 0 c 2x80
 401 0 l 2
 375 0 343 3 343 39 c 0
 343 63 360 91 395 100 c 1
 333 161 l 1
 247 100 l 1
 268 90 277 80 277 64 c 0
 277 44 267 0 198 0 c 2
 87 0 l 2
 49 0 31 13 31 37 c 0
 31 57 41 97 96 100 c 1x40
 268 228 l 1
 164 337 l 1
 136 340 121 353 121 375 c 0
 121 400 136 437 199 437 c 2
 291 437 l 2
 310 437 347 438 347 398 c 0
 347 387 342 360 311 342 c 1
 361 293 l 1
 433 343 l 1
 420 353 415 363 415 375 c 0x80
EndSplineSet
EndChar

StartChar: y
Encoding: 89 121 101
Width: 600
Flags: W
HStem: -205 100<29.749 165 275 293.346> 337 100<118.711 142 256 310.652 450.875 490 599 646.443>
VStem: 102 224<352.46 419.497>
LayerCount: 2
Fore
SplineSet
435 375 m 0
 435 400 451 437 514 437 c 2
 606 437 l 2
 632 437 641 435 649 428 c 0
 658 420 662 410 662 399 c 0
 662 385 654 342 599 337 c 1
 275 -105 l 1
 280 -105 l 2
 305 -105 336 -105 336 -145 c 0
 336 -166 321 -187 302 -198 c 0
 293 -203 280 -205 258 -205 c 2
 33 -205 l 2
 -9 -205 -13 -174 -13 -165 c 0
 -13 -145 1 -123 21 -112 c 0
 31 -107 41 -105 65 -105 c 2
 165 -105 l 1
 243 3 l 1
 142 337 l 1
 116 340 102 354 102 375 c 0
 102 400 120 437 180 437 c 2
 270 437 l 2
 293 437 326 437 326 398 c 0
 326 374 310 338 256 337 c 1
 322 114 l 1
 490 337 l 1
 454 337 435 351 435 375 c 0
EndSplineSet
EndChar

StartChar: z
Encoding: 90 122 102
Width: 600
Flags: W
HStem: 0 154<456.102 519> 0 100<265 440> 337 100<269 418>
LayerCount: 2
Fore
SplineSet
269 337 m 1x60
 267 330 259 262 203 262 c 0
 181 262 163 277 163 299 c 0
 163 306 164 315 167 328 c 2
 190 437 l 1
 599 437 l 1
 582 356 l 1
 265 100 l 1
 440 100 l 1x60
 450 135 472 154 502 154 c 0
 533 154 542 129 542 118 c 0
 542 112 541 103 538 88 c 2
 519 0 l 1xa0
 85 0 l 1
 103 83 l 1
 418 337 l 1
 269 337 l 1x60
EndSplineSet
EndChar

StartChar: braceleft
Encoding: 91 123 103
Width: 600
Flags: W
HStem: -153 101<343.006 396.326> 522 101<457.625 539.138>
VStem: 280 98<134.635 142 142 160.046 160.046 173.592 166.819 199.115>
LayerCount: 2
Fore
SplineSet
282 169 m 0
 282 204 217 172 217 227 c 0
 217 243 225 285 278 290 c 0
 304 293 312 301 318 328 c 2
 353 492 l 2
 368 563 440 623 509 623 c 0
 539 623 556 608 556 584 c 0
 556 558 534 525 495 522 c 0
 467 521 457 512 451 485 c 2
 418 328 l 2
 409 285 399 268 370 240 c 1
 380 223 385 210 385 193 c 0
 385 180 383 164 378 142 c 2
 345 -15 l 2
 344 -21 343 -26 343 -31 c 0
 343 -45 351 -50 373 -52 c 0
 398 -54 412 -69 412 -91 c 0
 412 -128 381 -153 345 -153 c 0
 284 -153 240 -107 240 -48 c 0
 240 -40 241 -31 243 -22 c 2
 280 151 l 2
 282 158 282 164 282 169 c 0
EndSplineSet
EndChar

StartChar: bar
Encoding: 92 124 104
Width: 600
Flags: W
HStem: 602 20G<424 442>
VStem: 228 244<-117 585 -250.246 -84.2593>
LayerCount: 2
Fore
SplineSet
432 622 m 0
 452 622 472 609 472 585 c 0
 472 578 471 570 468 556 c 2
 332 -87 l 2
 326 -112 322 -122 313 -132 c 0
 300 -145 283 -153 267 -153 c 0
 243 -153 228 -135 228 -117 c 0
 228 -110 229 -100 232 -87 c 2
 368 556 l 2
 374 582 378 592 387 602 c 0
 400 614 416 622 432 622 c 0
EndSplineSet
EndChar

StartChar: braceright
Encoding: 93 125 105
Width: 600
Flags: W
HStem: -153 101<160.08 241.531> 522 101<303.909 356.848>
VStem: 315 103<270.885 303.181 296.408 309.954 309.954 335.365>
LayerCount: 2
Fore
SplineSet
418 301 m 0
 418 266 483 298 483 243 c 0
 483 227 475 185 422 180 c 0
 396 177 388 169 382 142 c 2
 347 -22 l 2
 332 -93 259 -153 190 -153 c 0
 161 -153 144 -138 144 -114 c 0
 144 -85 169 -54 205 -52 c 0
 233 -51 243 -42 249 -15 c 2
 282 142 l 2
 291 185 301 202 330 230 c 1
 320 247 315 260 315 277 c 0
 315 290 317 306 322 328 c 2
 355 485 l 2
 356 491 357 496 357 501 c 0
 357 515 349 520 327 522 c 0
 302 524 288 539 288 561 c 0
 288 596 317 623 354 623 c 0
 415 623 460 577 460 518 c 0
 460 509 459 501 457 492 c 2
 420 319 l 2
 418 312 418 306 418 301 c 0
EndSplineSet
EndChar

StartChar: asciitilde
Encoding: 94 126 106
Width: 600
Flags: W
HStem: 179 105<428.037 482.871> 281 104<238.106 302.841>
VStem: 115 491<242 323 242 323 242 242>
LayerCount: 2
Fore
SplineSet
272 281 m 0x60
 243 281 199 201 156 201 c 0
 132 201 115 219 115 242 c 0
 115 266 135 291 169 322 c 0
 218 367 254 385 295 385 c 0x60
 337 385 361 370 415 307 c 0
 430 292 440 284 449 284 c 0
 460 284 476 297 508 330 c 0
 534 357 545 364 565 364 c 0
 589 364 606 346 606 323 c 0
 606 298 589 279 548 241 c 0
 502 197 468 179 429 179 c 0xa0
 348 179 301 281 272 281 c 0x60
EndSplineSet
EndChar

StartChar: exclamdown
Encoding: 96 161 108
Width: 600
Flags: W
HStem: 294 132<328.717 354 354 425.33>
VStem: 187 266<-166 373 -195 -123.67> 300 153<322.514 397.89>
LayerCount: 2
Fore
SplineSet
187 -166 m 0xc0
 187 -151 191 -134 198 -114 c 2
 290 183 l 2
 299 214 321 232 349 232 c 0
 375 232 389 216 389 190 c 0
 389 188 389 186 389 183 c 2
 355 -114 l 2
 353 -127 351 -141 350 -147 c 0
 340 -193 299 -227 252 -227 c 0
 212 -227 187 -202 187 -166 c 0xc0
300 346 m 0xa0
 300 390 341 426 383 426 c 2
 400 426 l 2
 432 426 453 404 453 373 c 0xc0
 453 336 418 294 371 294 c 2
 354 294 l 2
 322 294 300 316 300 346 c 0xa0
EndSplineSet
EndChar

StartChar: cent
Encoding: 97 162 109
Width: 600
Flags: W
HStem: -44 241<280.984 385.194>
VStem: 144 103<231.285 354.866>
LayerCount: 2
Fore
SplineSet
352 197 m 0
 434 197 464 245 501 245 c 0
 524 245 541 227 541 204 c 0
 541 162 478 117 372 99 c 1
 356 22 l 2
 350 -5 346 -13 337 -23 c 0
 324 -36 308 -44 292 -44 c 0
 264 -44 252 -22 252 -8 c 0
 252 -1 253 9 256 22 c 2
 273 103 l 1
 191 124 144 184 144 264 c 0
 144 393 253 492 361 517 c 1
 377 594 l 2
 378 597 386 661 442 661 c 0
 463 661 482 646 482 624 c 0
 482 617 480 608 477 594 c 2
 463 527 l 1
 493 522 513 515 531 503 c 1
 541 506 546 507 552 507 c 0
 580 507 593 486 593 471 c 0
 593 465 592 456 589 441 c 2
 580 399 l 2
 574 372 570 364 561 354 c 0
 548 341 532 333 516 333 c 0
 504 333 490 339 484 346 c 0
 465 372 504 427 411 427 c 0
 312 427 247 354 247 288 c 0
 247 236 288 197 352 197 c 0
EndSplineSet
EndChar

StartChar: sterling
Encoding: 98 163 110
Width: 600
Flags: W
HStem: 0 100<268 471> 243 100<136 216 321 401.251> 444 21G<477.5 517> 498 100<344.987 456.866>
VStem: 220 101<224.144 243 343 364.569 364.569 370.287 367.428 471.787>
LayerCount: 2
Fore
SplineSet
387 343 m 2
 408 343 444 344 444 304 c 0
 444 293 439 267 410 250 c 0
 400 245 390 243 366 243 c 2
 321 243 l 1
 311 182 300 151 268 100 c 1
 471 100 l 1
 482 130 502 146 530 146 c 0
 556 146 571 131 571 106 c 0
 571 70 545 0 442 0 c 2
 121 0 l 2
 96 0 65 3 65 40 c 0
 65 56 72 89 126 100 c 0
 152 105 165 113 178 132 c 0
 196 157 209 188 217 224 c 1
 217 227 219 235 220 243 c 1
 151 243 l 2
 126 243 115 245 108 252 c 0
 99 260 94 271 94 284 c 0
 94 305 111 326 128 336 c 0
 139 342 147 343 172 343 c 2
 216 343 l 1
 214 359 213 373 213 386 c 0
 213 515 318 598 426 598 c 0
 498 598 563 553 563 506 c 0
 563 473 532 444 502 444 c 0
 453 444 476 498 404 498 c 0
 373 498 315 480 315 409 c 0
 315 397 316 378 319 343 c 1
 387 343 l 2
EndSplineSet
EndChar

StartChar: currency
Encoding: 99 164 111
Width: 600
Flags: W
HStem: 64 455<234 489 234 234> 97 100<288.109 382.067> 388 100<341.256 437.214>
VStem: 164 102<219.14 336.62> 458 103<250.746 367.342>
LayerCount: 2
Fore
SplineSet
164 252 m 0x98
 164 307 186 350 213 388 c 1x38
 199 406 172 432 172 460 c 0
 172 494 206 519 234 519 c 0x98
 251 519 257 515 276 493 c 2
 301 462 l 1
 342 482 368 488 404 488 c 0
 440 488 462 481 495 461 c 1
 532 491 l 2
 559 513 568 517 585 517 c 0
 609 517 626 500 626 477 c 0
 626 445 599 428 589 420 c 2
 551 388 l 1x38
 558 367 561 350 561 332 c 0
 561 278 538 233 510 196 c 1
 535 162 l 2
 548 146 553 136 553 126 c 0
 553 91 517 64 489 64 c 0x98
 472 64 465 68 448 90 c 2
 421 122 l 1
 381 103 356 97 321 97 c 0x58
 285 97 263 103 230 123 c 1
 190 91 l 2
 162 68 155 64 138 64 c 0
 114 64 96 82 96 105 c 0
 96 128 109 141 133 162 c 2
 173 196 l 1
 167 218 164 235 164 252 c 0x98
342 197 m 0x78
 399 197 458 253 458 314 c 0
 458 357 428 388 382 388 c 0
 319 388 266 329 266 274 c 0
 266 231 297 197 342 197 c 0x78
EndSplineSet
EndChar

StartChar: yen
Encoding: 100 165 112
Width: 600
Flags: W
HStem: 0 100<188.438 271 371 459.25> 135 56<158.606 279 391 511.229> 225 56<177.771 285 435 530.128>
VStem: 467 226<496.114 564.844>
LayerCount: 2
Fore
SplineSet
360 540 m 0
 360 514 339 487 309 482 c 1
 375 348 l 1
 498 481 l 1
 478 487 467 501 467 519 c 0
 467 545 485 565 501 573 c 0
 511 579 519 580 545 580 c 2
 636 580 l 2
 664 580 671 578 679 571 c 0
 688 563 693 552 693 539 c 0
 693 520 679 499 659 487 c 0
 651 483 625 480 616 480 c 1
 435 281 l 1
 507 281 l 2
 524 281 533 274 533 261 c 0
 533 248 525 225 495 225 c 2
 398 225 l 1
 391 191 l 1
 488 191 l 2
 505 191 514 184 514 170 c 0
 514 158 506 135 476 135 c 2
 379 135 l 1
 371 100 l 1
 418 100 l 2
 445 100 453 98 461 91 c 0
 470 83 475 72 475 60 c 0
 475 36 459 0 397 0 c 2
 203 0 l 2
 175 0 147 5 147 40 c 0
 147 61 161 83 181 93 c 0
 191 99 199 100 225 100 c 2
 271 100 l 1
 279 135 l 1
 182 135 l 2
 165 135 156 142 156 155 c 0
 156 170 164 191 194 191 c 2
 291 191 l 1
 298 225 l 1
 201 225 l 2
 184 225 175 232 175 245 c 0
 175 259 183 281 213 281 c 2
 285 281 l 1
 189 480 l 1
 165 480 133 482 133 519 c 0
 133 530 137 557 167 573 c 0
 177 579 184 580 210 580 c 2
 302 580 l 2
 331 580 338 578 347 570 c 0
 356 562 360 552 360 540 c 0
EndSplineSet
EndChar

StartChar: brokenbar
Encoding: 101 166 113
Width: 600
Flags: W
HStem: 602 20G<424 444.5>
VStem: 228 244<-117 582 -462.917 -443.951>
LayerCount: 2
Fore
SplineSet
361 287 m 0
 342 287 321 299 321 324 c 0
 321 331 322 340 325 353 c 2
 368 556 l 2
 373 581 378 592 387 601 c 0
 400 614 416 622 432 622 c 0
 457 622 472 607 472 582 c 0
 472 577 470 564 468 556 c 2
 425 353 l 2
 419 326 416 318 406 308 c 0
 394 295 377 287 361 287 c 0
339 182 m 0
 359 182 379 169 379 145 c 0
 379 138 378 130 375 116 c 2
 332 -87 l 2
 326 -112 322 -122 313 -132 c 0
 300 -145 283 -153 267 -153 c 0
 243 -153 228 -135 228 -117 c 0
 228 -110 229 -100 232 -87 c 2
 275 116 l 2
 280 142 284 152 293 162 c 0
 306 174 323 182 339 182 c 0
EndSplineSet
EndChar

StartChar: section
Encoding: 102 167 114
Width: 600
Flags: W
HStem: -170 182<85.3242 151.695> -170 88<152 354.32> 493 90<331.875 536>
VStem: 93 100<242.604 316.334> 222 88<402 471.565> 376 88<-29.3883 10> 495 100<96.5704 167.07>
LayerCount: 2
Fore
SplineSet
560 401 m 0x7e
 547 401 525 409 525 431 c 0
 525 437 526 445 528 456 c 2
 536 493 l 1
 392 493 l 2
 341 493 310 457 310 433 c 0
 310 409 339 379 397 342 c 2
 478 291 l 2
 564 237 595 204 595 158 c 0
 595 112 567 33 464 10 c 1
 464 -1 l 2
 464 -21 459 -71 403 -123 c 0
 366 -156 329 -170 276 -170 c 2
 45 -170 l 1x7e
 72 -43 l 2
 80 -6 98 12 128 12 c 0xbe
 156 12 164 -13 164 -19 c 0
 164 -24 162 -31 160 -43 c 2
 152 -82 l 1
 297 -82 l 2
 341 -82 376 -48 376 -23 c 0
 376 2 348 32 291 69 c 2
 198 130 l 2
 124 179 93 214 93 259 c 0
 93 316 135 379 222 402 c 1
 218 449 250 502 288 535 c 0
 326 569 365 583 418 583 c 2
 643 583 l 1
 616 456 l 1
 616 456 610 401 560 401 c 0x7e
443 88 m 2
 466 89 495 102 495 126 c 0
 495 149 467 181 416 214 c 2
 330 271 l 2
 300 290 291 297 261 326 c 1
 205 326 193 301 193 285 c 0
 193 261 215 236 262 205 c 2
 352 147 l 2
 398 114 412 103 426 88 c 1
 443 88 l 2
EndSplineSet
EndChar

StartChar: dieresis
Encoding: 103 168 115
Width: 600
Flags: W
HStem: 534 120<284.795 359.999 492.795 567.999>
VStem: 261 122<556.892 630> 469 122<556.892 630>
LayerCount: 2
Fore
SplineSet
261 582 m 0
 261 614 293 654 335 654 c 0
 364 654 383 634 383 606 c 0
 383 564 343 534 310 534 c 0
 281 534 261 555 261 582 c 0
469 582 m 0
 469 614 501 654 543 654 c 0
 572 654 591 634 591 606 c 0
 591 564 551 534 518 534 c 0
 489 534 469 555 469 582 c 0
EndSplineSet
EndChar

StartChar: copyright
Encoding: 104 169 116
Width: 600
Flags: W
HStem: -15 73<217.018 412.528> 118 71<278.642 414.105> 395 71<314.227 432.989> 525 73<310.298 504.585>
VStem: 48 75<154.378 339.307> 189 72<206.404 257.477 253.477 261.477 261.477 284.75> 600 75<242.338 429.728>
LayerCount: 2
Fore
SplineSet
481 200 m 0
 481 156 397 118 327 118 c 0
 243 118 189 167 189 238 c 0
 189 248 190 258 192 269 c 2
 200 305 l 2
 219 397 301 466 390 466 c 0
 418 466 440 461 465 447 c 1
 473 459 483 466 497 466 c 0
 514 466 523 456 523 439 c 0
 523 436 523 432 522 428 c 2
 509 368 l 2
 503 340 487 324 465 324 c 0
 445 324 437 334 437 356 c 2
 437 361 l 2
 437 380 410 395 377 395 c 0
 326 395 282 357 271 304 c 2
 263 270 l 2
 262 264 261 258 261 253 c 0
 261 214 291 189 343 189 c 0
 423 189 414 229 452 229 c 0
 469 229 481 216 481 200 c 0
48 229 m 0
 48 414 227 598 426 598 c 0
 574 598 675 494 675 356 c 0
 675 164 492 -15 293 -15 c 0
 149 -15 48 90 48 229 c 0
309 58 m 0
 466 58 600 199 600 340 c 0
 600 446 524 525 412 525 c 0
 267 525 123 394 123 244 c 0
 123 138 199 58 309 58 c 0
EndSplineSet
EndChar

StartChar: ordfeminine
Encoding: 105 170 117
Width: 600
Flags: W
HStem: 182 413<383 496 418 471 440.824 463> 182 77<196.955 522.71> 273 79<288.677 382.812> 284 78<509 550.1> 417 70<304.997 409.032 399.24 418.824 418.824 441> 517 78<334.082 458.56>
VStem: 169 390<206 333 206 259> 194 94<330.809 397.871> 459 80<489.372 540.268>
LayerCount: 2
Fore
SplineSet
559 333 m 0x12
 559 314 547 284 499 284 c 2
 414 284 l 1x12
 417 295 l 1
 373 279 343 273 304 273 c 0
 240 273 194 308 194 354 c 0
 194 394 246 487 396 487 c 0
 416 487 428 486 456 482 c 1
 458 490 459 491 459 496 c 0
 459 511 443 517 406 517 c 0x2d80
 350 517 317 501 295 501 c 0
 277 501 265 514 265 532 c 0
 265 545 272 565 297 575 c 0
 334 587 383 595 418 595 c 0
 496 595 539 566 539 514 c 0x8180
 539 506 538 498 536 490 c 2
 509 362 l 1
 515 362 l 2
 545 362 559 353 559 333 c 0x12
435 383 m 1
 441 410 l 1
 410 416 396 417 377 417 c 0
 326 417 288 390 288 372 c 0
 288 360 303 352 327 352 c 0x29
 359 352 406 365 435 383 c 1
531 232 m 0
 531 218 525 182 471 182 c 2x82
 215 182 l 2
 181 182 169 186 169 206 c 0
 169 258 201 259 231 259 c 2
 486 259 l 2x42
 517 259 531 250 531 232 c 0
EndSplineSet
EndChar

StartChar: guillemotleft
Encoding: 106 171 118
Width: 600
Flags: W
HStem: 20 395<313 398 398 398>
LayerCount: 2
Fore
SplineSet
221 218 m 1
 342 77 l 2
 351 67 355 59 353 50 c 0
 349 34 331 20 313 20 c 0
 304 20 300 22 288 33 c 2
 79 218 l 1
 366 402 l 2
 383 413 388 415 398 415 c 0
 413 415 424 404 424 390 c 0
 424 384 423 373 402 358 c 2
 221 218 l 1
450 218 m 1
 571 77 l 2
 580 67 584 59 582 50 c 0
 578 34 560 20 542 20 c 0
 533 20 529 22 517 33 c 2
 308 218 l 1
 595 402 l 2
 612 413 617 415 627 415 c 0
 642 415 653 404 653 390 c 0
 653 384 652 373 631 358 c 2
 450 218 l 1
EndSplineSet
EndChar

StartChar: logicalnot
Encoding: 107 172 119
Width: 600
Flags: W
HStem: 345 100<166.438 438>
VStem: 125 435<428.789 429.338 385 445 385 385>
LayerCount: 2
Fore
SplineSet
181 345 m 2
 162 345 125 345 125 385 c 0
 125 405 139 427 159 438 c 0
 169 444 177 445 203 445 c 2
 560 445 l 1
 503 181 l 2
 498 154 494 146 485 136 c 0
 472 123 455 115 439 115 c 0
 417 115 399 130 399 152 c 0
 399 159 401 168 403 181 c 2
 438 345 l 1
 181 345 l 2
EndSplineSet
EndChar

StartChar: registered
Encoding: 109 174 121
Width: 600
Flags: W
HStem: -15 73<217.018 410.788> 126 71<193.437 239 311 339.832> 387 71<249.227 279 351 420.734> 525 73<309.895 504.667>
VStem: 48 75<154.378 340.838> 187 159<132.812 189.839> 390 92<153.971 195.277> 424 72<328.104 382.631> 600 75<244.117 429.506>
LayerCount: 2
Fore
SplineSet
482 171 m 0xfe80
 482 154 472 126 430 126 c 2
 390 126 l 1xfe80
 388 175 362 233 336 246 c 1
 321 246 l 1
 311 197 l 1
 333 197 346 187 346 171 c 0
 346 153 336 126 294 126 c 2
 226 126 l 2
 200 126 187 136 187 154 c 0
 187 171 200 197 239 197 c 1
 279 387 l 1
 255 388 243 397 243 414 c 0
 243 432 254 458 296 458 c 2
 389 458 l 2
 455 458 496 425 496 375 c 0xfd80
 496 331 466 288 415 266 c 1
 434 244 439 235 453 197 c 1
 471 195 482 186 482 171 c 0xfe80
361 316 m 2
 402 316 424 342 424 360 c 0xfd80
 424 376 406 387 376 387 c 2
 351 387 l 1
 336 316 l 1
 361 316 l 2
48 229 m 0
 48 414 230 598 427 598 c 0
 573 598 675 494 675 356 c 0
 675 170 498 -15 293 -15 c 0
 149 -15 48 90 48 229 c 0
309 58 m 0
 468 58 600 202 600 340 c 0
 600 445 524 525 412 525 c 0
 261 525 123 386 123 244 c 0
 123 138 199 58 309 58 c 0
EndSplineSet
EndChar

StartChar: macron
Encoding: 110 175 122
Width: 600
Flags: W
HStem: 546 80<257.701 590.93 311 538 311 311>
VStem: 249 351<556.787 615.904>
LayerCount: 2
Fore
SplineSet
249 579 m 0
 249 598 264 626 311 626 c 2
 555 626 l 2
 586 626 600 621 600 591 c 0
 600 570 578 546 538 546 c 2
 294 546 l 2
 273 546 249 546 249 579 c 0
EndSplineSet
EndChar

StartChar: degree
Encoding: 111 176 123
Width: 600
Flags: W
HStem: 243 61<305.804 433.878> 535 61<343.814 475.252>
VStem: 210 63<336.917 463.388> 506 62<375.114 503.881>
LayerCount: 2
Fore
SplineSet
210 384 m 0
 210 489 312 596 427 596 c 0
 511 596 568 537 568 458 c 0
 568 350 467 243 350 243 c 0
 268 243 210 304 210 384 c 0
364 304 m 0
 435 304 506 370 506 445 c 0
 506 496 469 535 414 535 c 0
 341 535 273 466 273 397 c 0
 273 345 311 304 364 304 c 0
EndSplineSet
EndChar

StartChar: plusminus
Encoding: 112 177 124
Width: 600
Flags: W
HStem: 0 100<93.4219 526.539> 330 100<163.422 320 441 597.324> 604 20G<425 448.5>
LayerCount: 2
Fore
SplineSet
433 624 m 0
 464 624 473 599 473 588 c 0
 473 582 472 573 469 558 c 2
 441 430 l 1
 582 430 l 2
 610 430 618 428 626 421 c 0
 635 413 640 402 640 389 c 0
 640 370 626 347 606 337 c 0
 597 332 584 330 561 330 c 2
 420 330 l 1
 399 230 l 2
 398 227 390 164 335 164 c 0
 316 164 295 177 295 201 c 0
 295 208 296 217 299 230 c 2
 320 330 l 1
 178 330 l 2
 159 330 122 330 122 370 c 0
 122 395 142 415 156 423 c 0
 166 429 174 430 199 430 c 2
 341 430 l 1
 369 558 l 2
 374 584 378 594 388 603 c 0
 400 616 417 624 433 624 c 0
129 100 m 2
 513 100 l 2
 540 100 548 98 556 91 c 0
 565 83 570 72 570 59 c 0
 570 40 555 17 535 7 c 0
 526 2 514 0 492 0 c 2
 108 0 l 2
 84 0 72 2 65 10 c 0
 57 17 52 28 52 40 c 0
 52 61 66 82 86 93 c 0
 96 99 104 100 129 100 c 2
EndSplineSet
EndChar

StartChar: twosuperior
Encoding: 113 178 125
Width: 600
Flags: W
HStem: 247 99<433.663 482> 247 67<320 429> 570 67<357.077 463.528>
VStem: 470 68<489.741 562.026>
LayerCount: 2
Fore
SplineSet
538 542 m 0x70
 538 470 486 433 320 314 c 1
 429 314 l 1x70
 436 335 450 346 469 346 c 0
 487 346 495 338 495 321 c 0
 495 316 495 310 493 303 c 2
 482 247 l 1xb0
 202 247 l 1
 216 315 l 1
 419.601 458.171 470 492.713 470 528 c 0
 470 552 448 570 414 570 c 0
 361 570 343 533 336 520 c 0
 329 508 314 500 301 500 c 0
 284 500 273 511 273 526 c 0
 273 556 334 637 429 637 c 0
 494 637 538 598 538 542 c 0x70
EndSplineSet
EndChar

StartChar: threesuperior
Encoding: 114 179 126
Width: 600
Flags: W
HStem: 238 399<363 386 336 437 437 437> 238 67<246.769 431.872> 570 67<353.728 471.355>
VStem: 218 326<286 551 185 286> 452 67<325.777 403.017> 475 69<497.894 563.499>
LayerCount: 2
Fore
SplineSet
347 443 m 0x48
 347 466 368 484 389 484 c 2
 414 484 l 2
 440 484 475 506 475 536 c 0
 475 557 454 570 420 570 c 0x64
 351 570 356 533 321 533 c 0
 305 533 295 545 295 560 c 0
 295 598 363 637 437 637 c 0
 501 637 544 602 544 551 c 0x90
 544 480 473 448 473 448 c 1
 503 431 519 405 519 375 c 0x88
 519 337 491 291 453 266 c 0
 423 247 386 238 336 238 c 0
 263 238 218 256 218 286 c 0x90
 218 305 237 326 259 326 c 0
 287 326 266 305 348 305 c 0
 432 305 452 341 452 365 c 0
 452 383 439 400 418 411 c 0
 391 423 347 409 347 443 c 0x48
EndSplineSet
EndChar

StartChar: acute
Encoding: 115 180 127
Width: 600
Flags: W
HStem: 496 200<392 586 586 586>
VStem: 362 254
LayerCount: 2
Fore
SplineSet
616 668 m 0
 616 650 606 639 585 624 c 2
 428 512 l 2
 410 500 402 496 392 496 c 0
 374 496 362 509 362 525 c 0
 362 534 365 549 394 569 c 2
 551 680 l 2
 569 693 575 696 586 696 c 0
 604 696 616 684 616 668 c 0
EndSplineSet
EndChar

StartChar: paragraph
Encoding: 117 182 128
Width: 600
Flags: W
HStem: -174 78<140.264 250 448 521.494> 185 81<262.32 317.654> 505 78<455 499 575 664.799>
VStem: 123 114<299.068 350.5 347.5 353.5 353.5 377.1>
LayerCount: 2
Fore
SplineSet
673 553 m 0
 673 534 662 505 609 505 c 2
 575 505 l 1
 448 -96 l 1
 484 -96 l 2
 516 -96 530 -105 530 -124 c 0
 530 -144 520 -174 467 -174 c 2
 374 -174 l 2
 353 -174 345 -165 341 -140 c 1
 324 -168 315 -174 291 -174 c 2
 154 -174 l 2
 123 -174 108 -164 108 -144 c 0
 108 -124 124 -108 135 -102 c 0
 144 -97 150 -96 171 -96 c 2
 250 -96 l 1
 309 185 l 1
 196 197 123 257 123 334 c 0
 123 343 124 352 126 361 c 2
 136 407 l 2
 156 504 287 583 429 583 c 2
 626 583 l 2
 658 583 673 573 673 553 c 0
327 266 m 1
 376 500 l 1
 306 486 258 450 248 405 c 2
 239 361 l 2
 238 356 237 351 237 346 c 0
 237 308 270 278 327 266 c 1
499 505 m 1
 455 505 l 1
 328 -96 l 1
 339 -102 343 -108 345 -124 c 1
 352 -109 359 -102 372 -96 c 1
 499 505 l 1
EndSplineSet
EndChar

StartChar: periodcentered
Encoding: 118 183 129
Width: 600
Flags: W
HStem: 214 132<311.964 336 336 408.33>
VStem: 283 153<242.514 317.873>
LayerCount: 2
Fore
SplineSet
436 293 m 0
 436 256 401 214 354 214 c 2
 336 214 l 2
 305 214 283 236 283 266 c 0
 283 309 325 346 365 346 c 2
 383 346 l 2
 415 346 436 324 436 293 c 0
EndSplineSet
EndChar

StartChar: cedilla
Encoding: 119 184 130
Width: 600
Flags: W
HStem: -229 70<207.403 307.61> -100 100<262 309.252>
VStem: 310 72<-148.059 -103.396>
LayerCount: 2
Fore
SplineSet
382 -105 m 0
 382 -171 328 -229 251 -229 c 0
 215 -229 144 -211 144 -173 c 0
 144 -149 168 -131 187 -131 c 0
 208 -131 227 -159 267 -159 c 0
 301 -159 310 -140 310 -128 c 0
 310 -111 294 -100 263 -100 c 0
 258 -100 254 -100 240 -102 c 1
 262 0 l 1
 332 0 l 1
 323 -41 l 1
 363 -50 382 -71 382 -105 c 0
EndSplineSet
EndChar

StartChar: onesuperior
Encoding: 120 185 131
Width: 600
Flags: W
HStem: 247 391<455.588 458 458 470 444 470 470 470> 247 67<229.8 334 401 489.674>
VStem: 225 270<253.317 289.567>
LayerCount: 2
Fore
SplineSet
225 273 m 0x60
 225 287 232 314 277 314 c 2
 334 314 l 1x60
 384 551 l 1
 334 539 l 2
 322 536 319 535 313 535 c 0
 298 535 288 547 288 562 c 0
 288 596 323 602 330 604 c 2
 470 638 l 1xa0
 401 314 l 1
 458 314 l 2x60
 483 314 495 306 495 289 c 0
 495 272 485 247 444 247 c 2xa0
 263 247 l 2
 239 247 225 256 225 273 c 0x60
EndSplineSet
EndChar

StartChar: ordmasculine
Encoding: 121 186 132
Width: 600
Flags: W
HStem: 182 77<199.157 519.71> 273 78<320.75 440.087> 517 78<348.75 464.579>
VStem: 219 81<370.464 468.743> 485 81<394.169 496.824>
LayerCount: 2
Fore
SplineSet
219 400 m 0
 219 499 323 595 427 595 c 0
 510 595 566 539 566 463 c 0
 566 351 454 273 359 273 c 0
 276 273 219 327 219 400 c 0
376 351 m 0
 423 351 485 390 485 447 c 0
 485 486 454 517 411 517 c 0
 350 517 300 460 300 417 c 0
 300 381 333 351 376 351 c 0
528 232 m 0
 528 218 523 182 467 182 c 2
 213 182 l 2
 183 182 168 192 168 211 c 0
 168 228 179 245 194 253 c 0
 203 258 208 259 229 259 c 2
 483 259 l 2
 514 259 528 250 528 232 c 0
EndSplineSet
EndChar

StartChar: guillemotright
Encoding: 122 187 133
Width: 600
Flags: W
HStem: 20 395<299 384 384 384>
LayerCount: 2
Fore
SplineSet
476 217 m 1
 355 358 l 2
 348 366 345 374 345 381 c 0
 345 401 368 415 384 415 c 0
 393 415 398 413 409 402 c 2
 617 217 l 1
 331 33 l 2
 315 22 309 20 299 20 c 0
 284 20 273 31 273 44 c 0
 273 56 281 67 295 77 c 2
 476 217 l 1
246 217 m 1
 125 358 l 2
 118 366 115 374 115 381 c 0
 115 401 138 415 154 415 c 0
 163 415 168 413 179 402 c 2
 387 217 l 1
 101 33 l 2
 85 22 79 20 69 20 c 0
 54 20 43 31 43 44 c 0
 43 56 51 67 65 77 c 2
 246 217 l 1
EndSplineSet
EndChar

StartChar: onequarter
Encoding: 123 188 134
Width: 600
Flags: W
HStem: 0 67<473.601 539 606 631.357> 83 67<478 543 624 649.631> 247 67<29.8004 134 201 289.674> 567 20G<567.5 582.5> 618 20G<187.647 265.741>
LayerCount: 2
Fore
SplineSet
25 273 m 0
 25 287 32 314 77 314 c 2
 134 314 l 1
 184 551 l 1
 134 539 l 2
 122 536 119 535 113 535 c 0
 98 535 88 547 88 562 c 0
 88 596 123 602 130 604 c 2
 270 638 l 1
 201 314 l 1
 258 314 l 2
 283 314 295 306 295 289 c 0
 295 272 285 247 244 247 c 2
 63 247 l 2
 39 247 25 256 25 273 c 0
585 528 m 2
 229 77 l 2
 214 58 204 51 190 51 c 0
 174 51 162 63 162 78 c 0
 162 91 172 102 178 110 c 2
 534 561 l 2
 550 581 560 587 575 587 c 0
 590 587 602 574 602 560 c 0
 602 553 601 547 585 528 c 2
469 26 m 0
 469 43 478 67 520 67 c 2
 539 67 l 1
 543 83 l 1
 380 83 l 1
 391 138 l 1
 589 380 l 1
 673 380 l 1
 624 150 l 1
 644 149 655 140 655 125 c 0
 655 112 647 85 610 83 c 1
 606 67 l 1
 626 66 637 57 637 42 c 0
 637 25 626 0 585 0 c 2
 506 0 l 2
 482 0 469 9 469 26 c 0
557 150 m 1
 584 279 l 1
 478 150 l 1
 557 150 l 1
EndSplineSet
Ligature2: "'frac' Diagonal Fractions lookup 1 subtable" one slash four
Ligature2: "'frac' Diagonal Fractions lookup 1 subtable" one fraction four
EndChar

StartChar: onehalf
Encoding: 124 189 135
Width: 600
Flags: W
HStem: 0 99<581.034 629> 0 67<467 576> 247 67<29.8004 134 201 289.674> 323 67<505.307 610.997> 567 20G<567.5 582.5> 618 20G<187.647 265.741>
VStem: 617 68<241.381 314.201>
LayerCount: 2
Fore
SplineSet
25 273 m 0x3e
 25 287 32 314 77 314 c 2
 134 314 l 1
 184 551 l 1
 134 539 l 2
 122 536 119 535 113 535 c 0
 98 535 88 547 88 562 c 0
 88 596 123 602 130 604 c 2
 270 638 l 1
 201 314 l 1
 258 314 l 2
 283 314 295 306 295 289 c 0
 295 272 285 247 244 247 c 2
 63 247 l 2
 39 247 25 256 25 273 c 0x3e
585 528 m 2
 229 77 l 2
 214 58 204 51 190 51 c 0
 174 51 162 63 162 78 c 0
 162 91 172 102 178 110 c 2
 534 561 l 2
 550 581 560 587 575 587 c 0
 590 587 602 574 602 560 c 0
 602 553 601 547 585 528 c 2
685 296 m 0
 685 221 632 184 467 67 c 1
 576 67 l 1x7e
 584 88 597 99 616 99 c 0
 634 99 643 90 643 72 c 0
 643 68 642 62 641 56 c 2
 629 0 l 1xbe
 349 0 l 1x7e
 363 68 l 1
 576 218 617 247 617 282 c 0
 617 305 595 323 562 323 c 0
 504 323 486 278 483 273 c 0
 476 261 462 253 449 253 c 0
 432 253 421 264 421 279 c 0
 421 313 484 390 577 390 c 0
 642 390 685 351 685 296 c 0
EndSplineSet
Ligature2: "'frac' Diagonal Fractions lookup 1 subtable" one slash two
Ligature2: "'frac' Diagonal Fractions lookup 1 subtable" one fraction two
EndChar

StartChar: threequarters
Encoding: 125 190 136
Width: 600
Flags: W
HStem: 0 67<474.115 540 607 632.357> 83 67<478 544 625 650.631> 238 67<46.7694 231.872> 570 67<153.728 271.355>
VStem: 252 67<325.777 403.017> 275 69<497.894 563.499>
LayerCount: 2
Fore
SplineSet
147 443 m 0xf8
 147 466 168 484 189 484 c 2
 214 484 l 2
 240 484 275 506 275 536 c 0
 275 557 254 570 220 570 c 0
 151 570 156 533 121 533 c 0
 105 533 95 545 95 560 c 0
 95 598 163 637 237 637 c 0
 301 637 344 602 344 551 c 0xf4
 344 480 273 448 273 448 c 1
 303 431 319 405 319 375 c 0
 319 337 291 291 253 266 c 0
 223 247 186 238 136 238 c 0
 63 238 18 256 18 286 c 0
 18 305 37 326 59 326 c 0
 87 326 66 305 148 305 c 0
 232 305 252 341 252 365 c 0
 252 383 239 400 218 411 c 0
 191 423 147 409 147 443 c 0xf8
586 528 m 2
 229 77 l 2
 214 58 204 51 190 51 c 0
 174 51 162 63 162 78 c 0
 162 91 169 99 178 110 c 2
 535 561 l 2
 550 581 560 587 575 587 c 0
 590 587 602 574 602 560 c 0
 602 551 597 541 586 528 c 2
469 27 m 0
 469 41 478 67 521 67 c 2
 540 67 l 1
 544 83 l 1
 380 83 l 1
 391 138 l 1
 590 380 l 1
 674 380 l 1
 625 150 l 1
 645 149 656 140 656 125 c 0
 656 112 648 85 611 83 c 1
 607 67 l 1
 627 66 638 57 638 42 c 0
 638 25 627 0 586 0 c 2
 507 0 l 2
 482 0 469 9 469 27 c 0
558 150 m 1
 585 279 l 1
 478 150 l 1
 558 150 l 1
EndSplineSet
Ligature2: "'frac' Diagonal Fractions lookup 1 subtable" three slash four
Ligature2: "'frac' Diagonal Fractions lookup 1 subtable" three fraction four
EndChar

StartChar: questiondown
Encoding: 126 191 137
Width: 600
Flags: W
HStem: -227 100<192.421 335.457> 254 132<316.641 343 343 413.754>
VStem: 70 411<-67 -36 -81 -60 -81 -81> 70 102<-105.204 -7.68148> 289 154<282.897 357.336>
LayerCount: 2
Fore
SplineSet
441 -23 m 0xd0
 460 -23 481 -36 481 -60 c 0
 481 -67 480 -76 477 -89 c 2
 460 -168 l 1
 353 -215 308 -227 244 -227 c 0
 136 -227 70 -169 70 -81 c 0xe0
 70 54 183 105 277 143 c 1
 289 179 310 197 339 197 c 0
 361 197 379 182 379 160 c 0
 379 153 378 144 375 131 c 2
 363 75 l 1
 216 23 172 -5 172 -60 c 0
 172 -101 208 -127 264 -127 c 0
 302 -127 338 -119 374 -103 c 1
 377 -89 l 2
 383 -62 387 -54 396 -44 c 0
 408 -31 426 -23 441 -23 c 0xd0
289 306 m 0xc8
 289 344 324 386 371 386 c 2
 388 386 l 2
 420 386 443 363 443 334 c 0
 443 289 398 254 360 254 c 2
 343 254 l 2
 311 254 289 276 289 306 c 0xc8
EndSplineSet
EndChar

StartChar: Agrave
Encoding: 127 192 138
Width: 600
Flags: W
HStem: 0 100<30.5781 67 176 212.368 401.281 460 574 589.368> 158 100<273 430> 483 100<224.875 304>
LayerCount: 2
Fore
SplineSet
241 483 m 2
 219 483 183 483 183 524 c 0
 183 543 197 564 217 576 c 0
 228 582 235 583 262 583 c 2
 478 583 l 1
 574 100 l 1
 602 100 611 98 619 90 c 0
 628 83 633 72 633 59 c 0
 633 40 618 17 598 7 c 0
 589 2 576 0 555 0 c 2
 416 0 l 2
 399 0 360 0 360 39 c 0
 360 50 365 77 394 93 c 0
 404 99 411 100 437 100 c 2
 460 100 l 1
 450 158 l 1
 212 158 l 1
 176 100 l 1
 199 100 l 2
 226 100 234 98 242 91 c 0
 251 83 256 72 256 59 c 0
 256 40 241 17 221 7 c 0
 212 2 199 0 178 0 c 2
 45 0 l 2
 7 0 -11 13 -11 37 c 0
 -11 48 -7 77 23 93 c 0
 33 99 42 100 67 100 c 1
 304 483 l 1
 241 483 l 2
430 258 m 1
 393 450 l 1
 273 258 l 1
 430 258 l 1
311 795 m 0
 311 816 330 839 356 839 c 0
 366 839 373 835 385 824 c 2
 494 712 l 2
 506 701 510 692 510 682 c 0
 510 657 483 640 465 640 c 0
 456 640 447 645 436 656 c 2
 327 767 l 2
 316 778 311 786 311 795 c 0
EndSplineSet
EndChar

StartChar: Aacute
Encoding: 128 193 139
Width: 600
Flags: W
HStem: 0 100<30.5781 67 176 212.368 401.281 460 574 589.368> 158 100<273 430> 483 100<224.875 304>
LayerCount: 2
Fore
SplineSet
241 483 m 2
 219 483 183 483 183 524 c 0
 183 543 197 564 217 576 c 0
 228 582 235 583 262 583 c 2
 478 583 l 1
 574 100 l 1
 602 100 611 98 619 90 c 0
 628 83 633 72 633 59 c 0
 633 40 618 17 598 7 c 0
 589 2 576 0 555 0 c 2
 416 0 l 2
 399 0 360 0 360 39 c 0
 360 50 365 77 394 93 c 0
 404 99 411 100 437 100 c 2
 460 100 l 1
 450 158 l 1
 212 158 l 1
 176 100 l 1
 199 100 l 2
 226 100 234 98 242 91 c 0
 251 83 256 72 256 59 c 0
 256 40 241 17 221 7 c 0
 212 2 199 0 178 0 c 2
 45 0 l 2
 7 0 -11 13 -11 37 c 0
 -11 48 -7 77 23 93 c 0
 33 99 42 100 67 100 c 1
 304 483 l 1
 241 483 l 2
430 258 m 1
 393 450 l 1
 273 258 l 1
 430 258 l 1
605 810 m 0
 605 793 593 780 573 767 c 2
 416 656 l 2
 401 645 390 640 381 640 c 0
 363 640 351 653 351 669 c 0
 351 684 361 698 382 712 c 2
 539 824 l 2
 555 835 564 839 574 839 c 0
 592 839 605 827 605 810 c 0
EndSplineSet
EndChar

StartChar: Acircumflex
Encoding: 129 194 140
Width: 600
Flags: W
HStem: 0 100<30.5781 67 176 212.368 401.281 460 574 589.368> 158 100<273 430> 483 100<224.875 304>
LayerCount: 2
Fore
SplineSet
241 483 m 2
 219 483 183 483 183 524 c 0
 183 543 197 564 217 576 c 0
 228 582 235 583 262 583 c 2
 478 583 l 1
 574 100 l 1
 602 100 611 98 619 90 c 0
 628 83 633 72 633 59 c 0
 633 40 618 17 598 7 c 0
 589 2 576 0 555 0 c 2
 416 0 l 2
 399 0 360 0 360 39 c 0
 360 50 365 77 394 93 c 0
 404 99 411 100 437 100 c 2
 460 100 l 1
 450 158 l 1
 212 158 l 1
 176 100 l 1
 199 100 l 2
 226 100 234 98 242 91 c 0
 251 83 256 72 256 59 c 0
 256 40 241 17 221 7 c 0
 212 2 199 0 178 0 c 2
 45 0 l 2
 7 0 -11 13 -11 37 c 0
 -11 48 -7 77 23 93 c 0
 33 99 42 100 67 100 c 1
 304 483 l 1
 241 483 l 2
430 258 m 1
 393 450 l 1
 273 258 l 1
 430 258 l 1
603 682 m 0
 603 658 579 640 561 640 c 0
 551 640 544 644 535 653 c 2
 443 750 l 1
 310 653 l 2
 296 643 288 640 279 640 c 0
 262 640 251 654 251 669 c 0
 251 687 260 694 283 711 c 2
 462 839 l 1
 586 711 l 2
 593 703 603 695 603 682 c 0
EndSplineSet
EndChar

StartChar: Atilde
Encoding: 130 195 141
Width: 600
Flags: W
HStem: 0 100<30.5781 67 176 212.368 401.281 460 574 589.368> 158 100<273 430> 483 100<224.875 304> 667 69<466.878 549.684> 670 129<271 378 501 606> 730 69<324.917 411.886>
LayerCount: 2
Fore
SplineSet
241 483 m 2xe0
 219 483 183 483 183 524 c 0
 183 543 197 564 217 576 c 0
 228 582 235 583 262 583 c 2
 478 583 l 1
 574 100 l 1
 602 100 611 98 619 90 c 0
 628 83 633 72 633 59 c 0
 633 40 618 17 598 7 c 0
 589 2 576 0 555 0 c 2
 416 0 l 2
 399 0 360 0 360 39 c 0
 360 50 365 77 394 93 c 0
 404 99 411 100 437 100 c 2
 460 100 l 1
 450 158 l 1
 212 158 l 1
 176 100 l 1
 199 100 l 2
 226 100 234 98 242 91 c 0
 251 83 256 72 256 59 c 0
 256 40 241 17 221 7 c 0
 212 2 199 0 178 0 c 2
 45 0 l 2
 7 0 -11 13 -11 37 c 0
 -11 48 -7 77 23 93 c 0
 33 99 42 100 67 100 c 1
 304 483 l 1
 241 483 l 2xe0
430 258 m 1
 393 450 l 1
 273 258 l 1
 430 258 l 1
512 736 m 0xf0
 548 736 571 799 606 799 c 0xe8
 621 799 632 788 632 775 c 0
 632 751 593 717 591 715 c 0
 557 681 530 667 501 667 c 0xf0
 448 667 401 730 365 730 c 0xe4
 325 730 305 670 271 670 c 0
 256 670 246 680 246 693 c 0
 246 724 317 799 378 799 c 0xe8
 431 799 478 736 512 736 c 0xf0
EndSplineSet
EndChar

StartChar: Adieresis
Encoding: 131 196 142
Width: 600
Flags: W
HStem: 0 100<30.5781 67 176 212.368 401.281 460 574 589.368> 158 100<273 430> 483 100<224.875 304> 678 120<299.017 373.875 507.017 581.875>
VStem: 275 122<701.142 774.555> 483 122<701.142 774.555>
LayerCount: 2
Fore
SplineSet
241 483 m 2
 219 483 183 483 183 524 c 0
 183 543 197 564 217 576 c 0
 228 582 235 583 262 583 c 2
 478 583 l 1
 574 100 l 1
 602 100 611 98 619 90 c 0
 628 83 633 72 633 59 c 0
 633 40 618 17 598 7 c 0
 589 2 576 0 555 0 c 2
 416 0 l 2
 399 0 360 0 360 39 c 0
 360 50 365 77 394 93 c 0
 404 99 411 100 437 100 c 2
 460 100 l 1
 450 158 l 1
 212 158 l 1
 176 100 l 1
 199 100 l 2
 226 100 234 98 242 91 c 0
 251 83 256 72 256 59 c 0
 256 40 241 17 221 7 c 0
 212 2 199 0 178 0 c 2
 45 0 l 2
 7 0 -11 13 -11 37 c 0
 -11 48 -7 77 23 93 c 0
 33 99 42 100 67 100 c 1
 304 483 l 1
 241 483 l 2
430 258 m 1
 393 450 l 1
 273 258 l 1
 430 258 l 1
275 725 m 0
 275 767 316 798 349 798 c 0
 378 798 397 778 397 750 c 0
 397 712 360 678 323 678 c 0
 294 678 275 698 275 725 c 0
483 725 m 0
 483 767 524 798 557 798 c 0
 586 798 605 778 605 750 c 0
 605 712 568 678 531 678 c 0
 502 678 483 698 483 725 c 0
EndSplineSet
EndChar

StartChar: Aring
Encoding: 132 197 143
Width: 600
Flags: W
HStem: 0 100<30.5781 67 176 212.368 401.281 460 574 589.368> 158 100<273 430> 483 100<224.875 304> 630 54<382.992 482.645> 818 53<401.501 502.008>
VStem: 317 55<695.006 788.7> 513 55<713.481 806.494>
LayerCount: 2
Fore
SplineSet
241 483 m 2
 219 483 183 483 183 524 c 0
 183 543 197 564 217 576 c 0
 228 582 235 583 262 583 c 2
 478 583 l 1
 574 100 l 1
 602 100 611 98 619 90 c 0
 628 83 633 72 633 59 c 0
 633 40 618 17 598 7 c 0
 589 2 576 0 555 0 c 2
 416 0 l 2
 399 0 360 0 360 39 c 0
 360 50 365 77 394 93 c 0
 404 99 411 100 437 100 c 2
 460 100 l 1
 450 158 l 1
 212 158 l 1
 176 100 l 1
 199 100 l 2
 226 100 234 98 242 91 c 0
 251 83 256 72 256 59 c 0
 256 40 241 17 221 7 c 0
 212 2 199 0 178 0 c 2
 45 0 l 2
 7 0 -11 13 -11 37 c 0
 -11 48 -7 77 23 93 c 0
 33 99 42 100 67 100 c 1
 304 483 l 1
 241 483 l 2
430 258 m 1
 393 450 l 1
 273 258 l 1
 430 258 l 1
317 727 m 0
 317 799 389 871 468 871 c 0
 527 871 568 829 568 774 c 0
 568 699 493 630 417 630 c 0
 358 630 317 672 317 727 c 0
428 684 m 0
 465 684 513 717 513 764 c 0
 513 794 490 818 457 818 c 0
 419 818 372 784 372 738 c 0
 372 708 395 684 428 684 c 0
EndSplineSet
EndChar

StartChar: AE
Encoding: 133 198 144
Width: 600
Flags: W
HStem: 0 100<31.5625 74 234.444 288 388 535> 483 100<241.859 271 470 596>
LayerCount: 2
Fore
SplineSet
211 66 m 0
 211 45 197 0 141 0 c 2
 46 0 l 2
 8 0 -10 13 -10 37 c 0
 -10 48 -6 77 24 93 c 0
 34 99 43 100 67 100 c 2
 74 100 l 1
 271 483 l 1
 257 483 l 2
 232 483 221 485 214 492 c 0
 205 500 200 512 200 524 c 0
 200 545 217 567 234 576 c 0
 245 582 252 583 278 583 c 2
 717 583 l 1
 682 418 l 2
 681 415 673 352 618 352 c 0
 599 352 578 364 578 389 c 0
 578 396 579 405 582 418 c 2
 596 483 l 1
 470 483 l 1
 440 342 l 1
 459 342 l 1
 468 377 490 397 520 397 c 0
 541 397 561 381 561 360 c 0
 561 354 559 345 556 331 c 2
 540 253 l 2
 534 226 530 218 521 208 c 0
 508 195 492 187 476 187 c 0
 451 187 436 202 436 227 c 0
 436 232 437 237 438 243 c 1
 419 243 l 1
 388 100 l 1
 535 100 l 1
 540 123 l 2
 545 148 550 158 559 168 c 0
 571 181 588 189 604 189 c 0
 623 189 644 176 644 153 c 0
 644 146 643 138 640 123 c 2
 614 0 l 1
 265 0 l 2
 236 0 219 15 219 39 c 0
 219 75 251 100 280 100 c 2
 288 100 l 1
 301 158 l 1
 208 158 l 1
 178 100 l 1
 199 97 211 84 211 66 c 0
322 259 m 1
 367 471 l 1
 258 259 l 1
 322 259 l 1
EndSplineSet
EndChar

StartChar: Ccedilla
Encoding: 134 199 145
Width: 600
Flags: W
HStem: -229 70<211.39 312.792> -14 100<334 459.324> 497 100<325.305 503.524>
VStem: 80 102<143.674 235.565 232.782 238.348 238.348 249 251 265.5> 315 72<-148.059 -103.243>
LayerCount: 2
Fore
SplineSet
387 -105 m 0
 387 -171 332 -229 258 -229 c 0
 220 -229 149 -213 149 -174 c 0
 149 -149 173 -131 192 -131 c 0
 214 -131 228 -159 272 -159 c 0
 306 -159 315 -140 315 -128 c 0
 315 -111 299 -100 271 -100 c 0
 267 -100 263 -100 245 -102 c 1
 265 -9 l 1
 209 3 177 16 146 43 c 0
 103 81 80 135 80 195 c 0
 80 212 82 231 86 249 c 2
 100 315 l 2
 134 475 277 597 432 597 c 0
 486 597 520 588 576 559 c 1
 593 577 606 583 623 583 c 0
 654 583 663 558 663 547 c 0
 663 540 662 532 659 517 c 2
 641 433 l 2
 640 429 632 367 577 367 c 0
 535 367 538 402 538 424 c 0
 538 476 464 497 415 497 c 0
 313 497 222 421 200 315 c 2
 186 251 l 2
 183 238 182 226 182 214 c 0
 182 135 243 86 347 86 c 0
 500 86 492 159 548 159 c 0
 571 159 588 142 588 119 c 0
 588 80 532 41 496 23 c 0
 451 1 404 -10 334 -14 c 1
 328 -42 l 1
 368 -50 387 -71 387 -105 c 0
EndSplineSet
EndChar

StartChar: Egrave
Encoding: 135 200 146
Width: 600
Flags: W
HStem: 0 100<64.5625 115 215 471> 243 99<267 331> 483 100<166.859 197 297 531>
VStem: 352 104<351.738 395.736>
LayerCount: 2
Fore
SplineSet
325 207 m 0
 325 221 330 238 331 243 c 1
 246 243 l 1
 215 100 l 1
 471 100 l 1
 482 152 l 2
 482 153 489 219 547 219 c 0
 568 219 587 203 587 181 c 0
 587 175 585 166 582 152 c 2
 550 0 l 1
 79 0 l 2
 60 0 23 1 23 39 c 0
 23 50 28 76 57 93 c 0
 67 99 76 100 100 100 c 2
 115 100 l 1
 197 483 l 1
 182 483 l 2
 157 483 146 485 139 492 c 0
 130 500 125 511 125 524 c 0
 125 545 142 566 159 576 c 0
 170 582 177 583 203 583 c 2
 652 583 l 1
 620 433 l 2
 614 405 610 397 601 387 c 0
 588 374 572 366 556 366 c 0
 537 366 516 379 516 403 c 0
 516 410 517 419 520 433 c 2
 531 483 l 1
 297 483 l 1
 267 342 l 1
 352 342 l 1
 362 411 403 416 416 416 c 0
 441 416 456 400 456 375 c 0
 456 366 454 359 452 349 c 2
 428 236 l 2
 423 210 419 200 410 191 c 0
 397 178 380 170 365 170 c 0
 345 170 325 183 325 207 c 0
312 795 m 0
 312 816 331 839 357 839 c 0
 367 839 374 835 386 824 c 2
 495 712 l 2
 507 701 511 692 511 682 c 0
 511 657 484 640 466 640 c 0
 457 640 448 645 437 656 c 2
 328 767 l 2
 317 778 312 786 312 795 c 0
EndSplineSet
EndChar

StartChar: Eacute
Encoding: 136 201 147
Width: 600
Flags: W
HStem: 0 100<64.5625 115 215 471> 243 99<267 331> 483 100<166.859 197 297 531>
VStem: 352 104<351.738 395.736>
LayerCount: 2
Fore
SplineSet
325 207 m 0
 325 221 330 238 331 243 c 1
 246 243 l 1
 215 100 l 1
 471 100 l 1
 482 152 l 2
 482 153 489 219 547 219 c 0
 568 219 587 203 587 181 c 0
 587 175 585 166 582 152 c 2
 550 0 l 1
 79 0 l 2
 60 0 23 1 23 39 c 0
 23 50 28 76 57 93 c 0
 67 99 76 100 100 100 c 2
 115 100 l 1
 197 483 l 1
 182 483 l 2
 157 483 146 485 139 492 c 0
 130 500 125 511 125 524 c 0
 125 545 142 566 159 576 c 0
 170 582 177 583 203 583 c 2
 652 583 l 1
 620 433 l 2
 614 405 610 397 601 387 c 0
 588 374 572 366 556 366 c 0
 537 366 516 379 516 403 c 0
 516 410 517 419 520 433 c 2
 531 483 l 1
 297 483 l 1
 267 342 l 1
 352 342 l 1
 362 411 403 416 416 416 c 0
 441 416 456 400 456 375 c 0
 456 366 454 359 452 349 c 2
 428 236 l 2
 423 210 419 200 410 191 c 0
 397 178 380 170 365 170 c 0
 345 170 325 183 325 207 c 0
612 810 m 0
 612 793 600 780 580 767 c 2
 423 656 l 2
 408 645 397 640 388 640 c 0
 370 640 358 653 358 669 c 0
 358 684 368 698 389 712 c 2
 546 824 l 2
 562 835 571 839 581 839 c 0
 599 839 612 827 612 810 c 0
EndSplineSet
EndChar

StartChar: Ecircumflex
Encoding: 137 202 148
Width: 600
Flags: W
HStem: 0 100<64.5625 115 215 471> 243 99<267 331> 483 100<166.859 197 297 531>
VStem: 352 104<351.738 395.736>
LayerCount: 2
Fore
SplineSet
325 207 m 0
 325 221 330 238 331 243 c 1
 246 243 l 1
 215 100 l 1
 471 100 l 1
 482 152 l 2
 482 153 489 219 547 219 c 0
 568 219 587 203 587 181 c 0
 587 175 585 166 582 152 c 2
 550 0 l 1
 79 0 l 2
 60 0 23 1 23 39 c 0
 23 50 28 76 57 93 c 0
 67 99 76 100 100 100 c 2
 115 100 l 1
 197 483 l 1
 182 483 l 2
 157 483 146 485 139 492 c 0
 130 500 125 511 125 524 c 0
 125 545 142 566 159 576 c 0
 170 582 177 583 203 583 c 2
 652 583 l 1
 620 433 l 2
 614 405 610 397 601 387 c 0
 588 374 572 366 556 366 c 0
 537 366 516 379 516 403 c 0
 516 410 517 419 520 433 c 2
 531 483 l 1
 297 483 l 1
 267 342 l 1
 352 342 l 1
 362 411 403 416 416 416 c 0
 441 416 456 400 456 375 c 0
 456 366 454 359 452 349 c 2
 428 236 l 2
 423 210 419 200 410 191 c 0
 397 178 380 170 365 170 c 0
 345 170 325 183 325 207 c 0
611 682 m 0
 611 658 587 640 569 640 c 0
 559 640 552 644 543 653 c 2
 451 750 l 1
 318 653 l 2
 304 643 296 640 287 640 c 0
 270 640 259 654 259 669 c 0
 259 687 268 694 291 711 c 2
 470 839 l 1
 594 711 l 2
 601 703 611 695 611 682 c 0
EndSplineSet
EndChar

StartChar: Edieresis
Encoding: 138 203 149
Width: 600
Flags: W
HStem: 0 100<64.5625 115 215 471> 243 99<267 331> 483 100<166.859 197 297 531> 678 120<307.017 381.875 515.017 589.875>
VStem: 283 122<701.142 774.555> 352 104<351.738 395.736> 491 122<701.142 774.555>
LayerCount: 2
Fore
SplineSet
325 207 m 0xf6
 325 221 330 238 331 243 c 1
 246 243 l 1
 215 100 l 1
 471 100 l 1
 482 152 l 2
 482 153 489 219 547 219 c 0
 568 219 587 203 587 181 c 0
 587 175 585 166 582 152 c 2
 550 0 l 1
 79 0 l 2
 60 0 23 1 23 39 c 0
 23 50 28 76 57 93 c 0
 67 99 76 100 100 100 c 2
 115 100 l 1
 197 483 l 1
 182 483 l 2
 157 483 146 485 139 492 c 0
 130 500 125 511 125 524 c 0
 125 545 142 566 159 576 c 0
 170 582 177 583 203 583 c 2
 652 583 l 1
 620 433 l 2
 614 405 610 397 601 387 c 0
 588 374 572 366 556 366 c 0
 537 366 516 379 516 403 c 0
 516 410 517 419 520 433 c 2
 531 483 l 1
 297 483 l 1
 267 342 l 1
 352 342 l 1
 362 411 403 416 416 416 c 0
 441 416 456 400 456 375 c 0
 456 366 454 359 452 349 c 2
 428 236 l 2
 423 210 419 200 410 191 c 0
 397 178 380 170 365 170 c 0
 345 170 325 183 325 207 c 0xf6
283 725 m 0xfa
 283 767 324 798 357 798 c 0
 386 798 405 778 405 750 c 0
 405 712 368 678 331 678 c 0
 302 678 283 698 283 725 c 0xfa
491 725 m 0
 491 767 532 798 565 798 c 0
 594 798 613 778 613 750 c 0
 613 712 576 678 539 678 c 0
 510 678 491 698 491 725 c 0
EndSplineSet
EndChar

StartChar: Igrave
Encoding: 139 204 150
Width: 600
Flags: W
HStem: 0 100<134.281 271 371 513.25> 483 100<236.859 353 453 588.709>
LayerCount: 2
Fore
SplineSet
575 583 m 2
 594 583 632 584 632 545 c 0
 632 534 627 506 597 490 c 0
 588 485 577 483 554 483 c 2
 453 483 l 1
 371 100 l 1
 472 100 l 2
 499 100 507 98 515 91 c 0
 524 83 529 72 529 60 c 0
 529 36 513 0 451 0 c 2
 149 0 l 2
 124 0 93 3 93 40 c 0
 93 61 107 83 127 93 c 0
 137 99 144 100 170 100 c 2
 271 100 l 1
 353 483 l 1
 252 483 l 2
 227 483 216 485 209 492 c 0
 200 500 195 511 195 524 c 0
 195 545 212 566 229 576 c 0
 240 582 247 583 273 583 c 2
 575 583 l 2
321 795 m 0
 321 816 340 839 366 839 c 0
 376 839 383 835 395 824 c 2
 504 712 l 2
 516 701 520 692 520 682 c 0
 520 657 493 640 475 640 c 0
 466 640 457 645 446 656 c 2
 337 767 l 2
 326 778 321 786 321 795 c 0
EndSplineSet
EndChar

StartChar: Iacute
Encoding: 140 205 151
Width: 600
Flags: W
HStem: 0 100<134.281 271 371 513.25> 483 100<236.859 353 453 588.709>
LayerCount: 2
Fore
SplineSet
575 583 m 2
 594 583 632 584 632 545 c 0
 632 534 627 506 597 490 c 0
 588 485 577 483 554 483 c 2
 453 483 l 1
 371 100 l 1
 472 100 l 2
 499 100 507 98 515 91 c 0
 524 83 529 72 529 60 c 0
 529 36 513 0 451 0 c 2
 149 0 l 2
 124 0 93 3 93 40 c 0
 93 61 107 83 127 93 c 0
 137 99 144 100 170 100 c 2
 271 100 l 1
 353 483 l 1
 252 483 l 2
 227 483 216 485 209 492 c 0
 200 500 195 511 195 524 c 0
 195 545 212 566 229 576 c 0
 240 582 247 583 273 583 c 2
 575 583 l 2
647 810 m 0
 647 793 635 780 615 767 c 2
 458 656 l 2
 443 645 432 640 423 640 c 0
 405 640 393 653 393 669 c 0
 393 684 403 698 424 712 c 2
 581 824 l 2
 597 835 606 839 616 839 c 0
 634 839 647 827 647 810 c 0
EndSplineSet
EndChar

StartChar: Icircumflex
Encoding: 141 206 152
Width: 600
Flags: W
HStem: 0 100<134.281 271 371 513.25> 483 100<236.859 353 453 588.709>
LayerCount: 2
Fore
SplineSet
575 583 m 2
 594 583 632 584 632 545 c 0
 632 534 627 506 597 490 c 0
 588 485 577 483 554 483 c 2
 453 483 l 1
 371 100 l 1
 472 100 l 2
 499 100 507 98 515 91 c 0
 524 83 529 72 529 60 c 0
 529 36 513 0 451 0 c 2
 149 0 l 2
 124 0 93 3 93 40 c 0
 93 61 107 83 127 93 c 0
 137 99 144 100 170 100 c 2
 271 100 l 1
 353 483 l 1
 252 483 l 2
 227 483 216 485 209 492 c 0
 200 500 195 511 195 524 c 0
 195 545 212 566 229 576 c 0
 240 582 247 583 273 583 c 2
 575 583 l 2
619 682 m 0
 619 658 595 640 577 640 c 0
 567 640 560 644 551 653 c 2
 459 750 l 1
 326 653 l 2
 312 643 304 640 295 640 c 0
 278 640 267 654 267 669 c 0
 267 687 276 694 299 711 c 2
 478 839 l 1
 602 711 l 2
 609 703 619 695 619 682 c 0
EndSplineSet
EndChar

StartChar: Idieresis
Encoding: 142 207 153
Width: 600
Flags: W
HStem: 0 100<134.281 271 371 513.25> 483 100<236.859 353 453 588.709> 678 120<316.017 390.875 524.017 598.875>
VStem: 292 122<701.142 774.555> 500 122<701.142 774.555>
LayerCount: 2
Fore
SplineSet
575 583 m 2
 594 583 632 584 632 545 c 0
 632 534 627 506 597 490 c 0
 588 485 577 483 554 483 c 2
 453 483 l 1
 371 100 l 1
 472 100 l 2
 499 100 507 98 515 91 c 0
 524 83 529 72 529 60 c 0
 529 36 513 0 451 0 c 2
 149 0 l 2
 124 0 93 3 93 40 c 0
 93 61 107 83 127 93 c 0
 137 99 144 100 170 100 c 2
 271 100 l 1
 353 483 l 1
 252 483 l 2
 227 483 216 485 209 492 c 0
 200 500 195 511 195 524 c 0
 195 545 212 566 229 576 c 0
 240 582 247 583 273 583 c 2
 575 583 l 2
292 725 m 0
 292 767 333 798 366 798 c 0
 395 798 414 778 414 750 c 0
 414 712 377 678 340 678 c 0
 311 678 292 698 292 725 c 0
500 725 m 0
 500 767 541 798 574 798 c 0
 603 798 622 778 622 750 c 0
 622 712 585 678 548 678 c 0
 519 678 500 698 500 725 c 0
EndSplineSet
EndChar

StartChar: Eth
Encoding: 143 208 154
Width: 600
Flags: W
HStem: 0 100<38.375 95 195 406.578> 243 100<102.875 126 247 342.639> 483 100<166.875 177 277 466.021>
VStem: 515 100<290.9 305 307 321.438 321.438 346.496 333.967 430.659>
LayerCount: 2
Fore
SplineSet
23 40 m 0
 23 63 40 100 95 100 c 1
 126 243 l 1
 118 243 l 2
 98 243 61 244 61 284 c 0
 61 305 78 326 95 336 c 0
 106 342 113 343 140 343 c 2
 147 343 l 1
 177 483 l 1
 143 483 125 496 125 521 c 0
 125 547 144 568 159 576 c 0
 170 582 177 583 204 583 c 2
 416 583 l 2
 541 583 622 494 622 370 c 0
 622 349 620 328 615 305 c 2
 605 258 l 2
 589 185 552 123 496 75 c 0
 436 23 371 0 284 0 c 2
 79 0 l 2
 52 0 23 5 23 40 c 0
378 305 m 0
 378 287 369 243 300 243 c 2
 226 243 l 1
 195 100 l 1
 306 100 l 2
 366 100 402 112 440 144 c 0
 474 175 495 210 505 261 c 2
 515 307 l 2
 518 322 520 336 520 350 c 0
 520 408 493 483 387 483 c 2
 277 483 l 1
 247 343 l 1
 321 343 l 2
 340 343 378 344 378 305 c 0
EndSplineSet
EndChar

StartChar: Ntilde
Encoding: 144 209 155
Width: 600
Flags: W
HStem: 0 100<37.0719 94 194 241.379> 483 100<145.859 176 483.859 534 634 690.442> 667 69<482.838 565.756> 730 69<339.933 428.984>
LayerCount: 2
Fore
SplineSet
706 544 m 0xc0
 706 525 694 483 634 483 c 1
 531 0 l 1
 432 0 l 1
 257 394 l 1
 194 100 l 1
 229 100 l 2
 253 100 286 100 286 60 c 0
 286 40 272 19 251 7 c 0
 244 3 228 0 208 0 c 2
 79 0 l 2
 51 0 22 5 22 39 c 0
 22 59 35 100 94 100 c 1
 176 483 l 1
 161 483 l 2
 136 483 125 485 118 492 c 0
 109 500 104 511 104 524 c 0
 104 545 121 566 138 576 c 0
 149 582 156 583 182 583 c 2
 297 583 l 1
 472 191 l 1
 534 483 l 1
 499 483 l 2
 474 483 463 485 456 492 c 0
 447 500 442 511 442 524 c 0
 442 545 459 566 476 576 c 0
 487 582 494 583 520 583 c 2
 650 583 l 2
 677 583 684 581 693 574 c 0
 701 566 706 556 706 544 c 0xc0
528 736 m 0xe0
 564 736 583 796 621 799 c 1xd0
 638 797 648 788 648 776 c 0
 648 751 609 717 607 715 c 0
 573 681 546 667 517 667 c 0xe0
 463 667 419 730 381 730 c 0
 340 730 320 670 287 670 c 0
 272 670 262 680 262 693 c 0
 262 724 331 799 393 799 c 0xd0
 446 799 495 736 528 736 c 0xe0
EndSplineSet
EndChar

StartChar: Ograve
Encoding: 145 210 156
Width: 600
Flags: W
HStem: -14 100<244.642 400.049> 497 100<326.193 481.42>
VStem: 75 103<156.686 338.017> 546 103<244.12 427.311>
LayerCount: 2
Fore
SplineSet
75 222 m 0
 75 415 249 597 427 597 c 0
 546 597 649 508 649 366 c 0
 649 157 466 -14 297 -14 c 0
 165 -14 75 87 75 222 c 0
318 86 m 0
 428 86 546 206 546 340 c 0
 546 430 490 497 406 497 c 0
 296 497 178 376 178 244 c 0
 178 154 234 86 318 86 c 0
324 795 m 0
 324 816 343 839 369 839 c 0
 379 839 386 835 398 824 c 2
 507 712 l 2
 519 701 523 692 523 682 c 0
 523 657 496 640 478 640 c 0
 469 640 460 645 449 656 c 2
 340 767 l 2
 329 778 324 786 324 795 c 0
EndSplineSet
EndChar

StartChar: Oacute
Encoding: 146 211 157
Width: 600
Flags: W
HStem: -14 100<244.642 400.049> 497 100<326.193 481.42>
VStem: 75 103<156.686 338.017> 546 103<244.12 427.311>
LayerCount: 2
Fore
SplineSet
75 222 m 0
 75 415 249 597 427 597 c 0
 546 597 649 508 649 366 c 0
 649 157 466 -14 297 -14 c 0
 165 -14 75 87 75 222 c 0
318 86 m 0
 428 86 546 206 546 340 c 0
 546 430 490 497 406 497 c 0
 296 497 178 376 178 244 c 0
 178 154 234 86 318 86 c 0
618 810 m 0
 618 793 606 780 586 767 c 2
 429 656 l 2
 414 645 403 640 394 640 c 0
 376 640 364 653 364 669 c 0
 364 684 374 698 395 712 c 2
 552 824 l 2
 568 835 577 839 587 839 c 0
 605 839 618 827 618 810 c 0
EndSplineSet
EndChar

StartChar: Ocircumflex
Encoding: 147 212 158
Width: 600
Flags: W
HStem: -14 100<244.642 400.049> 497 100<326.193 481.42>
VStem: 75 103<156.686 338.017> 546 103<244.12 427.311>
LayerCount: 2
Fore
SplineSet
75 222 m 0
 75 415 249 597 427 597 c 0
 546 597 649 508 649 366 c 0
 649 157 466 -14 297 -14 c 0
 165 -14 75 87 75 222 c 0
318 86 m 0
 428 86 546 206 546 340 c 0
 546 430 490 497 406 497 c 0
 296 497 178 376 178 244 c 0
 178 154 234 86 318 86 c 0
619 682 m 0
 619 658 595 640 577 640 c 0
 567 640 560 644 551 653 c 2
 459 750 l 1
 326 653 l 2
 312 643 304 640 295 640 c 0
 278 640 267 654 267 669 c 0
 267 687 276 694 299 711 c 2
 478 839 l 1
 602 711 l 2
 609 703 619 695 619 682 c 0
EndSplineSet
EndChar

StartChar: Otilde
Encoding: 148 213 159
Width: 600
Flags: W
HStem: -14 100<244.642 400.049> 497 100<326.193 481.42> 667 69<490.878 573.684> 670 129<295 402 525 630> 730 69<348.917 435.886>
VStem: 75 103<156.686 338.017> 546 103<244.12 427.311>
LayerCount: 2
Fore
SplineSet
75 222 m 0xc6
 75 415 249 597 427 597 c 0
 546 597 649 508 649 366 c 0
 649 157 466 -14 297 -14 c 0
 165 -14 75 87 75 222 c 0xc6
318 86 m 0
 428 86 546 206 546 340 c 0
 546 430 490 497 406 497 c 0
 296 497 178 376 178 244 c 0
 178 154 234 86 318 86 c 0
536 736 m 0xe6
 572 736 595 799 630 799 c 0xd6
 645 799 656 788 656 775 c 0
 656 751 617 717 615 715 c 0
 581 681 554 667 525 667 c 0xe6
 472 667 425 730 389 730 c 0xce
 349 730 329 670 295 670 c 0
 280 670 270 680 270 693 c 0
 270 724 341 799 402 799 c 0xd6
 455 799 502 736 536 736 c 0xe6
EndSplineSet
EndChar

StartChar: Odieresis
Encoding: 149 214 160
Width: 600
Flags: W
HStem: -14 100<244.642 400.049> 497 100<326.193 481.42> 678 120<316.017 390.875 524.017 598.875>
VStem: 75 103<156.686 338.017> 292 122<701.142 774.555> 500 122<701.142 774.555> 546 103<244.12 427.311>
LayerCount: 2
Fore
SplineSet
75 222 m 0xfa
 75 415 249 597 427 597 c 0
 546 597 649 508 649 366 c 0
 649 157 466 -14 297 -14 c 0
 165 -14 75 87 75 222 c 0xfa
318 86 m 0
 428 86 546 206 546 340 c 0
 546 430 490 497 406 497 c 0
 296 497 178 376 178 244 c 0
 178 154 234 86 318 86 c 0
292 725 m 0
 292 767 333 798 366 798 c 0
 395 798 414 778 414 750 c 0
 414 712 377 678 340 678 c 0
 311 678 292 698 292 725 c 0
500 725 m 0xfc
 500 767 541 798 574 798 c 0
 603 798 622 778 622 750 c 0
 622 712 585 678 548 678 c 0
 519 678 500 698 500 725 c 0xfc
EndSplineSet
EndChar

StartChar: multiply
Encoding: 150 215 161
Width: 600
Flags: W
HStem: 80 400<252 467 252 252>
VStem: 127 465<120 440 120 120>
LayerCount: 2
Fore
SplineSet
529 139 m 0
 529 114 502 80 467 80 c 0
 450 80 442 85 426 106 c 2
 344 209 l 1
 220 106 l 2
 194 86 183 80 167 80 c 0
 144 80 127 97 127 120 c 0
 127 151 151 167 164 177 c 2
 289 280 l 1
 207 383 l 2
 195 400 190 409 190 420 c 0
 190 455 225 480 252 480 c 0
 268 480 277 474 294 454 c 2
 375 351 l 1
 500 454 l 2
 526 475 535 480 552 480 c 0
 575 480 592 463 592 440 c 0
 592 417 580 404 555 383 c 2
 431 280 l 1
 512 177 l 2
 524 161 529 151 529 139 c 0
EndSplineSet
EndChar

StartChar: Oslash
Encoding: 151 216 162
Width: 600
Flags: W
HStem: -14 100<265.882 400.612> 497 100<324.693 458.603> 618 20G<668.5 689>
VStem: 74 103<190.059 336.466> 546 103<243.991 387.953>
LayerCount: 2
Fore
SplineSet
649 365 m 0
 649 162 470 -14 297 -14 c 0
 248 -14 202 1 165 28 c 1
 96 -40 l 2
 71 -65 62 -70 43 -70 c 0
 19 -70 3 -54 3 -32 c 0
 3 -13 13 -2 34 19 c 2
 107 92 l 1
 85 131 74 173 74 219 c 0
 74 412 245 597 427 597 c 0
 479 597 524 581 566 549 c 1
 624 607 l 2
 648 632 659 638 678 638 c 0
 700 638 716 622 716 600 c 0
 716 579 705 567 686 548 c 2
 621 483 l 1
 640 448 649 408 649 365 c 0
318 86 m 0
 427 86 546 204 546 338 c 0
 546 360 543 382 537 400 c 1
 244 107 l 1
 266 93 291 86 318 86 c 0
405 497 m 0
 294 497 177 377 177 242 c 0
 177 218 181 196 189 174 c 1
 487 471 l 1
 462 488 436 497 405 497 c 0
EndSplineSet
EndChar

StartChar: Ugrave
Encoding: 152 217 163
Width: 600
Flags: W
HStem: -14 100<246.839 400.077> 483 100<164 174 274 343.709 481.859 532 632 670.969>
VStem: 109 102<120.319 187.932 185.977 189.887 189.887 212.467>
LayerCount: 2
Fore
SplineSet
705 545 m 0
 705 525 692 483 632 483 c 1
 573 205 l 2
 557 134 519 78 452 35 c 0
 402 2 352 -14 297 -14 c 0
 185 -14 109 61 109 155 c 0
 109 171 111 188 115 205 c 2
 174 483 l 1
 140 484 122 497 122 520 c 0
 122 547 141 568 156 576 c 0
 167 582 175 583 200 583 c 2
 330 583 l 2
 358 583 365 582 374 574 c 0
 382 566 386 556 386 544 c 0
 386 533 382 506 352 490 c 0
 343 485 332 483 309 483 c 2
 274 483 l 1
 213 196 l 2
 212 189 211 182 211 176 c 0
 211 125 255 86 318 86 c 0
 389 86 458 135 471 196 c 2
 532 483 l 1
 497 483 l 2
 471 483 461 485 454 492 c 0
 445 500 440 511 440 524 c 0
 440 545 457 566 474 576 c 0
 485 582 492 583 518 583 c 2
 648 583 l 2
 670 583 705 583 705 545 c 0
324 795 m 0
 324 816 343 839 369 839 c 0
 379 839 386 835 398 824 c 2
 507 712 l 2
 519 701 523 692 523 682 c 0
 523 657 496 640 478 640 c 0
 469 640 460 645 449 656 c 2
 340 767 l 2
 329 778 324 786 324 795 c 0
EndSplineSet
EndChar

StartChar: Uacute
Encoding: 153 218 164
Width: 600
Flags: W
HStem: -14 100<246.839 400.077> 483 100<164 174 274 343.709 481.859 532 632 670.969>
VStem: 109 102<120.319 187.932 185.977 189.887 189.887 212.467>
LayerCount: 2
Fore
SplineSet
705 545 m 0
 705 525 692 483 632 483 c 1
 573 205 l 2
 557 134 519 78 452 35 c 0
 402 2 352 -14 297 -14 c 0
 185 -14 109 61 109 155 c 0
 109 171 111 188 115 205 c 2
 174 483 l 1
 140 484 122 497 122 520 c 0
 122 547 141 568 156 576 c 0
 167 582 175 583 200 583 c 2
 330 583 l 2
 358 583 365 582 374 574 c 0
 382 566 386 556 386 544 c 0
 386 533 382 506 352 490 c 0
 343 485 332 483 309 483 c 2
 274 483 l 1
 213 196 l 2
 212 189 211 182 211 176 c 0
 211 125 255 86 318 86 c 0
 389 86 458 135 471 196 c 2
 532 483 l 1
 497 483 l 2
 471 483 461 485 454 492 c 0
 445 500 440 511 440 524 c 0
 440 545 457 566 474 576 c 0
 485 582 492 583 518 583 c 2
 648 583 l 2
 670 583 705 583 705 545 c 0
618 810 m 0
 618 793 606 780 586 767 c 2
 429 656 l 2
 414 645 403 640 394 640 c 0
 376 640 364 653 364 669 c 0
 364 684 374 698 395 712 c 2
 552 824 l 2
 568 835 577 839 587 839 c 0
 605 839 618 827 618 810 c 0
EndSplineSet
EndChar

StartChar: Ucircumflex
Encoding: 154 219 165
Width: 600
Flags: W
HStem: -14 100<246.839 400.077> 483 100<164 174 274 343.709 481.859 532 632 670.969>
VStem: 109 102<120.319 187.932 185.977 189.887 189.887 212.467>
LayerCount: 2
Fore
SplineSet
705 545 m 0
 705 525 692 483 632 483 c 1
 573 205 l 2
 557 134 519 78 452 35 c 0
 402 2 352 -14 297 -14 c 0
 185 -14 109 61 109 155 c 0
 109 171 111 188 115 205 c 2
 174 483 l 1
 140 484 122 497 122 520 c 0
 122 547 141 568 156 576 c 0
 167 582 175 583 200 583 c 2
 330 583 l 2
 358 583 365 582 374 574 c 0
 382 566 386 556 386 544 c 0
 386 533 382 506 352 490 c 0
 343 485 332 483 309 483 c 2
 274 483 l 1
 213 196 l 2
 212 189 211 182 211 176 c 0
 211 125 255 86 318 86 c 0
 389 86 458 135 471 196 c 2
 532 483 l 1
 497 483 l 2
 471 483 461 485 454 492 c 0
 445 500 440 511 440 524 c 0
 440 545 457 566 474 576 c 0
 485 582 492 583 518 583 c 2
 648 583 l 2
 670 583 705 583 705 545 c 0
619 682 m 0
 619 658 595 640 577 640 c 0
 567 640 560 644 551 653 c 2
 459 750 l 1
 326 653 l 2
 312 643 304 640 295 640 c 0
 278 640 267 654 267 669 c 0
 267 687 276 694 299 711 c 2
 478 839 l 1
 602 711 l 2
 609 703 619 695 619 682 c 0
EndSplineSet
EndChar

StartChar: Udieresis
Encoding: 155 220 166
Width: 600
Flags: W
HStem: -14 100<246.839 400.077> 483 100<164 174 274 343.709 481.859 532 632 670.969> 678 120<316.017 390.875 524.017 598.875>
VStem: 109 102<120.319 187.932 185.977 189.887 189.887 212.467> 292 122<701.142 774.555> 500 122<701.142 774.555>
LayerCount: 2
Fore
SplineSet
705 545 m 0
 705 525 692 483 632 483 c 1
 573 205 l 2
 557 134 519 78 452 35 c 0
 402 2 352 -14 297 -14 c 0
 185 -14 109 61 109 155 c 0
 109 171 111 188 115 205 c 2
 174 483 l 1
 140 484 122 497 122 520 c 0
 122 547 141 568 156 576 c 0
 167 582 175 583 200 583 c 2
 330 583 l 2
 358 583 365 582 374 574 c 0
 382 566 386 556 386 544 c 0
 386 533 382 506 352 490 c 0
 343 485 332 483 309 483 c 2
 274 483 l 1
 213 196 l 2
 212 189 211 182 211 176 c 0
 211 125 255 86 318 86 c 0
 389 86 458 135 471 196 c 2
 532 483 l 1
 497 483 l 2
 471 483 461 485 454 492 c 0
 445 500 440 511 440 524 c 0
 440 545 457 566 474 576 c 0
 485 582 492 583 518 583 c 2
 648 583 l 2
 670 583 705 583 705 545 c 0
292 725 m 0
 292 767 333 798 366 798 c 0
 395 798 414 778 414 750 c 0
 414 712 377 678 340 678 c 0
 311 678 292 698 292 725 c 0
500 725 m 0
 500 767 541 798 574 798 c 0
 603 798 622 778 622 750 c 0
 622 712 585 678 548 678 c 0
 519 678 500 698 500 725 c 0
EndSplineSet
EndChar

StartChar: Yacute
Encoding: 156 221 167
Width: 600
Flags: W
HStem: 0 100<169.297 271 371 449.344> 483 100<148.875 188 617 676.95>
LayerCount: 2
Fore
SplineSet
627 483 m 2
 617 483 l 1
 402 245 l 1
 371 100 l 1
 436 100 l 2
 464 100 472 98 480 91 c 0
 489 83 494 72 494 59 c 0
 494 40 479 17 459 7 c 0
 452 3 436 0 415 0 c 2
 185 0 l 2
 157 0 128 5 128 39 c 0
 128 50 133 77 162 93 c 0
 172 99 179 100 206 100 c 2
 271 100 l 1
 302 245 l 1
 188 483 l 1
 152 483 133 497 133 521 c 0
 133 546 149 583 212 583 c 2
 301 583 l 2
 324 583 357 583 357 544 c 0
 357 523 345 499 308 484 c 1
 374 348 l 1
 497 484 l 1
 476 492 466 505 466 522 c 0
 466 548 486 568 500 576 c 0
 511 582 520 583 545 583 c 2
 637 583 l 2
 664 583 672 581 680 574 c 0
 689 566 694 556 694 545 c 0
 694 516 668 483 627 483 c 2
621 810 m 0
 621 793 609 780 589 767 c 2
 432 656 l 2
 417 645 406 640 397 640 c 0
 379 640 367 653 367 669 c 0
 367 684 377 698 398 712 c 2
 555 824 l 2
 571 835 580 839 590 839 c 0
 608 839 621 827 621 810 c 0
EndSplineSet
EndChar

StartChar: Thorn
Encoding: 157 222 168
Width: 600
Flags: W
HStem: 0 100<65.5625 116 216 327.379> 140 100<246 463.98> 343 100<289 478.058> 483 100<168.825 198 298 432.438>
VStem: 484 104<259.329 334.065>
LayerCount: 2
Fore
SplineSet
418 583 m 2
 443 583 474 580 474 544 c 0
 474 533 469 506 440 490 c 0
 430 484 421 483 397 483 c 2
 298 483 l 1
 289 443 l 1
 387 443 l 2
 489 443 538 427 569 382 c 0
 581 365 588 342 588 319 c 0
 588 272 561 227 531 201 c 0
 480 156 425 140 323 140 c 2
 225 140 l 1
 216 100 l 1
 315 100 l 2
 342 100 350 98 358 91 c 0
 367 83 372 72 372 59 c 0
 372 40 357 17 337 7 c 0
 330 3 314 0 294 0 c 2
 80 0 l 2
 55 0 24 3 24 40 c 0
 24 61 38 83 58 93 c 0
 68 99 77 100 101 100 c 2
 116 100 l 1
 198 483 l 1
 183 483 l 2
 156 483 148 485 140 492 c 0
 131 500 126 511 126 524 c 0
 126 545 143 566 160 576 c 0
 169 581 183 583 204 583 c 2
 418 583 l 2
377 240 m 2
 436 240 484 253 484 303 c 0
 484 331 458 343 399 343 c 2
 268 343 l 1
 246 240 l 1
 377 240 l 2
EndSplineSet
EndChar

StartChar: germandbls
Encoding: 158 223 169
Width: 600
Flags: W
HStem: -16 100<343.737 436.796> 0 100<64.4219 116> 523 100<315.563 433.255>
VStem: 273 103<84.0658 137.068> 445 102<425.855 509.858> 467 103<115.648 236.56>
LayerCount: 2
Fore
SplineSet
79 0 m 2x78
 53 0 23 2 23 39 c 0
 23 61 37 82 57 93 c 0
 67 99 75 100 100 100 c 2
 116 100 l 1
 197 478 l 2
 215 563 299 623 400 623 c 0
 488 623 547 568 547 491 c 0x78
 547 425 515 390 489 365 c 1
 542 329 570 277 570 215 c 0
 570 112 497 -16 371 -16 c 0
 311 -16 273 19 273 72 c 0
 273 101 286 156 338 156 c 0
 380 156 376 121 376 113 c 0
 376 94 384 84 400 84 c 0
 440 84 467 148 467 191 c 0xb4
 467 217 459 240 443 259 c 0
 390 325 297 280 297 341 c 0
 297 356 306 397 361 402 c 0
 388 405 397 407 409 415 c 0
 426 424 445 444 445 471 c 0
 445 502 420 523 379 523 c 0
 332 523 302 502 293 461 c 2
 216 100 l 1
 238 96 251 83 251 64 c 0
 251 45 243 0 172 0 c 2
 79 0 l 2x78
EndSplineSet
EndChar

StartChar: agrave
Encoding: 159 224 170
Width: 600
Flags: W
HStem: -16 100<178.205 348.975> 196 92<227.236 390.201> 350 100<287.533 447.884>
VStem: 65 108<92.853 153.509>
LayerCount: 2
Fore
SplineSet
526 100 m 2
 550 100 583 100 583 59 c 0
 583 38 568 17 548 7 c 0
 540 2 526 0 505 0 c 2
 388 0 l 1
 393 23 l 1
 340 -2 278 -16 219 -16 c 0
 129 -16 65 34 65 99 c 0
 65 166 154 288 345 288 c 0
 377 288 408 285 447 278 c 1
 452 301 l 2
 453 305 453 308 453 311 c 0
 453 338 426 350 369 350 c 0
 297 350 241 327 209 327 c 0
 185 327 169 343 169 367 c 0
 169 396 189 413 209 420 c 0
 261 437 338 450 388 450 c 0
 496 450 557 408 557 335 c 0
 557 324 555 314 553 302 c 2
 510 100 l 1
 526 100 l 2
320 196 m 0
 247 196 173 155 173 118 c 0
 173 99 202 84 242 84 c 0
 296 84 355 101 418 135 c 1
 428 185 l 1
 390 192 354 196 320 196 c 0
276 653 m 0
 276 672 295 696 322 696 c 0
 333 696 337 693 351 680 c 2
 460 569 l 2
 471 558 476 549 476 539 c 0
 476 514 450 496 430 496 c 0
 420 496 414 500 402 512 c 2
 293 624 l 2
 281 635 276 643 276 653 c 0
EndSplineSet
EndChar

StartChar: aacute
Encoding: 160 225 171
Width: 600
Flags: W
HStem: -16 100<178.205 348.975> 196 92<227.236 390.201> 350 100<287.533 447.884>
VStem: 65 108<92.853 153.509>
LayerCount: 2
Fore
SplineSet
526 100 m 2
 550 100 583 100 583 59 c 0
 583 38 568 17 548 7 c 0
 540 2 526 0 505 0 c 2
 388 0 l 1
 393 23 l 1
 340 -2 278 -16 219 -16 c 0
 129 -16 65 34 65 99 c 0
 65 166 154 288 345 288 c 0
 377 288 408 285 447 278 c 1
 452 301 l 2
 453 305 453 308 453 311 c 0
 453 338 426 350 369 350 c 0
 297 350 241 327 209 327 c 0
 185 327 169 343 169 367 c 0
 169 396 189 413 209 420 c 0
 261 437 338 450 388 450 c 0
 496 450 557 408 557 335 c 0
 557 324 555 314 553 302 c 2
 510 100 l 1
 526 100 l 2
320 196 m 0
 247 196 173 155 173 118 c 0
 173 99 202 84 242 84 c 0
 296 84 355 101 418 135 c 1
 428 185 l 1
 390 192 354 196 320 196 c 0
583 668 m 0
 583 650 573 639 552 624 c 2
 395 512 l 2
 377 500 369 496 359 496 c 0
 341 496 329 509 329 525 c 0
 329 534 332 549 361 569 c 2
 518 680 l 2
 536 693 542 696 553 696 c 0
 571 696 583 684 583 668 c 0
EndSplineSet
EndChar

StartChar: acircumflex
Encoding: 161 226 172
Width: 600
Flags: W
HStem: -16 100<178.205 348.975> 196 92<227.236 390.201> 350 100<287.533 447.884>
VStem: 65 108<92.853 153.509>
LayerCount: 2
Fore
SplineSet
526 100 m 2
 550 100 583 100 583 59 c 0
 583 38 568 17 548 7 c 0
 540 2 526 0 505 0 c 2
 388 0 l 1
 393 23 l 1
 340 -2 278 -16 219 -16 c 0
 129 -16 65 34 65 99 c 0
 65 166 154 288 345 288 c 0
 377 288 408 285 447 278 c 1
 452 301 l 2
 453 305 453 308 453 311 c 0
 453 338 426 350 369 350 c 0
 297 350 241 327 209 327 c 0
 185 327 169 343 169 367 c 0
 169 396 189 413 209 420 c 0
 261 437 338 450 388 450 c 0
 496 450 557 408 557 335 c 0
 557 324 555 314 553 302 c 2
 510 100 l 1
 526 100 l 2
320 196 m 0
 247 196 173 155 173 118 c 0
 173 99 202 84 242 84 c 0
 296 84 355 101 418 135 c 1
 428 185 l 1
 390 192 354 196 320 196 c 0
579 539 m 0
 579 515 555 497 537 497 c 0
 528 497 519 501 510 510 c 2
 419 607 l 1
 285 510 l 2
 272 501 264 497 255 497 c 0
 238 497 226 510 226 525 c 0
 226 548 244 557 259 567 c 2
 438 696 l 1
 569 560 l 2
 576 553 579 547 579 539 c 0
EndSplineSet
EndChar

StartChar: atilde
Encoding: 162 227 173
Width: 600
Flags: W
HStem: -16 100<178.205 348.975> 196 92<227.236 390.201> 350 100<287.533 447.884> 523 69<445.908 528.211> 526 130<251 357 480 585> 587 69<304.768 391.3>
VStem: 65 108<92.853 153.509>
LayerCount: 2
Fore
SplineSet
526 100 m 2xe2
 550 100 583 100 583 59 c 0
 583 38 568 17 548 7 c 0
 540 2 526 0 505 0 c 2
 388 0 l 1
 393 23 l 1
 340 -2 278 -16 219 -16 c 0
 129 -16 65 34 65 99 c 0
 65 166 154 288 345 288 c 0
 377 288 408 285 447 278 c 1
 452 301 l 2
 453 305 453 308 453 311 c 0
 453 338 426 350 369 350 c 0
 297 350 241 327 209 327 c 0
 185 327 169 343 169 367 c 0
 169 396 189 413 209 420 c 0
 261 437 338 450 388 450 c 0
 496 450 557 408 557 335 c 0
 557 324 555 314 553 302 c 2
 510 100 l 1
 526 100 l 2xe2
320 196 m 0
 247 196 173 155 173 118 c 0
 173 99 202 84 242 84 c 0
 296 84 355 101 418 135 c 1
 428 185 l 1
 390 192 354 196 320 196 c 0
611 632 m 0
 611 611 544 523 480 523 c 0xf2
 426 523 382 587 345 587 c 0xe6
 303 587 285 526 251 526 c 0
 236 526 226 537 226 551 c 0
 226 580 296 656 357 656 c 0xea
 410 656 457 592 492 592 c 0xf2
 527 592 550 656 585 656 c 0xea
 600 656 611 645 611 632 c 0
EndSplineSet
EndChar

StartChar: adieresis
Encoding: 163 228 174
Width: 600
Flags: W
HStem: -16 100<178.205 348.975> 196 92<227.236 390.201> 350 100<287.533 447.884> 534 120<273.795 348.999 481.795 556.999>
VStem: 65 108<92.853 153.509> 250 122<556.892 630> 458 122<556.892 630>
LayerCount: 2
Fore
SplineSet
526 100 m 2
 550 100 583 100 583 59 c 0
 583 38 568 17 548 7 c 0
 540 2 526 0 505 0 c 2
 388 0 l 1
 393 23 l 1
 340 -2 278 -16 219 -16 c 0
 129 -16 65 34 65 99 c 0
 65 166 154 288 345 288 c 0
 377 288 408 285 447 278 c 1
 452 301 l 2
 453 305 453 308 453 311 c 0
 453 338 426 350 369 350 c 0
 297 350 241 327 209 327 c 0
 185 327 169 343 169 367 c 0
 169 396 189 413 209 420 c 0
 261 437 338 450 388 450 c 0
 496 450 557 408 557 335 c 0
 557 324 555 314 553 302 c 2
 510 100 l 1
 526 100 l 2
320 196 m 0
 247 196 173 155 173 118 c 0
 173 99 202 84 242 84 c 0
 296 84 355 101 418 135 c 1
 428 185 l 1
 390 192 354 196 320 196 c 0
250 582 m 0
 250 614 282 654 324 654 c 0
 353 654 372 634 372 606 c 0
 372 564 332 534 299 534 c 0
 270 534 250 555 250 582 c 0
458 582 m 0
 458 614 490 654 532 654 c 0
 561 654 580 634 580 606 c 0
 580 564 540 534 507 534 c 0
 478 534 458 555 458 582 c 0
EndSplineSet
EndChar

StartChar: aring
Encoding: 164 229 175
Width: 600
Flags: W
HStem: -16 100<178.205 348.975> 196 92<227.236 390.201> 350 100<287.533 447.884> 486 54<358.172 458.058> 674 53<378.658 477.828>
VStem: 65 108<92.853 153.509> 292 55<551.4 642.929> 489 55<569.814 662.063>
LayerCount: 2
Fore
SplineSet
526 100 m 2
 550 100 583 100 583 59 c 0
 583 38 568 17 548 7 c 0
 540 2 526 0 505 0 c 2
 388 0 l 1
 393 23 l 1
 340 -2 278 -16 219 -16 c 0
 129 -16 65 34 65 99 c 0
 65 166 154 288 345 288 c 0
 377 288 408 285 447 278 c 1
 452 301 l 2
 453 305 453 308 453 311 c 0
 453 338 426 350 369 350 c 0
 297 350 241 327 209 327 c 0
 185 327 169 343 169 367 c 0
 169 396 189 413 209 420 c 0
 261 437 338 450 388 450 c 0
 496 450 557 408 557 335 c 0
 557 324 555 314 553 302 c 2
 510 100 l 1
 526 100 l 2
320 196 m 0
 247 196 173 155 173 118 c 0
 173 99 202 84 242 84 c 0
 296 84 355 101 418 135 c 1
 428 185 l 1
 390 192 354 196 320 196 c 0
292 583 m 0
 292 654 364 727 444 727 c 0
 503 727 544 685 544 630 c 0
 544 556 468 486 392 486 c 0
 333 486 292 528 292 583 c 0
404 540 m 0
 440 540 489 574 489 619 c 0
 489 650 465 674 432 674 c 0
 384 674 347 629 347 594 c 0
 347 564 371 540 404 540 c 0
EndSplineSet
EndChar

StartChar: ae
Encoding: 165 230 176
Width: 600
Flags: W
HStem: -16 100<124.102 245.556 413.154 543.41> 172 86<417 557> 197 89<175.07 285.5> 350 100<226.847 316.244 458.498 545.724>
VStem: 14 103<92.323 159.896> 558 107<258.675 337.095>
LayerCount: 2
Fore
SplineSet
531 450 m 0xbc
 608 450 665 387 665 288 c 0
 665 267 663 243 657 218 c 2
 648 172 l 1
 397 172 l 1xdc
 400 109 418 84 459 84 c 0
 512 84 555 118 591 118 c 0
 613 118 627 102 627 79 c 0
 627 45 602 28 592 22 c 0
 552 0 486 -16 439 -16 c 0
 399 -16 377 -9 345 16 c 1
 334 5 321 -1 305 -1 c 0
 290 -1 280 5 272 16 c 1
 231 -7 199 -16 156 -16 c 0
 67 -16 14 31 14 106 c 0
 14 195 68 226 96 242 c 0
 142 268 209 286 256 286 c 0
 271 286 289 284 315 281 c 1
 319 301 l 2
 320 305 320 309 320 312 c 0
 320 334 305 350 281 350 c 0
 246 350 187 325 163 325 c 0
 141 325 125 342 125 365 c 0
 125 389 140 414 178 426 c 0
 217 438 278 450 303 450 c 0
 349 450 380 433 407 394 c 1
 451 433 489 450 531 450 c 0xbc
283 130 m 1
 295 189 l 1
 273 195 258 197 241 197 c 0xbc
 204 197 161 186 137 171 c 0
 124 161 117 146 117 130 c 0
 117 102 139 84 176 84 c 0
 207 84 235 96 283 130 c 1
558 284 m 0
 558 334 527 350 506 350 c 0
 450 350 425 277 417 258 c 1
 557 258 l 1xdc
 558 268 558 277 558 284 c 0
EndSplineSet
EndChar

StartChar: ccedilla
Encoding: 166 231 177
Width: 600
Flags: W
HStem: -229 70<216.793 317.04> -14 98<339 475.351> 350 100<294.516 454.592>
VStem: 93 102<121.44 253.917> 320 72<-147.585 -103.917>
LayerCount: 2
Fore
SplineSet
392 -106 m 0
 392 -181 327 -229 263 -229 c 0
 226 -229 154 -213 154 -174 c 0
 154 -149 178 -131 197 -131 c 0
 218 -131 237 -159 277 -159 c 0
 311 -159 320 -140 320 -128 c 0
 320 -110 303 -100 270 -100 c 0
 265 -100 260 -101 250 -102 c 1
 269 -14 l 1
 215 -8 184 2 154 26 c 0
 113 57 93 103 93 156 c 0
 93 288 207 450 407 450 c 0
 463 450 509 440 543 420 c 1
 554 441 567 450 587 450 c 0
 607 450 626 438 626 416 c 0
 626 409 625 400 622 384 c 2
 605 307 l 2
 600 281 596 271 587 262 c 0
 574 249 557 241 541 241 c 0
 528 241 515 247 508 255 c 1
 501 261 501 267 500 289 c 0
 500 307 496 316 486 325 c 0
 463 341 428 350 385 350 c 0
 248 350 195 241 195 178 c 0
 195 115 246 84 348 84 c 0
 510 84 497 140 545 140 c 0
 568 140 585 123 585 100 c 0
 585 71 543 -9 339 -16 c 1
 333 -42 l 1
 373 -50 392 -71 392 -106 c 0
EndSplineSet
EndChar

StartChar: egrave
Encoding: 167 232 178
Width: 600
Flags: W
HStem: -16 100<222.908 465.529> 172 88<200 494> 350 100<271.715 450.671>
VStem: 494 107<260.497 310.852>
LayerCount: 2
Fore
SplineSet
74 166 m 0
 74 313 214 450 387 450 c 0
 517 450 601 373 601 262 c 0
 601 246 599 229 595 211 c 2
 587 172 l 1
 179 172 l 1
 189 112 236 84 324 84 c 0
 420 84 486 117 527 117 c 0
 550 117 565 101 565 78 c 0
 565 45 538 30 520 22 c 0
 470 2 365 -16 294 -16 c 0
 159 -16 74 57 74 166 c 0
200 260 m 1
 494 260 l 1
 490 315 439 350 366 350 c 0
 293 350 227 314 200 260 c 1
288 653 m 0
 288 672 307 696 334 696 c 0
 345 696 349 693 363 680 c 2
 472 569 l 2
 483 558 488 549 488 539 c 0
 488 514 462 496 442 496 c 0
 432 496 426 500 414 512 c 2
 305 624 l 2
 293 635 288 643 288 653 c 0
EndSplineSet
EndChar

StartChar: eacute
Encoding: 168 233 179
Width: 600
Flags: W
HStem: -16 100<222.908 465.529> 172 88<200 494> 350 100<271.715 450.671>
VStem: 494 107<260.497 310.852>
LayerCount: 2
Fore
SplineSet
74 166 m 0
 74 313 214 450 387 450 c 0
 517 450 601 373 601 262 c 0
 601 246 599 229 595 211 c 2
 587 172 l 1
 179 172 l 1
 189 112 236 84 324 84 c 0
 420 84 486 117 527 117 c 0
 550 117 565 101 565 78 c 0
 565 45 538 30 520 22 c 0
 470 2 365 -16 294 -16 c 0
 159 -16 74 57 74 166 c 0
200 260 m 1
 494 260 l 1
 490 315 439 350 366 350 c 0
 293 350 227 314 200 260 c 1
595 668 m 0
 595 650 585 639 564 624 c 2
 407 512 l 2
 389 500 381 496 371 496 c 0
 353 496 341 509 341 525 c 0
 341 534 344 549 373 569 c 2
 530 680 l 2
 548 693 554 696 565 696 c 0
 583 696 595 684 595 668 c 0
EndSplineSet
EndChar

StartChar: ecircumflex
Encoding: 169 234 180
Width: 600
Flags: W
HStem: -16 100<222.908 465.529> 172 88<200 494> 350 100<271.715 450.671>
VStem: 494 107<260.497 310.852>
LayerCount: 2
Fore
SplineSet
74 166 m 0
 74 313 214 450 387 450 c 0
 517 450 601 373 601 262 c 0
 601 246 599 229 595 211 c 2
 587 172 l 1
 179 172 l 1
 189 112 236 84 324 84 c 0
 420 84 486 117 527 117 c 0
 550 117 565 101 565 78 c 0
 565 45 538 30 520 22 c 0
 470 2 365 -16 294 -16 c 0
 159 -16 74 57 74 166 c 0
200 260 m 1
 494 260 l 1
 490 315 439 350 366 350 c 0
 293 350 227 314 200 260 c 1
594 539 m 0
 594 515 570 497 552 497 c 0
 543 497 534 501 525 510 c 2
 434 607 l 1
 300 510 l 2
 287 501 279 497 270 497 c 0
 253 497 241 510 241 525 c 0
 241 548 259 557 274 567 c 2
 453 696 l 1
 584 560 l 2
 591 553 594 547 594 539 c 0
EndSplineSet
EndChar

StartChar: edieresis
Encoding: 170 235 181
Width: 600
Flags: W
HStem: -16 100<222.908 465.529> 172 88<200 494> 350 100<271.715 450.671> 534 120<288.795 363.999 496.795 571.999>
VStem: 265 122<556.892 630> 473 122<556.892 630> 494 107<260.497 310.852>
LayerCount: 2
Fore
SplineSet
74 166 m 0xfc
 74 313 214 450 387 450 c 0
 517 450 601 373 601 262 c 0xfa
 601 246 599 229 595 211 c 2
 587 172 l 1
 179 172 l 1
 189 112 236 84 324 84 c 0
 420 84 486 117 527 117 c 0
 550 117 565 101 565 78 c 0
 565 45 538 30 520 22 c 0
 470 2 365 -16 294 -16 c 0
 159 -16 74 57 74 166 c 0xfc
200 260 m 1
 494 260 l 1
 490 315 439 350 366 350 c 0
 293 350 227 314 200 260 c 1
265 582 m 0
 265 614 297 654 339 654 c 0
 368 654 387 634 387 606 c 0
 387 564 347 534 314 534 c 0
 285 534 265 555 265 582 c 0
473 582 m 0xfc
 473 614 505 654 547 654 c 0
 576 654 595 634 595 606 c 0
 595 564 555 534 522 534 c 0
 493 534 473 555 473 582 c 0xfc
EndSplineSet
EndChar

StartChar: igrave
Encoding: 171 236 182
Width: 600
Flags: W
HStem: 0 100<113.281 271 371 505.379> 337 100<228.016 322>
VStem: 72 478<16.875 57.6055>
LayerCount: 2
Fore
SplineSet
128 0 m 2
 109 0 72 1 72 39 c 0
 72 50 77 77 106 93 c 0
 116 99 123 100 149 100 c 2
 271 100 l 1
 322 337 l 1
 244 337 l 2
 219 337 207 339 200 347 c 1
 191 354 186 365 186 378 c 0
 186 397 200 420 220 430 c 0
 231 436 239 437 265 437 c 2
 443 437 l 1
 371 100 l 1
 493 100 l 2
 520 100 528 98 536 91 c 0
 545 83 550 72 550 59 c 0
 550 38 534 18 515 7 c 0
 508 3 492 0 472 0 c 2
 128 0 l 2
277 653 m 0
 277 672 296 696 323 696 c 0
 334 696 338 693 352 680 c 2
 461 569 l 2
 472 558 477 549 477 539 c 0
 477 514 451 496 431 496 c 0
 421 496 415 500 403 512 c 2
 294 624 l 2
 282 635 277 643 277 653 c 0
EndSplineSet
EndChar

StartChar: iacute
Encoding: 172 237 183
Width: 600
Flags: W
HStem: 0 100<113.281 271 371 505.379> 337 100<228.016 322>
LayerCount: 2
Fore
SplineSet
128 0 m 2
 109 0 72 1 72 39 c 0
 72 50 77 77 106 93 c 0
 116 99 123 100 149 100 c 2
 271 100 l 1
 322 337 l 1
 244 337 l 2
 219 337 207 339 200 347 c 1
 191 354 186 365 186 378 c 0
 186 397 200 420 220 430 c 0
 231 436 239 437 265 437 c 2
 443 437 l 1
 371 100 l 1
 493 100 l 2
 520 100 528 98 536 91 c 0
 545 83 550 72 550 59 c 0
 550 38 534 18 515 7 c 0
 508 3 492 0 472 0 c 2
 128 0 l 2
574 668 m 0
 574 650 564 639 543 624 c 2
 386 512 l 2
 368 500 360 496 350 496 c 0
 332 496 320 509 320 525 c 0
 320 534 323 549 352 569 c 2
 509 680 l 2
 527 693 533 696 544 696 c 0
 562 696 574 684 574 668 c 0
EndSplineSet
EndChar

StartChar: icircumflex
Encoding: 173 238 184
Width: 600
Flags: W
HStem: 0 100<113.281 271 371 505.379> 337 100<228.016 322>
LayerCount: 2
Fore
SplineSet
128 0 m 2
 109 0 72 1 72 39 c 0
 72 50 77 77 106 93 c 0
 116 99 123 100 149 100 c 2
 271 100 l 1
 322 337 l 1
 244 337 l 2
 219 337 207 339 200 347 c 1
 191 354 186 365 186 378 c 0
 186 397 200 420 220 430 c 0
 231 436 239 437 265 437 c 2
 443 437 l 1
 371 100 l 1
 493 100 l 2
 520 100 528 98 536 91 c 0
 545 83 550 72 550 59 c 0
 550 38 534 18 515 7 c 0
 508 3 492 0 472 0 c 2
 128 0 l 2
573 539 m 0
 573 515 549 497 531 497 c 0
 522 497 513 501 504 510 c 2
 413 607 l 1
 279 510 l 2
 266 501 258 497 249 497 c 0
 232 497 220 510 220 525 c 0
 220 548 238 557 253 567 c 2
 432 696 l 1
 563 560 l 2
 570 553 573 547 573 539 c 0
EndSplineSet
EndChar

StartChar: idieresis
Encoding: 174 239 185
Width: 600
Flags: W
HStem: 0 100<113.281 271 371 505.379> 337 100<228.016 322> 534 120<267.795 342.999 475.795 550.999>
VStem: 244 122<556.892 630> 452 122<556.892 630>
LayerCount: 2
Fore
SplineSet
128 0 m 2
 109 0 72 1 72 39 c 0
 72 50 77 77 106 93 c 0
 116 99 123 100 149 100 c 2
 271 100 l 1
 322 337 l 1
 244 337 l 2
 219 337 207 339 200 347 c 1
 191 354 186 365 186 378 c 0
 186 397 200 420 220 430 c 0
 231 436 239 437 265 437 c 2
 443 437 l 1
 371 100 l 1
 493 100 l 2
 520 100 528 98 536 91 c 0
 545 83 550 72 550 59 c 0
 550 38 534 18 515 7 c 0
 508 3 492 0 472 0 c 2
 128 0 l 2
244 582 m 0
 244 614 276 654 318 654 c 0
 347 654 366 634 366 606 c 0
 366 564 326 534 293 534 c 0
 264 534 244 555 244 582 c 0
452 582 m 0
 452 614 484 654 526 654 c 0
 555 654 574 634 574 606 c 0
 574 564 534 534 501 534 c 0
 472 534 452 555 452 582 c 0
EndSplineSet
EndChar

StartChar: eth
Encoding: 175 240 186
Width: 600
Flags: W
HStem: -16 100<236.598 406.74> 350 93<286.284 454.595>
VStem: 82 105<130.021 257.075> 504 113<186.998 356.159>
LayerCount: 2
Fore
SplineSet
259 598 m 0
 259 623 288 640 308 640 c 0
 331 640 359 631 400 609 c 2
 426 596 l 1
 511 637 l 2
 525 643 536 646 546 646 c 0
 561 646 571 636 571 621 c 0
 571 601 557 590 541 583 c 2
 491 558 l 1
 577 487 617 411 617 316 c 0
 617 70 422 -16 297 -16 c 0
 171 -16 82 63 82 168 c 0
 82 301 219 443 380 443 c 0
 430 443 459 433 514 396 c 1
 486 445 445 490 403 518 c 1
 300 468 l 2
 279 457 275 456 266 456 c 0
 252 456 243 467 243 483 c 0
 243 509 259 515 274 522 c 2
 330 551 l 1
 317 558 302 564 295 568 c 1
 280 573 l 2
 266 578 259 587 259 598 c 0
318 84 m 0
 404 84 504 145 504 237 c 0
 504 302 452 350 374 350 c 0
 275 350 187 270 187 190 c 0
 187 130 241 84 318 84 c 0
EndSplineSet
EndChar

StartChar: ntilde
Encoding: 176 241 187
Width: 600
Flags: W
HStem: 0 100<75.3856 116 216 235.368 374.279 431 531 539.368> 350 100<336.312 462.898> 523 69<446.582 529.209> 587 69<305.583 392.15>
VStem: 359 224<16.4642 84.6049> 469 101<265.667 278 282 288.546 288.546 296.383 292.465 339.119>
LayerCount: 2
Fore
SplineSet
115 375 m 0xc4
 115 400 130 437 194 437 c 2
 288 437 l 1
 278 389 l 1
 335 435 373 450 428 450 c 0
 514 450 575 407 575 324 c 0
 575 311 573 297 570 282 c 2xc4
 531 100 l 1
 565 100 583 86 583 61 c 0
 583 35 564 15 548 7 c 0
 539 2 526 0 505 0 c 2
 416 0 l 2
 377 0 359 13 359 37 c 0xc8
 359 62 373 100 431 100 c 1
 469 278 l 2
 471 286 472 293 472 299 c 0
 472 334 447 350 396 350 c 0
 346 350 319 337 255 282 c 1
 216 100 l 1
 222 100 l 2
 249 100 257 98 265 91 c 0
 274 83 279 72 279 59 c 0
 279 38 263 18 244 7 c 0
 235 2 222 0 201 0 c 2
 89 0 l 2
 68 0 33 1 33 39 c 0
 33 61 47 83 67 93 c 0
 77 98 85 100 110 100 c 2
 116 100 l 1
 167 337 l 1
 133 338 115 351 115 375 c 0xc4
493 592 m 0xe0
 528 592 547 653 585 656 c 1xd0
 602 654 613 646 613 633 c 0
 613 617 597 597 571 571 c 0
 537 537 510 523 481 523 c 0xe0
 427 523 383 587 346 587 c 0
 304 587 286 526 252 526 c 0
 237 526 227 537 227 551 c 0
 227 578 297 656 357 656 c 0xd0
 412 656 456 592 493 592 c 0xe0
EndSplineSet
EndChar

StartChar: ograve
Encoding: 177 242 188
Width: 600
Flags: W
HStem: -16 100<235.67 408.628> 350 100<282.516 455.268>
VStem: 83 102<131.748 262.789> 507 102<175.617 302.587>
LayerCount: 2
Fore
SplineSet
83 172 m 0
 83 311 222 450 399 450 c 0
 523 450 609 370 609 263 c 0
 609 117 460 -16 297 -16 c 0
 170 -16 83 64 83 172 c 0
318 84 m 0
 426 84 507 165 507 242 c 0
 507 304 453 350 376 350 c 0
 275 350 185 279 185 192 c 0
 185 130 239 84 318 84 c 0
287 653 m 0
 287 672 306 696 333 696 c 0
 344 696 348 693 362 680 c 2
 471 569 l 2
 482 558 487 549 487 539 c 0
 487 514 461 496 441 496 c 0
 431 496 425 500 413 512 c 2
 304 624 l 2
 292 635 287 643 287 653 c 0
EndSplineSet
EndChar

StartChar: oacute
Encoding: 178 243 189
Width: 600
Flags: W
HStem: -16 100<235.67 408.628> 350 100<282.516 455.268>
VStem: 83 102<131.748 262.789> 507 102<175.617 302.587>
LayerCount: 2
Fore
SplineSet
83 172 m 0
 83 311 222 450 399 450 c 0
 523 450 609 370 609 263 c 0
 609 117 460 -16 297 -16 c 0
 170 -16 83 64 83 172 c 0
318 84 m 0
 426 84 507 165 507 242 c 0
 507 304 453 350 376 350 c 0
 275 350 185 279 185 192 c 0
 185 130 239 84 318 84 c 0
594 668 m 0
 594 650 584 639 563 624 c 2
 406 512 l 2
 388 500 380 496 370 496 c 0
 352 496 340 509 340 525 c 0
 340 534 343 549 372 569 c 2
 529 680 l 2
 547 693 553 696 564 696 c 0
 582 696 594 684 594 668 c 0
EndSplineSet
EndChar

StartChar: ocircumflex
Encoding: 179 244 190
Width: 600
Flags: W
HStem: -16 100<235.67 408.628> 350 100<282.516 455.268>
VStem: 83 102<131.748 262.789> 507 102<175.617 302.587>
LayerCount: 2
Fore
SplineSet
83 172 m 0
 83 311 222 450 399 450 c 0
 523 450 609 370 609 263 c 0
 609 117 460 -16 297 -16 c 0
 170 -16 83 64 83 172 c 0
318 84 m 0
 426 84 507 165 507 242 c 0
 507 304 453 350 376 350 c 0
 275 350 185 279 185 192 c 0
 185 130 239 84 318 84 c 0
589 539 m 0
 589 515 565 497 547 497 c 0
 538 497 529 501 520 510 c 2
 429 607 l 1
 295 510 l 2
 282 501 274 497 265 497 c 0
 248 497 236 510 236 525 c 0
 236 548 254 557 269 567 c 2
 448 696 l 1
 579 560 l 2
 586 553 589 547 589 539 c 0
EndSplineSet
EndChar

StartChar: otilde
Encoding: 180 245 191
Width: 600
Flags: W
HStem: -16 100<235.67 408.628> 350 100<282.516 455.268> 523 69<459.908 542.211> 526 130<265 371 494 599> 587 69<318.768 405.3>
VStem: 83 102<131.748 262.789> 507 102<175.617 302.587>
LayerCount: 2
Fore
SplineSet
83 172 m 0xc6
 83 311 222 450 399 450 c 0
 523 450 609 370 609 263 c 0
 609 117 460 -16 297 -16 c 0
 170 -16 83 64 83 172 c 0xc6
318 84 m 0
 426 84 507 165 507 242 c 0
 507 304 453 350 376 350 c 0
 275 350 185 279 185 192 c 0
 185 130 239 84 318 84 c 0
625 632 m 0
 625 611 558 523 494 523 c 0xe6
 440 523 396 587 359 587 c 0xce
 317 587 299 526 265 526 c 0
 250 526 240 537 240 551 c 0
 240 580 310 656 371 656 c 0xd6
 424 656 471 592 506 592 c 0xe6
 541 592 564 656 599 656 c 0xd6
 614 656 625 645 625 632 c 0
EndSplineSet
EndChar

StartChar: odieresis
Encoding: 181 246 192
Width: 600
Flags: W
HStem: -16 100<235.67 408.628> 350 100<282.516 455.268> 534 120<284.795 359.999 492.795 567.999>
VStem: 83 102<131.748 262.789> 261 122<556.892 630> 469 122<556.892 630> 507 102<175.617 302.587>
LayerCount: 2
Fore
SplineSet
83 172 m 0xfa
 83 311 222 450 399 450 c 0
 523 450 609 370 609 263 c 0
 609 117 460 -16 297 -16 c 0
 170 -16 83 64 83 172 c 0xfa
318 84 m 0
 426 84 507 165 507 242 c 0
 507 304 453 350 376 350 c 0
 275 350 185 279 185 192 c 0
 185 130 239 84 318 84 c 0
261 582 m 0
 261 614 293 654 335 654 c 0
 364 654 383 634 383 606 c 0
 383 564 343 534 310 534 c 0
 281 534 261 555 261 582 c 0
469 582 m 0xfc
 469 614 501 654 543 654 c 0
 572 654 591 634 591 606 c 0
 591 564 551 534 518 534 c 0
 489 534 469 555 469 582 c 0xfc
EndSplineSet
EndChar

StartChar: divide
Encoding: 182 247 193
Width: 600
Flags: W
HStem: 28 132<271.464 368.761> 230 100<142.422 575.539> 400 132<350.464 447.761>
VStem: 243 154<56.7388 131.261> 322 154<428.49 503.261>
CounterMasks: 1 e0
LayerCount: 2
Fore
SplineSet
178 330 m 2xe0
 562 330 l 2
 589 330 597 328 605 321 c 0
 614 313 619 302 619 289 c 0
 619 270 604 247 584 237 c 0
 575 232 563 230 541 230 c 2
 157 230 l 2
 133 230 121 232 114 240 c 0
 106 247 101 258 101 270 c 0
 101 291 115 312 135 323 c 0
 145 329 153 330 178 330 c 2xe0
243 80 m 0xf0
 243 114 272 160 334 160 c 0
 374 160 397 140 397 108 c 0
 397 74 368 28 306 28 c 0
 267 28 243 49 243 80 c 0xf0
322 452 m 0xe8
 322 486 351 532 413 532 c 0
 453 532 476 513 476 481 c 0
 476 445 447 400 385 400 c 0
 346 400 322 421 322 452 c 0xe8
EndSplineSet
EndChar

StartChar: oslash
Encoding: 183 248 194
Width: 600
Flags: W
HStem: -16 100<272.995 406.864> 350 100<281.393 418.778>
VStem: 83 103<156.514 262.666> 506 103<171.994 276.609>
LayerCount: 2
Fore
SplineSet
83 174 m 0
 83 309 224 450 394 450 c 0
 438 450 491 437 521 419 c 1
 579 468 l 2
 605 489 614 494 631 494 c 0
 653 494 669 478 669 457 c 0
 669 429 647 413 633 402 c 2
 582 359 l 1
 600 329 609 295 609 261 c 0
 609 126 469 -16 297 -16 c 0
 252 -16 212 -6 175 14 c 1
 107 -44 l 2
 81 -65 72 -70 56 -70 c 0
 32 -70 17 -54 17 -32 c 0
 17 -10 30 3 53 22 c 2
 111 72 l 1
 93 102 83 138 83 174 c 0
317 84 m 0
 427 84 506 166 506 240 c 0
 506 256 503 271 497 286 c 1
 266 91 l 1
 283 86 297 84 317 84 c 0
374 350 m 0
 265 350 186 269 186 194 c 0
 186 177 190 161 198 145 c 1
 430 342 l 1
 410 347 393 350 374 350 c 0
EndSplineSet
EndChar

StartChar: ugrave
Encoding: 184 249 195
Width: 600
Flags: W
HStem: -13 100<234.771 360.744> 337 100<136 167 432.141 482>
VStem: 123 103<97.9123 144.66 141.344 147.977 147.977 156 159 172.244>
LayerCount: 2
Fore
SplineSet
270 -13 m 0
 182 -13 123 31 123 113 c 0
 123 126 125 141 128 156 c 2
 167 337 l 1
 136 337 l 2
 111 337 94 354 94 377 c 0
 94 397 108 419 128 430 c 0
 139 436 147 437 172 437 c 2
 288 437 l 1
 229 159 l 2
 227 151 226 144 226 137 c 0
 226 103 251 87 301 87 c 0
 351 87 379 100 443 155 c 1
 482 337 l 1
 447 337 l 2
 422 337 411 339 404 347 c 1
 395 354 390 366 390 378 c 0
 390 397 404 420 424 430 c 0
 435 436 444 437 468 437 c 2
 603 437 l 1
 531 100 l 1
 565 100 583 86 583 61 c 0
 583 35 565 16 548 7 c 0
 539 2 526 0 505 0 c 2
 410 0 l 1
 420 48 l 1
 360 1 325 -13 270 -13 c 0
285 653 m 0
 285 672 304 696 331 696 c 0
 342 696 346 693 360 680 c 2
 469 569 l 2
 480 558 485 549 485 539 c 0
 485 514 459 496 439 496 c 0
 429 496 423 500 411 512 c 2
 302 624 l 2
 290 635 285 643 285 653 c 0
EndSplineSet
EndChar

StartChar: uacute
Encoding: 185 250 196
Width: 600
Flags: W
HStem: -13 100<234.771 360.744> 337 100<136 167 432.141 482>
VStem: 123 103<97.9123 144.66 141.344 147.977 147.977 156 159 172.244>
LayerCount: 2
Fore
SplineSet
270 -13 m 0
 182 -13 123 31 123 113 c 0
 123 126 125 141 128 156 c 2
 167 337 l 1
 136 337 l 2
 111 337 94 354 94 377 c 0
 94 397 108 419 128 430 c 0
 139 436 147 437 172 437 c 2
 288 437 l 1
 229 159 l 2
 227 151 226 144 226 137 c 0
 226 103 251 87 301 87 c 0
 351 87 379 100 443 155 c 1
 482 337 l 1
 447 337 l 2
 422 337 411 339 404 347 c 1
 395 354 390 366 390 378 c 0
 390 397 404 420 424 430 c 0
 435 436 444 437 468 437 c 2
 603 437 l 1
 531 100 l 1
 565 100 583 86 583 61 c 0
 583 35 565 16 548 7 c 0
 539 2 526 0 505 0 c 2
 410 0 l 1
 420 48 l 1
 360 1 325 -13 270 -13 c 0
582 668 m 0
 582 650 572 639 551 624 c 2
 394 512 l 2
 376 500 368 496 358 496 c 0
 340 496 328 509 328 525 c 0
 328 534 331 549 360 569 c 2
 517 680 l 2
 535 693 541 696 552 696 c 0
 570 696 582 684 582 668 c 0
EndSplineSet
EndChar

StartChar: ucircumflex
Encoding: 186 251 197
Width: 600
Flags: W
HStem: -13 100<234.771 360.744> 337 100<136 167 432.141 482>
VStem: 123 103<97.9123 144.66 141.344 147.977 147.977 156 159 172.244>
LayerCount: 2
Fore
SplineSet
270 -13 m 0
 182 -13 123 31 123 113 c 0
 123 126 125 141 128 156 c 2
 167 337 l 1
 136 337 l 2
 111 337 94 354 94 377 c 0
 94 397 108 419 128 430 c 0
 139 436 147 437 172 437 c 2
 288 437 l 1
 229 159 l 2
 227 151 226 144 226 137 c 0
 226 103 251 87 301 87 c 0
 351 87 379 100 443 155 c 1
 482 337 l 1
 447 337 l 2
 422 337 411 339 404 347 c 1
 395 354 390 366 390 378 c 0
 390 397 404 420 424 430 c 0
 435 436 444 437 468 437 c 2
 603 437 l 1
 531 100 l 1
 565 100 583 86 583 61 c 0
 583 35 565 16 548 7 c 0
 539 2 526 0 505 0 c 2
 410 0 l 1
 420 48 l 1
 360 1 325 -13 270 -13 c 0
585 539 m 0
 585 515 561 497 543 497 c 0
 534 497 525 501 516 510 c 2
 425 607 l 1
 291 510 l 2
 278 501 270 497 261 497 c 0
 244 497 232 510 232 525 c 0
 232 548 250 557 265 567 c 2
 444 696 l 1
 575 560 l 2
 582 553 585 547 585 539 c 0
EndSplineSet
EndChar

StartChar: udieresis
Encoding: 187 252 198
Width: 600
Flags: W
HStem: -13 100<234.771 360.744> 337 100<136 167 432.141 482> 534 120<279.795 354.999 487.795 562.999>
VStem: 123 103<97.9123 144.66 141.344 147.977 147.977 156 159 172.244> 256 122<556.892 630> 464 122<556.892 630>
LayerCount: 2
Fore
SplineSet
270 -13 m 0
 182 -13 123 31 123 113 c 0
 123 126 125 141 128 156 c 2
 167 337 l 1
 136 337 l 2
 111 337 94 354 94 377 c 0
 94 397 108 419 128 430 c 0
 139 436 147 437 172 437 c 2
 288 437 l 1
 229 159 l 2
 227 151 226 144 226 137 c 0
 226 103 251 87 301 87 c 0
 351 87 379 100 443 155 c 1
 482 337 l 1
 447 337 l 2
 422 337 411 339 404 347 c 1
 395 354 390 366 390 378 c 0
 390 397 404 420 424 430 c 0
 435 436 444 437 468 437 c 2
 603 437 l 1
 531 100 l 1
 565 100 583 86 583 61 c 0
 583 35 565 16 548 7 c 0
 539 2 526 0 505 0 c 2
 410 0 l 1
 420 48 l 1
 360 1 325 -13 270 -13 c 0
256 582 m 0
 256 614 288 654 330 654 c 0
 359 654 378 634 378 606 c 0
 378 564 338 534 305 534 c 0
 276 534 256 555 256 582 c 0
464 582 m 0
 464 614 496 654 538 654 c 0
 567 654 586 634 586 606 c 0
 586 564 546 534 513 534 c 0
 484 534 464 555 464 582 c 0
EndSplineSet
EndChar

StartChar: yacute
Encoding: 188 253 199
Width: 600
Flags: W
HStem: -205 100<29.749 165 275 293.346> 337 100<118.711 142 256 310.652 450.875 490 599 646.443>
VStem: 102 224<352.46 419.497>
LayerCount: 2
Fore
SplineSet
435 375 m 0
 435 400 451 437 514 437 c 2
 606 437 l 2
 632 437 641 435 649 428 c 0
 658 420 662 410 662 399 c 0
 662 385 654 342 599 337 c 1
 275 -105 l 1
 280 -105 l 2
 305 -105 336 -105 336 -145 c 0
 336 -166 321 -187 302 -198 c 0
 293 -203 280 -205 258 -205 c 2
 43 -205 l 2
 18 -205 8 -203 1 -195 c 1
 -8 -188 -13 -177 -13 -165 c 0
 -13 -145 1 -123 21 -112 c 0
 31 -107 41 -105 65 -105 c 2
 165 -105 l 1
 243 3 l 1
 142 337 l 1
 116 340 102 354 102 375 c 0
 102 400 120 437 180 437 c 2
 270 437 l 2
 293 437 326 437 326 398 c 0
 326 374 310 338 256 337 c 1
 322 114 l 1
 490 337 l 1
 454 337 435 351 435 375 c 0
616 668 m 0
 616 650 606 639 585 624 c 2
 428 512 l 2
 410 500 402 496 392 496 c 0
 374 496 362 509 362 525 c 0
 362 534 365 549 394 569 c 2
 551 680 l 2
 569 693 575 696 586 696 c 0
 604 696 616 684 616 668 c 0
EndSplineSet
EndChar

StartChar: thorn
Encoding: 189 254 200
Width: 600
Flags: W
HStem: -205 100<-0.28125 52 152 223.346> 10 100<262.453 436.555> 350 100<318.296 479.658> 604 20G<179 307>
VStem: 522 102<186.039 310.098>
LayerCount: 2
Fore
SplineSet
624 272 m 0
 624 136 498 10 331 10 c 0
 272 10 232 26 188 66 c 1
 152 -105 l 1
 210 -105 l 2
 235 -105 266 -105 266 -144 c 0
 266 -170 248 -189 232 -198 c 0
 223 -203 210 -205 188 -205 c 2
 14 -205 l 2
 -5 -205 -42 -206 -42 -165 c 0
 -42 -144 -27 -122 -8 -112 c 0
 2 -106 12 -105 36 -105 c 2
 52 -105 l 1
 185 524 l 1
 169 524 l 2
 144 524 113 524 113 564 c 0
 113 585 128 607 147 617 c 0
 157 622 167 624 191 624 c 2
 307 624 l 1
 257 392 l 1
 315 434 361 450 424 450 c 0
 545 450 624 377 624 272 c 0
522 250 m 0
 522 288 500 350 397 350 c 0
 275 350 220 263 220 207 c 0
 220 149 268 110 346 110 c 0
 456 110 522 187 522 250 c 0
EndSplineSet
EndChar

StartChar: ydieresis
Encoding: 190 255 201
Width: 600
Flags: W
HStem: -205 100<29.749 165 275 293.346> 337 100<118.711 142 256 310.652 450.875 490 599 646.443> 534 120<284.795 359.999 492.795 567.999>
VStem: 102 224<352.46 419.497> 261 122<556.892 630> 469 122<556.892 630>
LayerCount: 2
Fore
SplineSet
435 375 m 0xf4
 435 400 451 437 514 437 c 2
 606 437 l 2
 632 437 641 435 649 428 c 0
 658 420 662 410 662 399 c 0
 662 385 654 342 599 337 c 1
 275 -105 l 1
 280 -105 l 2
 305 -105 336 -105 336 -145 c 0
 336 -166 321 -187 302 -198 c 0
 293 -203 280 -205 258 -205 c 2
 43 -205 l 2
 18 -205 8 -203 1 -195 c 1
 -8 -188 -13 -177 -13 -165 c 0
 -13 -145 1 -123 21 -112 c 0
 31 -107 41 -105 65 -105 c 2
 165 -105 l 1
 243 3 l 1
 142 337 l 1
 116 340 102 354 102 375 c 0
 102 400 120 437 180 437 c 2
 270 437 l 2
 293 437 326 437 326 398 c 0
 326 374 310 338 256 337 c 1
 322 114 l 1
 490 337 l 1
 454 337 435 351 435 375 c 0xf4
261 582 m 0xec
 261 614 293 654 335 654 c 0
 364 654 383 634 383 606 c 0
 383 564 343 534 310 534 c 0
 281 534 261 555 261 582 c 0xec
469 582 m 0
 469 614 501 654 543 654 c 0
 572 654 591 634 591 606 c 0
 591 564 551 534 518 534 c 0
 489 534 469 555 469 582 c 0
EndSplineSet
EndChar

StartChar: uni0E01
Encoding: 191 3585 202
Width: 600
Flags: W
HStem: 0 21G<110 214.257 422 526.242> 363 82<282.117 455.852>
VStem: 478 100<247.5 276 276 280.5 278.25 339.654>
LayerCount: 2
Fore
SplineSet
411 445 m 0
 522 445 581 375 581 297 c 0
 581 286 580 275 578 264 c 10
 522 0 l 25
 422 0 l 25
 478 264 l 18
 480 272 481 280 481 288 c 0
 481 339 438 363 394 363 c 8
 330 363 270 354 227 311 c 1
 350 311 l 1
 340 264 l 1
 275 251 258 228 253 202 c 10
 210 0 l 25
 110 0 l 25
 153 202 l 18
 158 227 189 257 217 264 c 1
 136 264 l 1
 146 311 l 1
 217 419 316 445 411 445 c 0
EndSplineSet
Comment: "Thai Gogai" 
EndChar

StartChar: uni0E02
Encoding: 192 3586 203
Width: 600
Flags: W
HStem: 0 445<518 523 180 618 518 518> 0 102<202 235 335 445> 263 55<262.625 333.229> 398 54<270.787 362.838>
VStem: 212 49<320.213 388.046> 405 73<295.259 357.882>
LayerCount: 2
Fore
SplineSet
294 318 m 0x3c
 321 318 343 343 343 367 c 0
 343 385 330 398 311 398 c 0
 289 398 261 377 261 350 c 0
 261 332 275 318 294 318 c 0x3c
212 333 m 0
 212 401 276 452 351 452 c 0
 384 452 409 441 437 420 c 8
 467 398 478 372 478 335 c 0
 478 270 368 257 348 164 c 2
 335 102 l 25
 445 102 l 25x7c
 518 445 l 25
 618 445 l 25
 523 0 l 17
 180 0 l 9x8c
 202 102 l 25
 235 102 l 25x4c
 251 179 l 18
 262 232 298 238 329 259 c 8
 354 281 405 295 405 328 c 0
 405 342 392 358 392 358 c 1
 392 358 374 263 269 263 c 0
 234 263 212 294 212 333 c 0
EndSplineSet
EndChar

StartChar: uni0E03
Encoding: 193 3587 204
Width: 600
Flags: W
HStem: 0 102<183 243 343 440> 204 50<173.9 247.42> 334 112<211.494 292.793>
VStem: 130 43<256.355 321.56> 255 47<261.806 332.262> 412 71<301.001 372.481 352.961 372>
LayerCount: 2
Fore
SplineSet
207 254 m 0
 232 254 255 274 255 300 c 0
 255 319 243 334 224 334 c 0
 196 334 173 303 173 283 c 0
 173 265 188 254 207 254 c 0
302 306 m 0
 302 255 241 204 196 204 c 0
 153 204 130 241 130 288 c 0
 130 315 137 373 201 410 c 0
 227 425 265 446 302 446 c 0
 349 446 370 399 373 399 c 1
 398 446 422 447 430 447 c 0
 451 447 471 433 474 424 c 0
 480 405 483 392 483 377 c 0
 483 266 370 231 353 152 c 2
 343 102 l 25
 440 102 l 25
 513 445 l 25
 613 445 l 25
 518 0 l 17
 161 0 l 9
 183 102 l 25
 243 102 l 25
 256 163 l 18
 271 236 325 245 371 274 c 0
 405 295 412 279 412 333 c 0
 412 353 411 372 411 372 c 1
 373 300 l 1
 336 300 l 1
 321 372 l 1
 282 358 l 1
 282 358 302 337 302 306 c 0
EndSplineSet
EndChar

StartChar: uni0E04
Encoding: 194 3588 205
Width: 600
Flags: W
HStem: 0 21G<55 170.185 420 524.218> 138 48<300.249 370.08> 266 46<308.677 378.691> 363 82<274.273 443.595>
VStem: 381 48<197.693 262.882> 420 100<20.6369 281.05> 478 100<258.405 275 275 281.5 281.5 286.644 284.072 330.994>
LayerCount: 2
Fore
SplineSet
328 186 m 0xf8
 349 186 381 206 381 233 c 0
 381 252 364 266 345 266 c 0
 317 266 299 238 299 216 c 0
 299 199 310 186 328 186 c 0xf8
429 243 m 0
 429 192 377 138 317 138 c 16
 298 138 283 155 278 162 c 9
 155 0 l 25
 55 0 l 25
 113 275 l 18
 137 386 271 445 383 445 c 16
 480 445 582 405 582 309 c 0
 582 298 581 287 578 275 c 10xfa
 520 0 l 25
 420 0 l 25xf4
 478 275 l 18xf2
 479 279 479 284 479 288 c 0
 479 333 422 363 365 363 c 8
 303 363 225 330 213 275 c 10
 186 144 l 17
 246 222 l 2
 264 243 297 312 354 312 c 0
 397 312 429 283 429 243 c 0
EndSplineSet
EndChar

StartChar: uni0E05
Encoding: 195 3589 206
Width: 600
Flags: W
HStem: 0 21G<55 172.481 420 524.218> 111 48<294.316 364.821> 239 43<301.61 372.071> 358 84<249.824 299 445 456.17>
VStem: 375 48<170.559 235.588> 478 100<258.405 275 275 288.03 288.03 288.046 288.038 347.145>
LayerCount: 2
Fore
SplineSet
322 159 m 0
 344 159 375 178 375 206 c 0
 375 225 358 239 339 239 c 0
 311 239 293 212 293 190 c 0
 293 172 303 159 322 159 c 0
423 216 m 0
 423 160 366 111 312 111 c 16
 293 111 277 128 273 135 c 9
 155 0 l 25
 55 0 l 25
 113 275 l 18
 149 444 317 442 317 442 c 1
 369 383 l 1
 445 442 l 1
 446 442 l 2
 455 442 583 440 583 320 c 0
 583 307 582 292 578 275 c 10
 520 0 l 25
 420 0 l 25
 478 275 l 18
 480 285 481 293 481 301 c 0
 481 359 427 358 427 358 c 1
 381 316 l 1
 329 316 l 1
 299 358 l 1
 299 358 231 356 213 275 c 10
 186 144 l 17
 241 204 l 2
 266 227 292 282 349 282 c 0
 391 282 423 255 423 216 c 0
EndSplineSet
EndChar

StartChar: uni0E06
Encoding: 196 3590 207
Width: 600
Flags: W
HStem: -8 62<184.937 248.022> 134 64<193.091 263.01> 204 50<174.866 247.102> 334 112<211.5 317.25>
VStem: 128 45<255.895 320.993> 133 50<55.8665 124.709> 255 47<262.358 332.648> 416 67<296.4 378.625>
LayerCount: 2
Fore
SplineSet
207 254 m 0xfb
 232 254 255 275 255 301 c 0
 255 319 243 334 224 334 c 0
 199 334 173 308 173 284 c 0
 173 266 188 254 207 254 c 0xfb
215 54 m 0
 237 54 265 75 265 102 c 0
 265 120 251 134 232 134 c 0
 205 134 183 109 183 85 c 0xf7
 183 67 196 54 215 54 c 0
133 63 m 0
 133 159 204 198 246 198 c 0
 276 198 306 186 306 186 c 9
 350 235 416 265 416 334 c 0
 416 354 411 372 411 372 c 1
 373 300 l 1
 336 300 l 1
 321 372 l 1
 282 358 l 1
 282 358 302 338 302 307 c 0
 302 256 241 204 196 204 c 0
 153 204 128 242 128 289 c 0xfb
 128 402 261 446 302 446 c 0
 349 446 370 399 373 399 c 1
 398 446 422 447 430 447 c 0
 451 447 471 433 474 424 c 0
 480 405 483 392 483 377 c 0
 483 279 362 157 361 154 c 1
 442 98 l 9
 516 445 l 25
 616 445 l 25
 521 0 l 17
 371 0 l 1
 301 59 l 1
 301 59 293 20 274 8 c 16
 254 -3 235 -8 217 -8 c 0
 182 -8 133 15 133 63 c 0
EndSplineSet
EndChar

StartChar: uni0E07
Encoding: 197 3591 208
Width: 600
Flags: W
HStem: 0 445<440 515 508 515 508 508> 256 46<444.489 480.242 458.484 467> 382 63<453.733 522.852>
VStem: 168 421<270 362 270 277> 384 59<304.193 370.932> 525 64<325.83 379.935>
LayerCount: 2
Fore
SplineSet
477 302 m 0x6c
 502 302 525 324 525 350 c 0
 525 368 513 382 494 382 c 0
 468 382 443 357 443 334 c 0
 443 315 457 302 477 302 c 0x6c
384 324 m 0
 384 377 440 445 508 445 c 16
 552 445 589 409 589 362 c 0
 589 355 589 348 587 341 c 10
 515 0 l 25
 355 0 l 25
 168 270 l 25x90
 265 347 l 25
 435 104 l 25
 467 256 l 17
 466 256 l 2
 463 256 456 252 447 252 c 0
 431 252 384 280 384 324 c 0
EndSplineSet
EndChar

StartChar: uni0E08
Encoding: 198 3592 209
Width: 600
Flags: W
HStem: 0 21G<414.61 529.238> 120 52<324.821 376.476> 252 48<333.062 403.681> 363 82<307.278 469.992>
VStem: 271 52<174.138 240.879>
LayerCount: 2
Fore
SplineSet
357 172 m 0
 384 172 405 198 405 221 c 0
 405 239 393 252 374 252 c 0
 352 252 323 232 323 204 c 0
 323 186 338 172 357 172 c 0
271 186 m 0
 271 266 356 300 384 300 c 8
 410 300 425 294 441 276 c 24
 453 261 449 245 454 225 c 25
 459 161 l 25
 489 300 l 18
 490 303 490 305 490 308 c 0
 490 343 440 363 397 363 c 8
 343 363 313 348 257 311 c 9
 215 370 l 17
 289 432 335 445 415 445 c 0
 530 445 591 380 591 320 c 0
 591 314 590 308 589 302 c 10
 525 0 l 25
 420 0 l 25
 382 141 l 17
 371 126 356 120 340 120 c 0
 320 120 271 132 271 186 c 0
EndSplineSet
EndChar

StartChar: uni0E09
Encoding: 199 3593 210
Width: 600
Flags: W
HStem: 0 445<422.34 443.674 362 451 362 362> 0 58<445.5 514.275> 148 35<208.757 253.5> 263 31<217.569 287.242> 364 81<252.117 406.364>
VStem: 131 446<100 352 352 441> 166 41<184.819 251.737> 289 48<206.736 261.686> 422 103<289.118 346.829> 520 57<73.8157 118.399>
LayerCount: 2
Fore
SplineSet
241 183 m 0x33
 266 183 289 205 289 231 c 0
 289 249 277 263 258 263 c 0
 232 263 207 238 207 215 c 0
 207 196 221 183 241 183 c 0x33
486 120 m 0
 465 120 445 113 445 83 c 0
 445 64 457 58 484 58 c 0
 506 58 520 85 520 97 c 0x4040
 520 111 505 120 486 120 c 0
166 197 m 0x62
 166 259 221 294 264 294 c 16
 295 294 337 264 337 231 c 0
 337 228 337 225 336 222 c 2
 314 117 l 1
 394 166 l 9
 420 285 l 18
 422 293 422 300 422 307 c 0x7380
 422 354 368 364 329 364 c 0
 270 364 216 323 171 288 c 9
 131 352 l 17x7c
 197 413 272 445 362 445 c 16
 461 445 525 407 525 325 c 0x8080
 525 313 523 299 520 285 c 10x8040
 494 163 l 17
 501 165 512 167 522 167 c 0
 560 167 577 125 577 100 c 0
 577 65 554 0 451 0 c 24x84
 414 0 386 56 386 56 c 1
 283 0 l 9
 184 0 l 25
 216 150 l 17
 216 150 214 148 209 148 c 0
 199 148 166 162 166 197 c 0x62
EndSplineSet
EndChar

StartChar: uni0E0A
Encoding: 200 3594 211
Width: 600
Flags: W
HStem: 0 102<202 235 335 445> 266 52<262.729 333.772> 398 54<277.38 364.338>
VStem: 180 449<0 499 42.7238 405.789> 213 48<320.517 387.051> 406 72<295.947 357.826> 479 102<246.562 337>
LayerCount: 2
Fore
SplineSet
294 318 m 0xe8
 321 318 343 343 343 367 c 0
 343 385 330 398 311 398 c 0
 289 398 261 377 261 350 c 0
 261 332 275 318 294 318 c 0xe8
213 340 m 0
 213 408 299 452 356 452 c 0
 387 452 412 440 437 420 c 8
 465 397 478 372 478 335 c 1
 462 257 368 257 348 164 c 2
 335 102 l 25
 445 102 l 17
 479 263 l 1
 479 337 l 1xee
 501 391 518 445 529 499 c 9
 629 499 l 17xf0
 615 434 600 376 581 337 c 1
 581 263 l 1xe2
 525 0 l 1
 180 0 l 9xf0
 202 102 l 25
 235 102 l 25
 251 179 l 18
 262 232 298 238 329 259 c 8
 352 278 406 298 406 330 c 0xe4
 406 343 392 358 392 358 c 1
 392 358 369 266 283 266 c 0
 246 266 213 298 213 340 c 0
EndSplineSet
EndChar

StartChar: uni0E0B
Encoding: 201 3595 212
Width: 600
Flags: W
HStem: 0 102<183 243 343 440> 204 50<175.02 246.33> 334 112<212.494 293.028>
VStem: 130 43<256.053 323.174> 255 47<262.424 332.706> 478 100<265.55 342> 479 4<282 342>
LayerCount: 2
Fore
SplineSet
207 254 m 0xf8
 232 254 255 276 255 302 c 0
 255 320 243 334 224 334 c 0
 198 334 173 309 173 286 c 0
 173 267 187 254 207 254 c 0xf8
302 309 m 0
 302 254 239 204 196 204 c 0
 153 204 130 242 130 290 c 0
 130 314 138 373 201 410 c 0
 227 425 265 446 302 446 c 0
 349 446 370 399 373 399 c 1
 398 446 422 447 430 447 c 0
 451 447 471 433 474 424 c 0
 480 405 483 392 483 377 c 0xfa
 483 265 373 240 355 162 c 2
 343 102 l 25
 440 102 l 17
 478 282 l 1xfc
 479 342 l 1xfa
 499 395 513 448 524 501 c 9
 624 501 l 17
 613 447 600 394 581 342 c 1
 578 282 l 1xfc
 518 0 l 1
 161 0 l 9
 183 102 l 25
 243 102 l 25
 255 162 l 18
 271 235 325 245 371 274 c 0
 405 295 412 279 412 333 c 0
 412 353 411 372 411 372 c 1
 373 300 l 1
 336 300 l 1
 321 372 l 1
 282 358 l 1
 282 358 302 339 302 309 c 0
EndSplineSet
EndChar

StartChar: uni0E0C
Encoding: 202 3596 213
Width: 600
Flags: W
HStem: 0 50<115.088 185.174 286.93 327.04> 363 84<195.613 319.574>
VStem: 62 51<52.082 106.27> 195 40<59.9558 143.841> 239 37<47.13 101.258> 340 100<296.985 318.023 318.023 327.023 322.523 354.608>
LayerCount: 2
Fore
SplineSet
146 50 m 0
 173 50 195 75 195 99 c 0
 195 117 182 130 163 130 c 0
 141 130 113 109 113 82 c 0
 113 64 127 50 146 50 c 0
310 112 m 0
 295 112 276 98 276 76 c 0
 276 58 291 46 297 46 c 0
 317 46 330 66 330 83 c 0
 330 92 327 112 310 112 c 0
235 128 m 0
 235 79 199 0 141 0 c 0
 97 0 62 27 62 72 c 0
 62 78 62 85 64 93 c 10
 93 230 l 18
 98 253 128 271 154 276 c 1
 73 276 l 1
 81 317 l 1
 145 421 206 447 286 447 c 0
 370 447 443 415 443 341 c 0
 443 332 442 323 440 313 c 2
 406 156 l 1
 443 112 l 1
 514 445 l 1
 614 445 l 1
 519 0 l 1
 412 0 l 1
 373 50 l 1
 361 17 346 -3 311 -3 c 0
 292 -3 239 3 239 58 c 0
 239 84 245 136 278 155 c 0
 300 168 307 162 307 162 c 1
 340 313 l 2
 341 317 341 320 341 323 c 0
 341 359 297 363 268 363 c 8
 229 363 203 356 169 317 c 1
 285 317 l 1
 277 276 l 1
 224 264 197 251 193 230 c 2
 178 162 l 1
 178 162 187 166 198 166 c 0
 209 166 235 159 235 128 c 0
EndSplineSet
EndChar

StartChar: uni0E0D
Encoding: 203 3597 214
Width: 600
Flags: W
HStem: -198 58<258.541 342.396> -67 51<267.649 332.556> 0 102<407 458> 0 43<152.046 222.189> 123 30<191.278 229.842> 363 82<214.788 340.319>
VStem: 89 61<44.5063 98.6681> 219 39<-138.724 -76.5709> 232 44<52.4391 120.957> 334 48<-95.7581 -51.4898> 351 103<297.597 316.523 316.523 323 319.762 348.283>
LayerCount: 2
Fore
SplineSet
182 43 m 0xde80
 203 43 232 62 232 90 c 0
 232 109 218 123 199 123 c 0
 174 123 150 100 150 74 c 0
 150 56 163 43 182 43 c 0xde80
289 -140 m 0
 310 -140 334 -123 334 -97 c 0
 334 -81 322 -67 305 -67 c 0
 282 -67 258 -92 258 -113 c 0xcf40
 258 -129 271 -140 289 -140 c 0
219 -120 m 0
 219 -81 258 -16 316 -16 c 16
 347 -16 382 -35 382 -65 c 0
 382 -77 377 -91 374 -106 c 1
 427 -106 474 -51 502 -30 c 9
 549 -86 l 17
 499 -138 469 -161 408 -183 c 16
 380 -194 357 -198 335 -198 c 0
 286 -198 219 -173 219 -120 c 0
276 105 m 0xdea0
 276 71 256 0 166 0 c 0xdea0
 125 0 89 22 89 65 c 0
 89 71 90 77 91 84 c 10
 122 230 l 18
 127 253 156 271 183 276 c 1
 102 276 l 1
 110 317 l 1
 172 421 216 445 295 445 c 16
 376 445 454 399 454 332 c 0
 454 326 453 320 452 314 c 2
 407 102 l 1
 458 102 l 1xeea0
 531 445 l 1
 631 445 l 1
 536 0 l 1
 284 0 l 17
 351 314 l 1
 351 316 352 318 352 319 c 0
 352 345 313 363 277 363 c 8
 242 363 223 356 191 317 c 1
 314 317 l 1
 306 276 l 1
 253 264 230 266 222 230 c 2
 204 147 l 1
 204 147 212 153 224 153 c 0
 233 153 276 143 276 105 c 0xdea0
EndSplineSet
EndChar

StartChar: uni0E0E
Encoding: 204 3598 215
Width: 600
Flags: W
HStem: -177 48<198.132 235.792> -57 46<206.571 278.092> -20 41<123.545 194.005> 101 43<131.745 179.44> 363 82<300.103 457.854>
VStem: 82 40<22.9411 91.1458> 139 58<-128.387 -65.4066> 483 100<289.577 312.523 312.523 320.023 316.273 351.923>
LayerCount: 2
Fore
SplineSet
154 21 m 0xbf
 176 21 204 42 204 69 c 0
 204 87 190 101 171 101 c 0
 144 101 122 76 122 52 c 0
 122 34 135 21 154 21 c 0xbf
197 -103 m 0
 197 -118 207 -129 224 -129 c 0
 232 -129 242 -126 253 -122 c 8
 270 -115 273 -102 287 -90 c 17
 283 -81 259 -57 240 -57 c 0xdf
 221 -57 197 -80 197 -103 c 0
82 47 m 0
 82 99 127 144 165 144 c 0
 173 144 177 141 177 141 c 1
 192 211 l 2
 197 236 226 257 250 264 c 1
 148 264 l 1
 158 311 l 1
 230 419 325 445 419 445 c 0
 506 445 586 412 586 334 c 0
 586 325 585 316 583 306 c 10
 479 -182 l 25
 379 -182 l 17
 316 -119 l 1
 316 -119 280 -155 270 -160 c 0
 258 -165 228 -177 201 -177 c 0
 158 -177 139 -146 139 -121 c 0
 139 -49 231 -11 265 -11 c 0xdf
 285 -11 305 -21 316 -28 c 1
 373 34 l 1
 406 0 l 1
 355 -50 l 1
 398 -94 l 1
 483 306 l 2
 484 311 484 315 484 319 c 0
 484 358 437 363 401 363 c 8
 346 363 299 352 260 311 c 1
 362 311 l 1
 352 264 l 1
 313 251 299 253 290 211 c 10
 257 57 l 18
 250 24 203 -20 152 -20 c 0xbf
 111 -20 82 9 82 47 c 0
EndSplineSet
EndChar

StartChar: uni0E0F
Encoding: 205 3599 216
Width: 600
Flags: W
HStem: -180 60<129.297 213.032> -60 58<170.904 235.636> 0 50<145.985 215.973> 363 82<300.591 468.601>
VStem: 78 51<-133.691 -72.9772> 96 48<52.5162 119.467>
LayerCount: 2
Fore
SplineSet
177 50 m 0xf4
 204 50 226 75 226 99 c 0
 226 117 213 130 194 130 c 0
 172 130 144 109 144 82 c 0
 144 64 158 50 177 50 c 0xf4
129 -100 m 0xf8
 129 -106 135 -120 156 -120 c 0
 203 -120 210 -99 229 -87 c 25
 213 -76 209 -60 189 -60 c 24
 151 -60 129 -91 129 -100 c 0xf8
138 -180 m 0
 101 -180 78 -158 78 -124 c 0xf8
 78 -68 133 -23 159 -16 c 0
 194 -5 215 -2 230 -2 c 0
 249 -2 257 -8 269 -12 c 1
 325 60 l 1
 363 24 l 1
 305 -44 l 1
 321 -65 l 1
 359 -18 l 1
 407 -84 l 1
 492 313 l 2
 493 316 493 320 493 323 c 0
 493 359 445 363 408 363 c 8
 354 363 306 355 268 317 c 1
 370 317 l 1
 362 276 l 1
 323 264 309 266 301 229 c 10
 272 93 l 18
 263 53 213 0 163 0 c 16
 121 0 96 33 96 73 c 0xf4
 96 114 122 159 165 174 c 24
 174 177 190 168 190 168 c 1
 203 229 l 2
 208 252 235 270 260 276 c 1
 160 276 l 1
 168 317 l 1
 238 421 333 445 426 445 c 0
 514 445 597 414 597 338 c 0
 597 330 596 322 594 313 c 10
 489 -180 l 25
 387 -180 l 17
 338 -126 l 1
 298 -175 l 1
 247 -129 l 1
 247 -129 218 -151 217 -156 c 1
 201 -166 168 -180 138 -180 c 0
EndSplineSet
EndChar

StartChar: uni0E10
Encoding: 206 3600 217
Width: 600
Flags: W
HStem: -198 53<102.111 179.168> -198 107<436.007 490.187> -71 54<105.746 181.849> -36 27<439.288 492.853> 0 21G<410.784 524.292> 79 54<305.385 362.063> 213 44<313.59 383.318> 291 68<396 458.137> 376 69<396.912 541.925>
VStem: 44 54<-131.445 -79.158> 260 44<134.51 202.597> 402 34<-90.7924 -38.7946> 493 35<-72.6358 -36.2113>
LayerCount: 2
Fore
SplineSet
459 -91 m 0x5ff8
 479 -91 493 -71 493 -58 c 0
 493 -45 483 -36 470 -36 c 0
 452 -36 436 -52 436 -70 c 0
 436 -82 445 -91 459 -91 c 0x5ff8
336 133 m 0
 357 133 386 152 386 180 c 0
 386 199 372 213 353 213 c 0
 328 213 304 190 304 164 c 0
 304 146 317 133 336 133 c 0
260 144 m 0
 260 226 334 257 364 257 c 8
 413 257 424 228 445 182 c 25
 456 144 l 25
 474 231 l 18
 475 234 475 237 475 240 c 0
 475 274 425 291 382 291 c 0
 346 291 310 290 263 290 c 9
 277 358 l 17
 326 405 360 445 464 445 c 0
 551 445 632 405 632 405 c 1
 600 322 l 1
 600 322 522 376 458 376 c 24
 434 376 396 359 396 359 c 1
 413 359 l 2
 436 359 477 357 501 345 c 0
 538 327 574 321 574 268 c 0
 574 258 573 247 570 233 c 10
 520 0 l 25
 420 0 l 25
 373 102 l 17
 362 86 344 79 327 79 c 0
 304 79 260 92 260 144 c 0
402 -73 m 0
 402 -51 415 -9 475 -9 c 0
 503 -9 528 -25 528 -49 c 0
 528 -52 528 -54 527 -57 c 2
 497 -198 l 1
 418 -198 l 1x5ff8
 342 -92 l 1
 279 -185 l 1
 230 -119 l 1
 230 -119 199 -164 191 -174 c 0
 178 -187 148 -198 120 -198 c 0
 70 -198 44 -159 44 -123 c 0
 44 -53 110 -17 144 -17 c 0xaff8
 190 -17 219 -40 219 -40 c 1
 270 21 l 1
 310 -4 l 1
 263 -55 l 1
 297 -99 l 1
 356 -30 l 1
 430 -140 l 1
 434 -123 l 1
 434 -123 402 -108 402 -73 c 0
98 -111 m 0
 98 -117 106 -145 138 -145 c 0
 170 -145 192 -106 194 -106 c 1
 194 -106 168 -71 140 -71 c 24xaff8
 119 -71 98 -98 98 -111 c 0
EndSplineSet
EndChar

StartChar: uni0E11
Encoding: 207 3601 218
Width: 600
Flags: W
HStem: 0 21G<168 278.031 474 579.224> 204 50<120.854 193.769> 334 112<158.494 239.793> 350 95<508.449 573.091>
VStem: 76 44<256.561 321.919> 202 47<262.026 332.262> 359 71<301.979 372.481 352.961 372> 543 103<305.426 327.5 327.5 335.812 331.656 376.03>
LayerCount: 2
Fore
SplineSet
154 254 m 0xef
 179 254 202 274 202 300 c 0
 202 319 190 334 171 334 c 0
 143 334 120 303 120 283 c 0
 120 265 135 254 154 254 c 0xef
320 399 m 1
 345 446 369 447 377 447 c 0
 398 447 418 433 421 424 c 0
 427 405 430 392 430 377 c 0
 430 262 311 240 295 164 c 2
 289 136 l 9
 374 246 l 25
 464 370 l 18
 501 434 515 445 550 445 c 0
 607 445 646 406 646 350 c 0
 646 341 645 332 643 322 c 2
 575 0 l 25
 474 0 l 17
 542 322 l 2
 543 326 543 329 543 333 c 0
 543 343 539 350 532 350 c 0xdf
 517 350 503 318 502 318 c 1
 263 0 l 9
 168 0 l 25
 203 163 l 18
 218 236 272 245 318 274 c 0
 352 295 359 279 359 333 c 0
 359 353 358 372 358 372 c 1
 320 300 l 1
 283 300 l 1
 268 372 l 1
 229 358 l 1
 229 358 249 337 249 306 c 0
 249 256 190 204 143 204 c 0
 100 204 76 242 76 288 c 0
 76 321 84 373 148 410 c 0
 174 425 212 446 249 446 c 0
 296 446 317 399 320 399 c 1
EndSplineSet
EndChar

StartChar: uni0E12
Encoding: 208 3602 219
Width: 600
Flags: W
HStem: -1 46<335.85 386.428> 95 42<346.378 381.437> 254 42<241.506 312.511> 425 20G<252.5 285.222 358 411 575.78 680>
VStem: 197 35<175.827 244.228> 291 41<45.7551 89.6138> 314 45<183.895 252.191>
LayerCount: 2
Fore
SplineSet
265 174 m 0xfa
 290 174 314 197 314 223 c 0
 314 241 301 254 282 254 c 0
 261 254 232 235 232 207 c 0
 232 188 246 174 265 174 c 0xfa
371 95 m 0
 359 95 332 82 332 61 c 16xfc
 332 50 342 45 353 45 c 0
 379 45 396 83 397 83 c 1
 397 83 384 95 371 95 c 0
197 204 m 0
 197 224 219 296 293 296 c 16
 338 296 359 274 359 237 c 0xfa
 359 164 282 99 262 87 c 10
 134 0 l 25
 17 0 l 25
 83 309 l 18
 111 442 247 445 258 445 c 2
 259 445 l 1
 318 400 l 1
 390 445 l 1
 397 445 l 2
 425 445 520 438 520 345 c 0
 520 334 519 322 516 309 c 2
 480 139 l 1
 507 97 l 1
 580 443 l 1
 680 443 l 1
 586 0 l 1
 465 0 l 1
 436 46 l 1
 415 29 383 -1 351 -1 c 0
 320 -1 291 21 291 56 c 0
 291 101 336 137 366 137 c 0
 373 137 379 136 379 136 c 1
 416 309 l 1
 416 314 l 2
 416 343 372 364 372 364 c 1
 325 326 l 1
 275 326 l 1
 241 364 l 1
 241 364 189 340 183 309 c 10
 140 106 l 17
 214 158 l 1
 213 158 197 181 197 204 c 0
EndSplineSet
EndChar

StartChar: uni0E13
Encoding: 209 3603 220
Width: 600
Flags: W
HStem: -7 61<499.1 568.544> 0 42<120.441 190.703> 122 29<166.501 198.67> 138 56<562.873 598.015> 363 82<197.223 304.804>
VStem: 71 47<43.9159 97.639> 200 38<51.2604 120.29> 314 101<308.713 353.67> 467 62<36.5885 77.7728> 588 41<82.8581 137.292>
LayerCount: 2
Fore
SplineSet
151 42 m 0x6fc0
 176 42 200 65 200 91 c 0
 200 109 187 122 168 122 c 0
 147 122 118 103 118 75 c 0
 118 56 132 42 151 42 c 0x6fc0
588 121 m 0
 588 135 579 138 573 138 c 0
 564 138 556 129 544 125 c 1
 540 108 529 85 529 70 c 0
 529 61 534 54 545 54 c 0x9fc0
 572 54 588 101 588 121 c 0
238 107 m 0
 238 67 212 0 142 0 c 0x6fc0
 103 0 71 20 71 62 c 0
 71 69 71 76 73 83 c 10
 104 230 l 18
 109 253 138 271 165 276 c 1
 84 276 l 1
 92 317 l 1
 154 421 200 445 277 445 c 0
 360 445 415 390 415 332 c 0
 415 325 414 319 413 313 c 2
 367 100 l 1
 443 146 l 1
 506 443 l 1
 608 443 l 1
 554 188 l 1
 554 188 572 194 587 194 c 0
 613 194 629 169 629 135 c 0
 629 94 607 45 584 26 c 0
 559 6 530 -7 506 -7 c 0x9fc0
 472 -7 467 14 467 31 c 0
 467 53 475 78 475 78 c 1
 344 0 l 1
 246 0 l 17
 246 0 314 315 314 319 c 0
 314 344 288 363 259 363 c 8
 224 363 205 356 173 317 c 1
 285 317 l 1
 277 276 l 1
 222 264 212 266 204 230 c 2
 186 148 l 1
 186 148 190 151 198 151 c 0x6fc0
 212 151 238 137 238 107 c 0
EndSplineSet
EndChar

StartChar: uni0E14
Encoding: 210 3604 221
Width: 600
Flags: W
HStem: 0 21G<69 226.047 417 521.251> 260 47<309.815 380.898> 342 103<262.778 458.653>
VStem: 251 49<182.479 249.705> 382 47<189.467 258.547>
LayerCount: 2
Fore
SplineSet
334 180 m 0
 359 180 382 204 382 230 c 0
 382 248 370 260 351 260 c 0
 329 260 300 241 300 213 c 0
 300 195 315 180 334 180 c 0
251 205 m 0
 251 252 300 307 361 307 c 16
 402 307 429 278 429 239 c 0
 429 171 335 109 335 107 c 1
 201 0 l 9
 69 0 l 25
 130 287 l 18
 153 394 274 445 391 445 c 0
 511 445 581 393 581 317 c 0
 581 307 580 297 578 287 c 10
 517 0 l 25
 417 0 l 25
 478 287 l 18
 482 306 457 342 369 342 c 0
 285 342 237 317 231 286 c 10
 191 100 l 17
 271 164 l 17
 271 164 251 176 251 205 c 0
EndSplineSet
EndChar

StartChar: uni0E15
Encoding: 211 3605 222
Width: 600
Flags: W
HStem: 0 21G<55 195 420 524.218> 235 47<293.521 365.801> 358 84<249.824 299 445 456.17>
VStem: 236 49<157.479 225.045> 367 47<164.653 233.508> 478 100<258.405 275 275 288.03 288.03 288.046 288.038 347.145>
LayerCount: 2
Fore
SplineSet
319 155 m 0
 343 155 367 178 367 204 c 0
 367 222 355 235 336 235 c 0
 313 235 285 216 285 188 c 0
 285 170 300 155 319 155 c 0
236 180 m 0
 236 227 285 282 346 282 c 16
 387 282 414 253 414 214 c 0
 414 146 319 84 319 82 c 1
 155 0 l 25
 55 0 l 25
 113 275 l 18
 149 444 317 442 317 442 c 1
 369 383 l 1
 445 442 l 1
 446 442 l 2
 455 442 583 440 583 320 c 0
 583 307 582 292 578 275 c 10
 520 0 l 25
 420 0 l 25
 478 275 l 18
 480 285 481 293 481 301 c 0
 481 359 427 358 427 358 c 1
 381 316 l 1
 329 316 l 1
 299 358 l 1
 299 358 231 356 213 275 c 10
 176 100 l 17
 256 139 l 17
 256 139 236 151 236 180 c 0
EndSplineSet
EndChar

StartChar: uni0E16
Encoding: 212 3606 223
Width: 600
Flags: W
HStem: 0 44<198.923 268.723> 124 34<241.001 298.171> 366 79<299.384 482.476>
VStem: 146 51<45.3948 100.295> 279 51<54.4868 121.88>
LayerCount: 2
Fore
SplineSet
229 44 m 0
 251 44 279 65 279 92 c 0
 279 110 265 124 246 124 c 0
 219 124 197 99 197 75 c 0
 197 57 210 44 229 44 c 0
330 98 m 0
 330 52 274 0 228 0 c 0
 182 0 146 29 146 71 c 0
 146 76 147 81 148 86 c 10
 177 219 l 18
 181 242 213 269 239 275 c 1
 158 275 l 1
 167 317 l 1
 237 422 339 445 430 445 c 0
 525 445 599 390 599 330 c 0
 599 315 531 0 529 0 c 2
 430 0 l 17
 430 0 498 317 498 320 c 0
 498 346 453 366 413 366 c 8
 350 366 290 356 248 317 c 1
 386 317 l 1
 377 275 l 1
 314 263 284 256 277 219 c 2
 263 156 l 1
 263 156 267 158 276 158 c 0
 319 158 330 120 330 98 c 0
EndSplineSet
EndChar

StartChar: uni0E17
Encoding: 213 3607 224
Width: 600
Flags: W
HStem: 0 445<509.681 537 256 537 513 513> 279 43<197.568 237.497> 366 79<453.21 539.499> 402 46<205.193 275.692>
VStem: 145 467<356 410 338 364 338 338> 145 51<323.953 392.927> 278 67<350.23 400.127>
LayerCount: 2
Fore
SplineSet
228 322 m 0x56
 250 322 278 343 278 370 c 0
 278 388 264 402 245 402 c 0
 218 402 196 377 196 353 c 0
 196 335 209 322 228 322 c 0x56
145 338 m 0x48
 145 410 205 448 256 448 c 16
 309 448 345 431 345 389 c 0x52
 345 383 344 376 342 368 c 2
 312 225 l 25
 393 370 l 18
 430 434 478 445 513 445 c 0
 570 445 612 417 612 364 c 0
 612 356 611 347 609 338 c 2
 537 0 l 25
 437 0 l 17x88
 509 338 l 2
 511 350 501 366 485 366 c 0x28
 458 366 447 332 444 330 c 1
 260 0 l 9
 165 0 l 25x88
 225 282 l 17
 225 282 218 279 208 279 c 0
 196.217 279 145 294.008 145 338 c 0x48
EndSplineSet
EndChar

StartChar: uni0E18
Encoding: 214 3608 225
Width: 600
Flags: W
HStem: 0 21G<169.2 516> 370 75<300.538 539.486>
VStem: 165 438<0 412 39.9321 -65.964>
LayerCount: 2
Fore
SplineSet
452 445 m 0
 329 445 273 436 188 345 c 9
 177 292 l 17
 197 292 217 296 250 296 c 0
 278 296 316 293 372 282 c 0
 409 275 469 251 465 229 c 2
 437 100 l 25
 346 100 l 17
 377 245 l 1
 277 245 l 1
 246 100 l 1
 186 100 l 1
 165 0 l 9
 516 0 l 1
 565 229 l 2
 566 234 567 238 567 243 c 0
 567 288 519 323 452 337 c 8
 394 349 299 353 299 353 c 1
 299 353 386 370 439 370 c 24
 491 370 563 339 563 339 c 1
 603 412 l 1
 603 412 529 445 452 445 c 0
EndSplineSet
EndChar

StartChar: uni0E19
Encoding: 215 3609 226
Width: 600
Flags: W
HStem: -2 72<424.958 502.188> 402 38<197.48 267.647>
VStem: 128 60<323.984 390.717> 270 51<344.707 400.078> 522 56<79.9041 173.841>
LayerCount: 2
Fore
SplineSet
473 70 m 0
 498 70 522 93 522 119 c 0
 522 137 509 150 490 150 c 0
 469 150 440 131 440 103 c 0
 440 84 454 70 473 70 c 0
220 322 m 0
 242 322 270 343 270 370 c 0
 270 388 256 402 237 402 c 0
 210 402 188 377 188 353 c 0
 188 335 201 322 220 322 c 0
578 165 m 0
 578 36 474 -2 438 -2 c 0
 408 -2 368 60 372 81 c 1
 241 0 l 9
 143 0 l 25
 202 280 l 17
 199 281 199 280 185 280 c 0
 155 280 128 313 128 343 c 0
 128 382 187 440 247 440 c 16
 287 440 321 422 321 378 c 0
 321 371 321 364 319 357 c 2
 265 105 l 1
 392 175 l 9
 450 445 l 1
 550 445 l 9
 502 220 l 17
 502 220 513 223 526 223 c 0
 555 223 578 199 578 165 c 0
EndSplineSet
EndChar

StartChar: uni0E1A
Encoding: 216 3610 227
Width: 600
Flags: W
HStem: 0 444<514 520 122 614 601.827 691> 1 99<143 164 264 351.827 351.827 441> 273 44<176.404 211.598> 397 46<184.749 255.38>
VStem: 125 50<318.373 386.976> 257 62<339.137 394.638>
LayerCount: 2
Fore
SplineSet
207 317 m 0x3c
 229 317 257 338 257 365 c 0
 257 383 243 397 224 397 c 0
 197 397 175 372 175 348 c 0
 175 330 188 317 207 317 c 0x3c
125 339 m 0
 125 386 180 443 236 443 c 0
 284 443 319 400 319 362 c 0
 319 358 319 355 318 351 c 2
 264 100 l 1
 441 100 l 9x7c
 514 444 l 1
 614 444 l 9
 520 0 l 17x8c
 520 0 343 1 225 1 c 0x4c
 166 1 122 1 122 0 c 1x8c
 143 100 l 1
 164 100 l 9x4c
 203 281 l 17
 203 281 191 273 179 273 c 0
 162 273 125 300 125 339 c 0
EndSplineSet
EndChar

StartChar: uni0E1B
Encoding: 217 3611 228
Width: 600
Flags: W
HStem: 1 99<143 164 264 351.827 351.827 441> 273 44<176.404 211.598> 397 46<184.749 255.38>
VStem: 125 50<318.373 386.976> 257 62<339.137 394.638>
LayerCount: 2
Fore
SplineSet
207 317 m 0
 229 317 257 338 257 365 c 0
 257 383 243 397 224 397 c 0
 197 397 175 372 175 348 c 0
 175 330 188 317 207 317 c 0
125 339 m 0
 125 386 180 443 236 443 c 0
 284 443 319 400 319 362 c 0
 319 358 319 355 318 351 c 2
 264 100 l 1
 441 100 l 9
 551 615 l 1
 651 615 l 9
 520 0 l 17
 520 0 343 1 225 1 c 0
 166 1 122 1 122 0 c 1
 143 100 l 1
 164 100 l 9
 203 281 l 17
 203 281 191 273 179 273 c 0
 162 273 125 300 125 339 c 0
EndSplineSet
EndChar

StartChar: uni0E1C
Encoding: 218 3612 229
Width: 600
Flags: W
HStem: 0 21G<117 282.458 358.075 530.27> 271 45<275 319.823> 396 48<256.895 327.172>
VStem: 329 38<326.351 393.48>
LayerCount: 2
Fore
SplineSet
296 396 m 0
 271 396 247 373 247 347 c 0
 247 329 260 316 279 316 c 0
 300 316 329 335 329 363 c 0
 329 382 315 396 296 396 c 0
306 444 m 16
 337 444 367 424 367 379 c 0
 367 324 328 271 275 271 c 9
 241 111 l 17
 320 226 l 9
 413 226 l 25
 449 107 l 1
 521 445 l 25
 621 445 l 25
 526 0 l 17
 362 0 l 1
 341 107 l 1
 269 0 l 1
 117 0 l 9
 192 354 l 18
 204 411 255 444 306 444 c 16
EndSplineSet
EndChar

StartChar: uni0E1D
Encoding: 219 3613 230
Width: 600
Flags: W
HStem: 0 21G<117 282.458 358.075 530.262> 271 45<275 319.545> 396 48<256.895 327.172>
VStem: 329 38<326.158 393.48>
LayerCount: 2
Fore
SplineSet
279 316 m 0
 300 316 329 335 329 363 c 0
 329 382 315 396 296 396 c 0
 271 396 247 373 247 347 c 0
 247 329 260 316 279 316 c 0
306 444 m 16
 337 444 367 424 367 379 c 0
 367 318 323 271 275 271 c 9
 241 111 l 17
 320 226 l 9
 413 226 l 25
 449 107 l 1
 556 610 l 25
 656 610 l 25
 526 0 l 17
 362 0 l 1
 341 107 l 1
 269 0 l 1
 117 0 l 9
 192 354 l 18
 204 411 255 444 306 444 c 16
EndSplineSet
EndChar

StartChar: uni0E1E
Encoding: 220 3614 231
Width: 600
Flags: W
HStem: 0 445<142 216 409 460 531 536 195 536 195 195> 396 49<142.556 213.176>
VStem: 89 44<318.214 385.578> 215 59<341.838 393.44>
LayerCount: 2
Fore
SplineSet
165 316 m 0x70
 186 316 215 335 215 363 c 0
 215 382 201 396 182 396 c 0
 157 396 133 373 133 347 c 0
 133 329 146 316 165 316 c 0x70
89 329 m 0
 89 405 142 445 195 445 c 0
 240 445 274 418 274 376 c 0
 274 370 273 364 272 358 c 10
 233 172 l 17
 358 445 l 9
 460 445 l 25
 473 173 l 1
 531 445 l 25xb0
 631 445 l 25x70
 536 0 l 17
 409 0 l 1
 379 312 l 1
 216 0 l 1
 96 0 l 9xb0
 153 270 l 17
 131 270 89 273 89 329 c 0
EndSplineSet
EndChar

StartChar: uni0E1F
Encoding: 221 3615 232
Width: 600
Flags: W
HStem: 0 21G<96 226.449 407.077 540.262> 396 49<142.556 213.02>
VStem: 89 44<317.966 385.578> 215 59<341.838 393.44>
LayerCount: 2
Fore
SplineSet
165 316 m 0
 186 316 215 335 215 363 c 0
 215 382 201 396 182 396 c 0
 157 396 133 373 133 347 c 0
 133 329 146 316 165 316 c 0
89 329 m 0
 89 405 142 445 195 445 c 0
 239 445 274 418 274 376 c 0
 274 370 273 364 272 358 c 10
 233 172 l 17
 358 445 l 9
 460 445 l 25
 473 173 l 1
 566 610 l 25
 666 610 l 25
 536 0 l 17
 409 0 l 1
 379 312 l 1
 216 0 l 1
 96 0 l 9
 153 270 l 17
 118 270 89 282 89 329 c 0
EndSplineSet
EndChar

StartChar: uni0E20
Encoding: 222 3616 233
Width: 600
Flags: W
HStem: 0 34<118.665 189.003> 114 31<126.573 170.592 155.185 162> 363 82<285.21 435.245>
VStem: 72 45<36.3871 104.324> 457 100<289.523 313.023 313.023 321.523 317.273 353.973>
LayerCount: 2
Fore
SplineSet
150 34 m 0
 176 34 199 59 199 82 c 0
 199 100 186 114 167 114 c 0
 145 114 117 94 117 66 c 0
 117 48 131 34 150 34 c 0
72 58 m 0
 72 97 110 145 148 145 c 0
 156 145 162 144 162 144 c 1
 174 202 l 2
 179 227 211 257 238 264 c 1
 137 264 l 1
 147 311 l 1
 216 419 316 445 405 445 c 0
 489 445 560 413 560 337 c 0
 560 327 559 317 557 306 c 10
 492 0 l 25
 392 0 l 25
 457 306 l 18
 458 311 459 316 459 320 c 0
 459 358 416 363 383 363 c 8
 330 363 285 352 248 311 c 1
 347 311 l 1
 337 264 l 1
 300 251 283 243 274 202 c 10
 247 76 l 18
 242 51 198 0 143 0 c 0
 104 0 72 23 72 58 c 0
EndSplineSet
EndChar

StartChar: uni0E21
Encoding: 223 3617 234
Width: 600
Flags: W
HStem: -8 62<184.937 248.022> 134 61<192.451 249.766> 402 44<244.366 314.967>
VStem: 133 50<55.8665 110.232> 192 43<323.83 392.71> 317 64<346.184 399.529>
LayerCount: 2
Fore
SplineSet
215 54 m 0
 237 54 265 75 265 102 c 0
 265 120 251 134 232 134 c 0
 205 134 183 109 183 85 c 0
 183 67 196 54 215 54 c 0
267 322 m 0
 289 322 317 343 317 370 c 0
 317 388 303 402 284 402 c 0
 257 402 235 377 235 353 c 0
 235 335 248 322 267 322 c 0
192 336 m 0
 192 370 212 446 291 446 c 16
 344 446 381 419 381 377 c 0
 381 372 380 366 379 360 c 2
 337 166 l 17
 442 98 l 9
 516 445 l 25
 616 445 l 25
 521 0 l 17
 385 0 l 1
 301 59 l 1
 301 59 293 20 274 8 c 16
 254 -3 235 -8 217 -8 c 0
 182 -8 133 15 133 63 c 0
 133 78 136 95 140 113 c 0
 148 148 204 195 231 195 c 0
 240 195 245 195 250 198 c 9
 265 266 l 1
 198 266 192 322 192 336 c 0
EndSplineSet
EndChar

StartChar: uni0E22
Encoding: 224 3618 235
Width: 600
Flags: W
HStem: 0 444<260 356 515 521 309 521 515 515> 0 102<248 443> 400 45<260.067 329.582>
VStem: 332 44<330.242 397.511>
LayerCount: 2
Fore
SplineSet
282 320 m 0x30
 303 320 332 339 332 367 c 0
 332 386 318 400 299 400 c 0
 274 400 250 377 250 351 c 0
 250 333 263 320 282 320 c 0x30
309 445 m 16
 356 445 376 428 376 392 c 0
 376 313 310 279 287 289 c 1
 283 267 l 18
 279 249 317 222 330 222 c 1
 316 155 l 1
 259 155 l 9
 248 102 l 1
 443 102 l 1x70
 515 444 l 25
 615 444 l 25
 521 0 l 17x90
 126 0 l 1x50
 159 155 l 18
 172 214 219 224 246 224 c 0
 256 224 263 223 264 222 c 1
 228 227 182 234 182 261 c 0
 182 263 183 265 183 267 c 10
 201 355 l 2
 213 410 260 445 309 445 c 16
EndSplineSet
EndChar

StartChar: uni0E23
Encoding: 225 3619 236
Width: 600
Flags: W
HStem: 0 46<407.264 477.377> 126 49<414.493 452.468> 376 69<307.925 512.059>
VStem: 179 419<285 411 285 285> 352 53<48.4125 115.944>
LayerCount: 2
Fore
SplineSet
438 46 m 0xe8
 463 46 487 69 487 95 c 0
 487 113 474 126 455 126 c 0
 434 126 405 107 405 79 c 0
 405 60 419 46 438 46 c 0xe8
352 75 m 0
 352 139 411 175 435 175 c 0
 444 175 450 171 450 171 c 9
 461 219 l 2
 466 244 396 271 369 276 c 0
 326 284 269 286 228 286 c 0
 199 286 179 285 179 285 c 9
 190 341 l 17
 258 437 342 445 421 445 c 0
 502 445 598 411 598 411 c 1xf0
 559 337 l 1
 559 337 469 376 404 376 c 24
 364 376 301 352 301 352 c 1
 301 352 415 346 482 329 c 16
 531 316 566 314 566 261 c 0
 566 250 565 236 561 219 c 2
 533 89 l 2
 524 49 478 0 430 0 c 0
 384 0 352 37 352 75 c 0
EndSplineSet
EndChar

StartChar: uni0E24
Encoding: 226 3620 237
Width: 600
Flags: W
HStem: 0 44<198.926 269.079> 124 35<241.002 277.122> 366 79<299.384 482.476>
VStem: 146 51<45.6409 100.271> 279 51<54.945 121.836> 498 101<306.681 349.475>
LayerCount: 2
Fore
SplineSet
229 44 m 0
 251 44 279 65 279 92 c 0
 279 110 265 124 246 124 c 0
 219 124 197 99 197 75 c 0
 197 57 210 44 229 44 c 0
330 101 m 0
 330 47 262 0 219 0 c 0
 175 0 146 27 146 67 c 0
 146 73 147 80 148 86 c 10
 177 219 l 18
 181 242 213 269 239 275 c 1
 158 275 l 1
 167 317 l 1
 237 422 339 445 430 445 c 0
 525 445 599 390 599 330 c 0
 599 317 496 -163 494 -163 c 2
 395 -163 l 17
 395 -163 498 317 498 320 c 0
 498 346 453 366 413 366 c 8
 350 366 290 356 248 317 c 1
 386 317 l 1
 377 275 l 1
 314 263 284 256 277 219 c 2
 263 156 l 1
 263 156 268 159 276 159 c 0
 295 159 330 142 330 101 c 0
EndSplineSet
EndChar

StartChar: uni0E25
Encoding: 227 3621 238
Width: 600
Flags: W
HStem: 0 47<174.436 244.615> 224 74<265.735 339.962> 366 79<256.858 477.05>
VStem: 125 47<48.904 101.884> 254 45<56.2671 125.626>
LayerCount: 2
Fore
SplineSet
205 47 m 0
 230 47 254 70 254 96 c 0
 254 114 241 127 222 127 c 0
 201 127 172 108 172 80 c 0
 172 61 186 47 205 47 c 0
299 111 m 0
 299 40 239 0 194 0 c 0
 138 0 125 28 125 57 c 0
 125 68 127 79 129 89 c 2
 154 209 l 2
 160 233 197 298 297 298 c 0
 438 298 451 202 451 168 c 0
 451 161 450 157 450 157 c 1
 486 325 l 2
 492 354 426 366 377 366 c 24
 314 366 250 344 212 327 c 9
 188 394 l 17
 196 412 315 445 394 445 c 0
 479 445 589 430 589 348 c 0
 589 341 588 333 586 325 c 2
 517 0 l 1
 417 0 l 17
 417 0 402 196 334 218 c 0
 323 222 312 224 302 224 c 0
 293 224 285 223 275 220 c 0
 243 210 244 162 244 162 c 1
 244 162 252 166 261 166 c 0
 284 166 299 140 299 111 c 0
EndSplineSet
EndChar

StartChar: uni0E26
Encoding: 228 3622 239
Width: 600
Flags: W
HStem: 0 34<118.938 189.677> 114 30<126.372 172.996> 363 82<285.21 435.245>
VStem: 72 45<35.6385 104.706> 457 100<289.585 313.023 313.023 321.523 317.273 353.973>
LayerCount: 2
Fore
SplineSet
149 34 m 0
 170 34 199 53 199 81 c 0
 199 100 185 114 166 114 c 0
 141 114 117 91 117 65 c 0
 117 47 130 34 149 34 c 0
72 59 m 0
 72 98 110 144 141 144 c 0
 151 144 161 141 161 141 c 1
 174 202 l 2
 179 227 211 257 238 264 c 1
 137 264 l 1
 147 311 l 1
 216 419 316 445 405 445 c 0
 489 445 560 413 560 337 c 0
 560 327 559 317 557 306 c 10
 457 -163 l 25
 357 -163 l 25
 457 306 l 18
 458 311 459 316 459 320 c 0
 459 358 416 363 383 363 c 8
 330 363 285 352 248 311 c 1
 347 311 l 1
 337 264 l 1
 300 251 283 243 274 202 c 10
 247 76 l 18
 242 51 199 0 144 0 c 0
 105 0 72 23 72 59 c 0
EndSplineSet
EndChar

StartChar: uni0E27
Encoding: 229 3623 240
Width: 600
Flags: W
HStem: 0 56<415.552 485.581> 136 45<422.47 485.324> 363 82<319.689 480.701>
VStem: 234 380<302 368 368 368> 358 55<58.6736 126.06> 513 101<278.305 334.581>
LayerCount: 2
Fore
SplineSet
446 56 m 0xe8
 471 56 495 79 495 105 c 0
 495 123 482 136 463 136 c 0
 442 136 413 117 413 89 c 0
 413 70 427 56 446 56 c 0xe8
358 75 m 0
 358 144 423 181 452 181 c 0
 471 181 489 174 489 174 c 9
 511 278 l 18
 512 283 513 288 513 292 c 0xec
 513 343 449 363 389 363 c 8
 342 363 312 341 269 312 c 9
 234 368 l 17
 234 368 319 445 407 445 c 0
 537 445 614 379 614 302 c 0xf0
 614 294 613 286 611 278 c 10
 572 94 l 17
 573 90 532 0 432 0 c 0
 388 0 358 32 358 75 c 0
EndSplineSet
EndChar

